<?xml version="1.0" encoding="utf-8"?>
<!-- Generator: Adobe Illustrator 16.0.0, SVG Export Plug-In . SVG Version: 6.00 Build 0)  -->
<!DOCTYPE svg PUBLIC "-//W3C//DTD SVG 1.1//EN" "http://www.w3.org/Graphics/SVG/1.1/DTD/svg11.dtd">
<svg version="1.1" id="Layer_1" xmlns="http://www.w3.org/2000/svg" xmlns:xlink="http://www.w3.org/1999/xlink" x="0px" y="0px"
	 width="40px" height="40px" viewBox="0 0 40 40" style="enable-background:new 0 0 40 40;" xml:space="preserve">
<style type="text/css">
<![CDATA[
	.st0{fill:#A1C50C;}
]]>
</style>
<g>
	<g>
		<path class="st0" d="M39.361,28.684c0.353,0,0.639-0.285,0.639-0.637V2.635C40,2.284,39.714,2,39.361,2H0.639
			C0.286,2,0,2.284,0,2.635v34.729C0,37.716,0.286,38,0.639,38h38.722C39.714,38,40,37.716,40,37.364v-6.776
			c0-0.352-0.286-0.636-0.639-0.636s-0.639,0.284-0.639,0.636v6.143H1.276V8.353h37.447v19.694
			C38.725,28.396,39.01,28.684,39.361,28.684z M24.895,7.082H1.276V3.271h23.617v3.811H24.895z M26.17,7.082V3.271h12.555v3.812
			L26.17,7.082L26.17,7.082z M32.468,4.499c-0.375,0-0.681,0.304-0.681,0.677s0.306,0.677,0.681,0.677
			c0.376,0,0.683-0.304,0.683-0.677S32.844,4.499,32.468,4.499z M28.979,4.499c-0.375,0-0.681,0.304-0.681,0.677
			s0.306,0.677,0.681,0.677c0.377,0,0.682-0.304,0.682-0.677S29.354,4.499,28.979,4.499z M35.957,4.499
			c-0.375,0-0.682,0.304-0.682,0.677s0.307,0.677,0.682,0.677c0.376,0,0.682-0.304,0.682-0.677S36.333,4.499,35.957,4.499z
			 M27.055,17.288c-0.283,0.21-0.342,0.607-0.13,0.889c0.212,0.281,0.61,0.338,0.894,0.129c2.305-1.716,3.625-4.34,3.625-7.2
			c0-0.351-0.285-0.635-0.637-0.635H9.194c-0.353,0-0.638,0.284-0.638,0.635c0,3.886,2.537,7.343,6.218,8.542
			c0.498,2.192,2.354,3.85,4.587,4.118v3.293h-4.632c-0.353,0-0.638,0.284-0.638,0.635v6.283c0,0.352,0.285,0.635,0.638,0.635H25.27
			c0.353,0,0.639-0.283,0.639-0.635v-6.283c0-0.351-0.286-0.635-0.639-0.635h-4.631v-3.293c2.379-0.287,4.332-2.148,4.668-4.56
			l1.035-7.465h3.799C29.963,13.947,28.859,15.942,27.055,17.288z M9.859,11.741h3.798l0.897,6.467
			C11.926,17.095,10.098,14.596,9.859,11.741z M24.632,28.328v5.013h-9.264v-5.013H24.632z M24.042,19.033
			c-0.276,1.994-2.015,3.501-4.042,3.501c-2.027,0-3.766-1.507-4.042-3.501l-1.012-7.292h1.288l0.281,2.026
			c0.044,0.317,0.318,0.548,0.632,0.548c0.029,0,0.059-0.002,0.088-0.006c0.35-0.048,0.593-0.369,0.545-0.717l-0.257-1.852h7.53
			L24.042,19.033z M16.865,16.284l0.357,2.575c0.19,1.37,1.385,2.403,2.777,2.403c0.353,0,0.64-0.283,0.64-0.635
			c0-0.351-0.287-0.635-0.64-0.635c-0.759,0-1.409-0.563-1.513-1.308L18.13,16.11c-0.048-0.348-0.37-0.591-0.72-0.542
			C17.062,15.616,16.817,15.937,16.865,16.284z M17.852,31.436h4.296c0.354,0,0.64-0.285,0.64-0.636s-0.286-0.635-0.64-0.635h-4.296
			c-0.353,0-0.639,0.284-0.639,0.635S17.499,31.436,17.852,31.436z"/>
	</g>
</g>
</svg>
