<?xml version="1.0" encoding="utf-8"?>
<!-- Generator: Adobe Illustrator 16.0.0, SVG Export Plug-In . SVG Version: 6.00 Build 0)  -->
<!DOCTYPE svg PUBLIC "-//W3C//DTD SVG 1.1//EN" "http://www.w3.org/Graphics/SVG/1.1/DTD/svg11.dtd">
<svg version="1.1" id="Layer_1" xmlns="http://www.w3.org/2000/svg" xmlns:xlink="http://www.w3.org/1999/xlink" x="0px" y="0px"
	 width="40px" height="40px" viewBox="0 0 40 40" style="enable-background:new 0 0 40 40;" xml:space="preserve">
<style type="text/css">
<![CDATA[
	.st0{fill:#31383E;}
]]>
</style>
<g>
	<g>
		<path class="st0" d="M1.371,18.676h4.327l1.553,3.106c0.108,0.217,0.329,0.354,0.571,0.354s0.463-0.137,0.571-0.354l1.554-3.106
			h0.317c0.352,0,0.638-0.286,0.638-0.638c0-0.354-0.286-0.639-0.638-0.639H9.552c-0.242,0-0.463,0.136-0.571,0.353L7.822,20.07
			l-1.159-2.318c-0.108-0.216-0.329-0.353-0.571-0.353H1.371c-0.052,0-0.094-0.042-0.094-0.094V1.37
			c0-0.052,0.042-0.094,0.094-0.094h12.903c0.052,0,0.094,0.042,0.094,0.094v6.92c0,0.353,0.285,0.639,0.639,0.639
			c0.353,0,0.638-0.286,0.638-0.639V1.37c0-0.756-0.614-1.37-1.37-1.37H1.371C0.615,0,0,0.614,0,1.37v15.936
			C0,18.061,0.615,18.676,1.371,18.676z M7.822,2.553c-1.76,0-3.193,1.432-3.193,3.193s1.433,3.193,3.193,3.193
			s3.193-1.433,3.193-3.193S9.582,2.553,7.822,2.553z M7.822,7.663c-1.057,0-1.917-0.86-1.917-1.917c0-1.056,0.86-1.916,1.917-1.916
			c1.057,0,1.917,0.86,1.917,1.917S8.879,7.663,7.822,7.663z M7.822,11.492c0.75,0,1.482,0.21,2.115,0.605
			c0.299,0.187,0.692,0.097,0.88-0.203c0.187-0.299,0.096-0.692-0.203-0.88c-0.836-0.522-1.801-0.799-2.792-0.799
			c-2.905,0-5.269,2.363-5.269,5.269c0,0.353,0.286,0.638,0.638,0.638h7.072c0.352,0,0.638-0.285,0.638-0.638
			s-0.286-0.638-0.638-0.638H3.881C4.187,12.947,5.838,11.492,7.822,11.492z M38.629,0H25.727c-0.756,0-1.37,0.614-1.37,1.37v6.92
			c0,0.353,0.285,0.639,0.638,0.639c0.354,0,0.639-0.286,0.639-0.639V1.37c0-0.052,0.042-0.094,0.094-0.094h12.902
			c0.052,0,0.095,0.042,0.095,0.094v15.936c0,0.051-0.043,0.094-0.095,0.094h-4.721c-0.242,0-0.463,0.136-0.571,0.353l-1.159,2.318
			l-1.158-2.318c-0.108-0.217-0.33-0.353-0.572-0.353h-0.711c-0.352,0-0.638,0.285-0.638,0.639c0,0.352,0.286,0.638,0.638,0.638
			h0.317l1.554,3.106c0.107,0.217,0.329,0.354,0.57,0.354c0.242,0,0.463-0.137,0.571-0.354l1.554-3.106h4.326
			c0.756,0,1.371-0.615,1.371-1.37V1.37C40,0.614,39.385,0,38.629,0z M32.178,2.553c-1.76,0-3.192,1.432-3.192,3.193
			s1.433,3.193,3.192,3.193c1.761,0,3.193-1.433,3.193-3.193S33.938,2.553,32.178,2.553z M32.178,7.663
			c-1.057,0-1.916-0.86-1.916-1.917c0-1.056,0.859-1.916,1.916-1.916s1.917,0.86,1.917,1.916
			C34.095,6.803,33.234,7.663,32.178,7.663z M29.099,15.484c0,0.353,0.286,0.638,0.638,0.638h7.072c0.352,0,0.639-0.285,0.639-0.638
			c0-2.905-2.364-5.269-5.27-5.269c-0.99,0-1.955,0.276-2.791,0.8c-0.299,0.187-0.391,0.58-0.203,0.879
			c0.188,0.3,0.581,0.39,0.88,0.203c0.633-0.396,1.364-0.605,2.114-0.605c1.984,0,3.635,1.455,3.941,3.354h-6.383
			C29.385,14.847,29.099,15.132,29.099,15.484z M12.178,11.575V27.51c0,0.756,0.615,1.37,1.371,1.37h4.326l1.555,3.107
			c0.107,0.216,0.328,0.354,0.57,0.354c0.241,0,0.463-0.138,0.57-0.354l1.554-3.107h4.327c0.756,0,1.371-0.614,1.371-1.37V11.575
			c0-0.756-0.615-1.37-1.371-1.37H13.549C12.793,10.205,12.178,10.819,12.178,11.575z M26.545,11.575V27.51
			c0,0.052-0.042,0.094-0.094,0.094H21.73c-0.242,0-0.463,0.137-0.571,0.354L20,30.274l-1.159-2.317
			c-0.108-0.217-0.329-0.354-0.571-0.354h-4.721c-0.052,0-0.094-0.042-0.094-0.094V11.575c0-0.052,0.042-0.094,0.094-0.094h12.902
			C26.503,11.481,26.545,11.523,26.545,11.575z M20,19.144c1.761,0,3.193-1.433,3.193-3.193S21.761,12.758,20,12.758
			s-3.193,1.432-3.193,3.192S18.239,19.144,20,19.144z M20,14.034c1.057,0,1.916,0.859,1.916,1.916S21.057,17.867,20,17.867
			s-1.916-0.86-1.916-1.917S18.943,14.034,20,14.034z M15.369,26.327h9.262c0.352,0,0.638-0.285,0.638-0.638
			c0-2.905-2.363-5.27-5.269-5.27s-5.27,2.364-5.27,5.27C14.73,26.042,15.018,26.327,15.369,26.327z M20,21.696
			c1.984,0,3.635,1.455,3.941,3.354h-7.883C16.365,23.151,18.016,21.696,20,21.696z M32.468,37.489c0.376,0,0.681-0.306,0.681-0.681
			s-0.305-0.681-0.681-0.681c-0.375,0-0.681,0.306-0.681,0.681S32.093,37.489,32.468,37.489z M28.979,37.489
			c0.375,0,0.682-0.306,0.682-0.681s-0.307-0.681-0.682-0.681s-0.681,0.306-0.681,0.681S28.604,37.489,28.979,37.489z
			 M35.957,37.489c0.375,0,0.682-0.306,0.682-0.681s-0.307-0.681-0.682-0.681s-0.68,0.306-0.68,0.681S35.582,37.489,35.957,37.489z
			 M39.361,33.617H0.638C0.286,33.617,0,33.902,0,34.255v5.106C0,39.714,0.286,40,0.638,40h38.723C39.714,40,40,39.714,40,39.361
			v-5.106C40,33.902,39.714,33.617,39.361,33.617z M24.894,38.724H1.276v-3.83h23.617V38.724z M38.724,38.724H26.17v-3.83h12.554
			V38.724z"/>
	</g>
</g>
</svg>
