<?xml version="1.0" encoding="utf-8"?>
<!-- Generator: Adobe Illustrator 16.0.0, SVG Export Plug-In . SVG Version: 6.00 Build 0)  -->
<!DOCTYPE svg PUBLIC "-//W3C//DTD SVG 1.1//EN" "http://www.w3.org/Graphics/SVG/1.1/DTD/svg11.dtd">
<svg version="1.1" id="Layer_1" xmlns="http://www.w3.org/2000/svg" xmlns:xlink="http://www.w3.org/1999/xlink" x="0px" y="0px"
	 width="473.616px" height="75.223px" viewBox="0 0 473.616 75.223" style="enable-background:new 0 0 473.616 75.223;"
	 xml:space="preserve">
<style type="text/css">
<![CDATA[
	.st0{fill:#F16322;}
	.st1{fill:#31383E;}
	.st2{fill:#6A4FA0;}
]]>
</style>
<g>
	<path class="st1" d="M62.148,57.944v16.305H0V59.252l36.073-41.98H0.399V0.967h60.84V16.36l-36.3,41.584H62.148z"/>
	<path class="st1" d="M135.738,57.944v16.305H78.023V0.967h56.692v16.305H97.451v11.929h28.744v16.075H97.451v12.669H135.738z"/>
	<path class="st1" d="M198.875,0.967h18.122v73.282h-15.792l-31.698-43.4v43.4h-18.122V0.967h18.806l28.684,40.617V0.967z"/>
	<path class="st1" d="M355.148,50.274h-13.18v23.975h-19.43V0.967h37.104c9.332,0,16.387,2.056,21.167,6.164
		c4.781,4.108,7.189,9.833,7.227,17.173c0,5.213-1.465,9.53-4.399,12.952c-2.934,3.427-6.686,5.423-11.257,5.992
		c7.811,1.56,12.095,6.348,12.858,14.364c0.53,5.899,1.025,9.838,1.479,11.818s1.252,3.584,2.388,4.818h-20.153
		c-1.479-1.831-2.484-6.46-3.015-13.892c-0.303-3.883-1.287-6.534-2.953-7.953C361.318,50.987,358.705,50.274,355.148,50.274z
		 M341.968,34.712h14.088c4.354,0,7.534-0.673,9.544-2.014c2.005-1.341,3.009-3.662,3.009-6.959c0-6.137-4.186-9.205-12.553-9.205
		h-14.088V34.712z"/>
	<path class="st1" d="M423.226,74.249h-19.769V0.967h19.769v29.655l26.302-29.655h22.725l-28.291,31.188l29.654,42.094h-23.577
		l-20.393-29.2l-6.42,6.988V74.249z"/>
	<path class="st0" d="M307.8,37.635c0-11.154-3.636-20.301-10.907-27.438c-5.954-5.781-13.109-9.158-21.428-10.205v17.868
		c2.84,0.889,5.251,2.509,7.227,4.859c3.181,3.743,4.771,8.714,4.771,14.917c0,6.204-1.591,11.179-4.771,14.921
		c-1.972,2.319-4.382,3.919-7.227,4.801v17.861c8.325-1.056,15.482-4.438,21.428-10.227C304.165,57.911,307.8,48.793,307.8,37.635z"
		/>
	<path class="st2" d="M256.844,52.556c-3.182-3.742-4.772-8.717-4.772-14.921c0.038-6.162,1.649-11.136,4.83-14.917
		c1.965-2.334,4.355-3.945,7.171-4.839V0c-8.298,1.058-15.458,4.44-21.428,10.228c-7.271,7.082-10.907,16.211-10.907,27.38
		c-0.04,11.172,3.596,20.317,10.907,27.436c5.981,5.766,13.137,9.132,21.428,10.179V57.374
		C261.214,56.494,258.804,54.891,256.844,52.556z"/>
</g>
</svg>
