<?xml version="1.0" encoding="utf-8"?>
<!-- Generator: Adobe Illustrator 16.0.0, SVG Export Plug-In . SVG Version: 6.00 Build 0)  -->
<!DOCTYPE svg PUBLIC "-//W3C//DTD SVG 1.1//EN" "http://www.w3.org/Graphics/SVG/1.1/DTD/svg11.dtd">
<svg version="1.1" id="Layer_1" xmlns="http://www.w3.org/2000/svg" xmlns:xlink="http://www.w3.org/1999/xlink" x="0px" y="0px"
	 width="40px" height="40px" viewBox="0 0 40 40" style="enable-background:new 0 0 40 40;" xml:space="preserve">
<style type="text/css">
<![CDATA[
	.st0{fill:#BD9655;}
]]>
</style>
<g>
	<g>
		<path class="st0" d="M39.361,28.683c0.353,0,0.639-0.285,0.639-0.636V2.635C40,2.284,39.714,2,39.361,2H0.639
			C0.286,2,0,2.284,0,2.635v34.73C0,37.716,0.286,38,0.639,38h38.723C39.714,38,40,37.716,40,37.365v-6.777
			c0-0.351-0.286-0.635-0.639-0.635c-0.352,0-0.638,0.284-0.638,0.635v6.142H1.276V8.353h37.447v19.694
			C38.724,28.397,39.01,28.683,39.361,28.683z M24.894,7.082H1.276V3.271h23.617V7.082z M26.17,7.082V3.271h12.554v3.812H26.17z
			 M32.468,4.499c-0.375,0-0.681,0.304-0.681,0.677c0,0.374,0.306,0.678,0.681,0.678c0.376,0,0.682-0.304,0.682-0.678
			C33.149,4.803,32.844,4.499,32.468,4.499z M28.979,4.499c-0.375,0-0.681,0.304-0.681,0.677c0,0.374,0.306,0.678,0.681,0.678
			c0.376,0,0.681-0.304,0.681-0.678C29.659,4.803,29.354,4.499,28.979,4.499z M35.957,4.499c-0.375,0-0.681,0.304-0.681,0.677
			c0,0.374,0.306,0.678,0.681,0.678c0.376,0,0.681-0.304,0.681-0.678C36.638,4.803,36.333,4.499,35.957,4.499z M18.021,17.726
			c0.249,0.248,0.653,0.248,0.902,0c0.25-0.248,0.25-0.65,0-0.898l-5.589-5.563c-0.249-0.248-0.652-0.248-0.901-0.002l-3.768,3.725
			c-0.12,0.119-0.188,0.281-0.188,0.449c0,0.169,0.066,0.331,0.188,0.451l2.469,2.457l3.133,3.118
			c0.125,0.124,0.288,0.187,0.452,0.187c0.163,0,0.326-0.063,0.451-0.187c0.249-0.248,0.249-0.649,0-0.897l-0.213-0.212l1.461-1.454
			c0.249-0.248,0.249-0.65,0-0.898s-0.653-0.248-0.903,0l-1.46,1.454l-1.566-1.56l1.46-1.454c0.25-0.247,0.25-0.649,0-0.897
			c-0.249-0.249-0.653-0.249-0.902,0l-1.461,1.453L10.02,15.44l2.861-2.83L18.021,17.726z M21.744,28.907l4.935,4.911
			c0.12,0.118,0.282,0.186,0.451,0.186c0.17,0,0.332-0.067,0.452-0.186l3.754-3.737c0.25-0.249,0.25-0.65,0-0.898l-5.596-5.57
			c-0.249-0.248-0.653-0.248-0.902,0s-0.249,0.65,0,0.898l5.145,5.121L27.13,32.47l-1.563-1.557l1.46-1.454
			c0.25-0.248,0.25-0.65,0-0.898c-0.249-0.248-0.653-0.248-0.902,0l-1.461,1.454l-1.564-1.557l1.461-1.454
			c0.249-0.248,0.249-0.651,0-0.898c-0.249-0.248-0.653-0.248-0.902,0l-1.461,1.454l-0.211-0.21c-0.249-0.248-0.653-0.248-0.902,0
			s-0.249,0.65,0,0.898L21.744,28.907z M9.162,33.964c0.085,0,0.17-0.018,0.251-0.053l5.585-2.373
			c0.002-0.002,0.011-0.005,0.011-0.005c0.006-0.003,0.011-0.005,0.017-0.007c0.012-0.006,0.024-0.012,0.035-0.018
			c0.008-0.004,0.015-0.009,0.021-0.013c0.011-0.007,0.021-0.012,0.032-0.02c0.009-0.006,0.018-0.013,0.026-0.019l0.023-0.018
			c0.017-0.014,0.032-0.027,0.047-0.042l15.416-15.344c0.548-0.546,0.85-1.272,0.85-2.045c0-0.773-0.302-1.499-0.85-2.045
			s-1.277-0.846-2.055-0.846c-0.776,0-1.507,0.3-2.055,0.846l-1.623,1.616L11.101,27.309c-0.015,0.015-0.029,0.03-0.042,0.046
			c-0.007,0.008-0.012,0.017-0.019,0.025c-0.006,0.008-0.013,0.016-0.019,0.024c-0.007,0.011-0.013,0.021-0.02,0.032
			c-0.004,0.007-0.008,0.014-0.012,0.02c-0.006,0.012-0.012,0.024-0.018,0.036c-0.002,0.006-0.005,0.011-0.008,0.016l-0.003,0.009
			c-0.002,0.003-2.387,5.561-2.387,5.561c-0.103,0.239-0.049,0.516,0.136,0.699C8.833,33.898,8.996,33.964,9.162,33.964z
			 M27.42,12.864c0.307-0.307,0.716-0.475,1.151-0.475s0.845,0.168,1.152,0.475c0.307,0.305,0.476,0.712,0.476,1.146
			s-0.169,0.841-0.476,1.146l-1.173,1.167l-2.304-2.293L27.42,12.864z M25.345,14.929l2.303,2.293L14.759,30.051l-2.304-2.293
			L25.345,14.929z M11.768,28.872l1.872,1.862l-3.267,1.388L11.768,28.872z"/>
	</g>
</g>
</svg>
