<?xml version="1.0" encoding="utf-8"?>
<!-- Generator: Adobe Illustrator 16.0.0, SVG Export Plug-In . SVG Version: 6.00 Build 0)  -->
<!DOCTYPE svg PUBLIC "-//W3C//DTD SVG 1.1//EN" "http://www.w3.org/Graphics/SVG/1.1/DTD/svg11.dtd">
<svg version="1.1" id="Layer_1" xmlns="http://www.w3.org/2000/svg" xmlns:xlink="http://www.w3.org/1999/xlink" x="0px" y="0px"
	 width="40px" height="40px" viewBox="0 0 40 40" style="enable-background:new 0 0 40 40;" xml:space="preserve">
<style type="text/css">
<![CDATA[
	.st0{fill:#F56101;}
]]>
</style>
<g>
	<g>
		<path class="st0" d="M21.574,26.08c0.353,0,0.639-0.286,0.639-0.638c0-0.354-0.286-0.639-0.639-0.639H1.371
			c-0.05,0-0.095-0.045-0.095-0.095V1.371c0-0.05,0.044-0.095,0.095-0.095H32.16c0.051,0,0.095,0.044,0.095,0.095v11.234
			c0,0.353,0.286,0.638,0.639,0.638s0.639-0.285,0.639-0.638V1.371C33.532,0.615,32.917,0,32.16,0H1.371C0.615,0,0,0.615,0,1.371
			v23.338c0,0.756,0.615,1.371,1.371,1.371h11.506v3.854H7.969c-0.353,0-0.638,0.286-0.638,0.639s0.285,0.639,0.638,0.639h13.605
			c0.353,0,0.639-0.286,0.639-0.639s-0.286-0.639-0.639-0.639h-0.919V26.08H21.574z M19.379,29.935h-5.226V26.08h5.226V29.935z
			 M21.574,20.478H3.191c-0.353,0-0.638,0.285-0.638,0.639c0,0.353,0.286,0.638,0.638,0.638h18.383c0.353,0,0.639-0.285,0.639-0.638
			C22.213,20.763,21.927,20.478,21.574,20.478z M38.629,14.521H24.86c-0.756,0-1.371,0.615-1.371,1.371v22.736
			c0,0.757,0.615,1.372,1.371,1.372h13.769C39.385,40,40,39.385,40,38.628V15.892C40,15.136,39.385,14.521,38.629,14.521z
			 M38.724,38.628c0,0.051-0.045,0.095-0.095,0.095H24.86c-0.05,0-0.095-0.044-0.095-0.095v-3.734h13.958V38.628z M38.724,33.617
			H24.766V18.351h13.958V33.617z M38.724,17.073H24.766v-1.182c0-0.051,0.045-0.095,0.095-0.095h13.769
			c0.05,0,0.095,0.044,0.095,0.095V17.073z M30.468,37.446h2.554c0.353,0,0.638-0.286,0.638-0.638c0-0.353-0.285-0.639-0.638-0.639
			h-2.554c-0.353,0-0.639,0.286-0.639,0.639C29.829,37.16,30.115,37.446,30.468,37.446z"/>
	</g>
</g>
</svg>
