<?xml version="1.0" encoding="utf-8"?>
<!-- Generator: Adobe Illustrator 16.0.0, SVG Export Plug-In . SVG Version: 6.00 Build 0)  -->
<!DOCTYPE svg PUBLIC "-//W3C//DTD SVG 1.1//EN" "http://www.w3.org/Graphics/SVG/1.1/DTD/svg11.dtd">
<svg version="1.1" id="Layer_1" xmlns="http://www.w3.org/2000/svg" xmlns:xlink="http://www.w3.org/1999/xlink" x="0px" y="0px"
	 width="40px" height="40px" viewBox="0 0 40 40" style="enable-background:new 0 0 40 40;" xml:space="preserve">
<style type="text/css">
<![CDATA[
	.st0{fill:#68B2C0;}
]]>
</style>
<g>
	<g>
		<path class="st0" d="M14.24,17.808c-0.182-0.301-0.572-0.399-0.876-0.221l-7.436,4.408c-0.193,0.114-0.312,0.322-0.312,0.546
			s0.118,0.432,0.312,0.546l7.436,4.408c0.103,0.061,0.215,0.09,0.326,0.09c0.218,0,0.43-0.111,0.549-0.311
			c0.181-0.302,0.081-0.691-0.222-0.871l-6.515-3.862l6.515-3.862C14.32,18.499,14.42,18.109,14.24,17.808z M25.761,27.274
			c0.119,0.199,0.331,0.311,0.549,0.311c0.111,0,0.224-0.029,0.326-0.09l7.436-4.408c0.192-0.115,0.312-0.322,0.312-0.546
			s-0.119-0.432-0.312-0.546l-7.436-4.408c-0.304-0.179-0.694-0.08-0.875,0.221c-0.181,0.302-0.081,0.691,0.222,0.871l6.516,3.862
			l-6.516,3.862C25.68,26.583,25.58,26.973,25.761,27.274z M22.444,17.778l-5.948,8.816c-0.197,0.291-0.119,0.686,0.174,0.882
			c0.109,0.073,0.232,0.108,0.355,0.108c0.205,0,0.407-0.1,0.53-0.281l5.948-8.816c0.197-0.291,0.119-0.687-0.174-0.882
			S22.641,17.487,22.444,17.778z M39.361,28.683c0.353,0,0.639-0.285,0.639-0.636V2.635C40,2.284,39.714,2,39.361,2H0.638
			C0.286,2,0,2.284,0,2.635v34.729C0,37.716,0.286,38,0.638,38h38.723C39.714,38,40,37.716,40,37.364v-6.776
			c0-0.351-0.286-0.636-0.639-0.636c-0.352,0-0.638,0.285-0.638,0.636v6.142H1.276V8.353h37.447v19.694
			C38.724,28.397,39.01,28.683,39.361,28.683z M24.894,7.082H1.276V3.271h23.617V7.082z M26.17,7.082V3.271h12.554v3.812H26.17z
			 M32.468,4.499c-0.375,0-0.681,0.304-0.681,0.677s0.306,0.677,0.681,0.677c0.376,0,0.681-0.304,0.681-0.677
			S32.844,4.499,32.468,4.499z M28.979,4.499c-0.375,0-0.681,0.304-0.681,0.677s0.306,0.677,0.681,0.677S29.66,5.55,29.66,5.176
			S29.354,4.499,28.979,4.499z M35.957,4.499c-0.375,0-0.68,0.304-0.68,0.677s0.305,0.677,0.68,0.677s0.682-0.304,0.682-0.677
			S36.332,4.499,35.957,4.499z"/>
	</g>
</g>
</svg>
