<?xml version="1.0" encoding="utf-8"?>
<!-- Generator: Adobe Illustrator 15.0.0, SVG Export Plug-In . SVG Version: 6.00 Build 0)  -->
<!DOCTYPE svg PUBLIC "-//W3C//DTD SVG 1.1//EN" "http://www.w3.org/Graphics/SVG/1.1/DTD/svg11.dtd">
<svg version="1.1" id="Layer_1" xmlns="http://www.w3.org/2000/svg" xmlns:xlink="http://www.w3.org/1999/xlink" x="0px" y="0px"
	 width="192px" height="168px" viewBox="0 0 192 168" enable-background="new 0 0 192 168" xml:space="preserve">
<g>
	<path fill="none" stroke="#B3B3B3" stroke-width="2" stroke-linecap="round" stroke-linejoin="round" stroke-miterlimit="10" d="
		M131,11c0-5.523-4.478-10-10-10H11C5.477,1,1,5.477,1,11v146c0,5.522,4.477,10,10,10h110c5.522,0,10-4.478,10-10V11z"/>
</g>
<rect x="11.5" y="16.5" fill="none" stroke="#CCCCCC" stroke-linecap="round" stroke-linejoin="round" stroke-miterlimit="10" width="109" height="136"/>
<circle fill="#B3B3B3" cx="58" cy="9.5" r="1.5"/>
<g>
	<path fill="#B3B3B3" d="M61,9.5c0,0.829,0.671,1.5,1.5,1.5h13c0.829,0,1.5-0.671,1.5-1.5S76.329,8,75.5,8h-13
		C61.671,8,61,8.671,61,9.5C61,9.5,61,8.671,61,9.5z"/>
</g>
<circle fill="none" stroke="#B3B3B3" stroke-linecap="round" stroke-linejoin="round" stroke-miterlimit="10" cx="66" cy="159.5" r="3.5"/>
<g>
	<path fill="none" stroke="#B3B3B3" stroke-width="2" stroke-linecap="round" stroke-linejoin="round" stroke-miterlimit="10" d="
		M191,72c0-2.761-2.238-5-5-5h-40c-2.762,0-5,2.239-5,5v90c0,2.762,2.238,5,5,5h40c2.762,0,5-2.238,5-5V72z"/>
</g>
<rect x="145.5" y="77.5" fill="none" stroke="#CCCCCC" stroke-linecap="round" stroke-linejoin="round" stroke-miterlimit="10" width="41" height="78"/>
<circle fill="#B3B3B3" cx="160.563" cy="73" r="1"/>
<g>
	<path fill="#B3B3B3" d="M163,73c0,0.552,0.447,1,1,1h10c0.553,0,1-0.448,1-1s-0.447-1-1-1h-10C163.447,72,163,72.448,163,73
		C163,73,163,72.448,163,73z"/>
</g>
<circle fill="none" stroke="#B3B3B3" stroke-linecap="round" stroke-linejoin="round" stroke-miterlimit="10" cx="166.5" cy="161" r="3"/>
<polygon fill="#CCCCCC" points="76.828,83 70.228,83 65.953,74.873 58.128,87.5 78.053,87.5 88.061,105.5 43.939,105.5 47.209,99.5 
	78,99.5 73.787,93.5 48.902,93.5 65.666,63.5 "/>
<polygon fill="#CCCCCC" points="169.609,116 167.409,116 165.984,113.291 163.376,117.5 170.018,117.5 173.354,123.5 158.646,123.5 
	159.736,121.5 170,121.5 168.596,119.5 160.301,119.5 165.889,109.5 "/>
</svg>
