<?xml version="1.0" encoding="utf-8"?>
<!-- Generator: Adobe Illustrator 15.0.0, SVG Export Plug-In . SVG Version: 6.00 Build 0)  -->
<!DOCTYPE svg PUBLIC "-//W3C//DTD SVG 1.1//EN" "http://www.w3.org/Graphics/SVG/1.1/DTD/svg11.dtd">
<svg version="1.1" id="Layer_1" xmlns="http://www.w3.org/2000/svg" xmlns:xlink="http://www.w3.org/1999/xlink" x="0px" y="0px"
	 width="109.875px" height="15.5px" viewBox="0 0 109.875 15.5" enable-background="new 0 0 109.875 15.5" xml:space="preserve">
<g>
	<path fill="#0392FE" stroke="#0392FE" stroke-width="0.05" stroke-miterlimit="10" d="M10.724-19.448
		c-0.012,0.055-0.037,0.098-0.076,0.129c-0.039,0.031-0.082,0.047-0.129,0.047c-0.07,0-0.127-0.022-0.17-0.067
		s-0.064-0.097-0.064-0.155c0-0.058,0.006-0.116,0.018-0.173c0.012-0.057,0.018-0.112,0.018-0.167c0-0.285-0.088-0.541-0.264-0.768
		c-0.176-0.227-0.426-0.417-0.748-0.571c-0.322-0.154-0.714-0.273-1.175-0.355c-0.461-0.082-0.974-0.123-1.541-0.123
		c-0.434,0-0.87,0.028-1.31,0.085s-0.861,0.139-1.265,0.246s-0.782,0.242-1.134,0.404c-0.352,0.162-0.657,0.35-0.917,0.563
		c-0.26,0.213-0.464,0.449-0.612,0.709c-0.148,0.26-0.223,0.544-0.223,0.852c0,0.238,0.052,0.448,0.155,0.63
		c0.103,0.182,0.245,0.34,0.425,0.475c0.18,0.135,0.392,0.25,0.636,0.346c0.244,0.096,0.509,0.176,0.794,0.24
		s0.582,0.117,0.891,0.158s0.619,0.075,0.932,0.103l0.902,0.076c0.449,0.039,0.852,0.08,1.207,0.123
		c0.355,0.043,0.668,0.098,0.938,0.164c0.448,0.113,0.78,0.275,0.995,0.486c0.215,0.21,0.322,0.492,0.322,0.843
		c0,0.34-0.094,0.639-0.281,0.896s-0.443,0.476-0.767,0.651c-0.324,0.175-0.703,0.309-1.137,0.398s-0.898,0.135-1.395,0.135
		c-0.539,0-1.013-0.035-1.421-0.106c-0.408-0.072-0.75-0.151-1.025-0.24c-0.275-0.088-0.485-0.17-0.63-0.243
		c-0.145-0.074-0.222-0.117-0.234-0.125c-0.07-0.039-0.106-0.102-0.106-0.188c0-0.066,0.023-0.119,0.07-0.16
		c0.047-0.041,0.098-0.063,0.152-0.063c0.043,0,0.082,0.012,0.117,0.035c0.004,0,0.071,0.034,0.202,0.104
		c0.131,0.068,0.328,0.143,0.587,0.225c0.259,0.082,0.581,0.156,0.964,0.223c0.383,0.067,0.828,0.101,1.336,0.101
		c0.504,0,0.949-0.041,1.336-0.123c0.387-0.082,0.712-0.196,0.976-0.343c0.264-0.147,0.463-0.318,0.598-0.516
		c0.135-0.198,0.202-0.412,0.202-0.643c0-0.137-0.024-0.254-0.073-0.354c-0.049-0.1-0.117-0.184-0.203-0.256
		c-0.086-0.072-0.188-0.135-0.307-0.186c-0.119-0.051-0.249-0.093-0.39-0.128c-0.148-0.039-0.308-0.072-0.478-0.1
		c-0.17-0.028-0.345-0.051-0.524-0.07c-0.179-0.019-0.36-0.037-0.542-0.053s-0.36-0.031-0.536-0.047l-0.903-0.076
		c-0.711-0.059-1.331-0.149-1.86-0.272c-0.529-0.123-0.97-0.281-1.321-0.475c-0.351-0.194-0.615-0.425-0.791-0.694
		c-0.176-0.269-0.264-0.584-0.264-0.944c0-0.367,0.083-0.704,0.249-1.011s0.393-0.583,0.68-0.829
		c0.287-0.246,0.623-0.46,1.008-0.642c0.385-0.182,0.796-0.332,1.233-0.453c0.437-0.121,0.891-0.212,1.359-0.272
		c0.468-0.06,0.93-0.091,1.383-0.091c0.566,0,1.06,0.034,1.479,0.103c0.419,0.069,0.779,0.156,1.078,0.264
		c0.299,0.108,0.544,0.229,0.735,0.366c0.191,0.137,0.346,0.271,0.463,0.404c0.277,0.324,0.416,0.693,0.416,1.107
		C10.765-19.704,10.751-19.573,10.724-19.448z"/>
	<path fill="#0392FE" stroke="#0392FE" stroke-width="0.05" stroke-miterlimit="10" d="M14.598-14.931
		c-0.016,0.031-0.048,0.098-0.097,0.197c-0.049,0.099-0.111,0.213-0.188,0.342c-0.077,0.129-0.165,0.264-0.267,0.404
		c-0.102,0.14-0.215,0.27-0.34,0.387s-0.26,0.215-0.404,0.291c-0.144,0.076-0.297,0.113-0.457,0.113
		c-0.227,0-0.417-0.072-0.571-0.218c-0.154-0.146-0.267-0.325-0.337-0.545c-0.133,0.224-0.291,0.399-0.475,0.531
		c-0.184,0.131-0.367,0.194-0.551,0.194c-0.145,0-0.275-0.024-0.393-0.078c-0.118-0.053-0.217-0.127-0.299-0.223
		s-0.146-0.209-0.19-0.338c-0.044-0.129-0.067-0.27-0.067-0.422c0-0.305,0.052-0.572,0.155-0.805
		c0.103-0.233,0.235-0.428,0.396-0.584c0.161-0.156,0.337-0.273,0.53-0.351c0.193-0.078,0.38-0.117,0.56-0.117
		c0.121,0,0.232,0.017,0.334,0.05c0.102,0.033,0.188,0.069,0.261,0.108c0.072,0.039,0.128,0.076,0.167,0.109
		c0.039,0.033,0.061,0.051,0.064,0.055c0.043,0.051,0.064,0.104,0.064,0.158c0,0.059-0.021,0.111-0.064,0.156
		c-0.043,0.045-0.094,0.066-0.152,0.066c-0.063,0-0.115-0.021-0.158-0.064c-0.008-0.008-0.025-0.021-0.053-0.043
		c-0.028-0.022-0.064-0.045-0.111-0.068s-0.103-0.043-0.167-0.061s-0.138-0.027-0.22-0.027c-0.121,0-0.25,0.027-0.387,0.082
		c-0.137,0.055-0.262,0.141-0.375,0.256c-0.113,0.115-0.208,0.26-0.284,0.434s-0.113,0.38-0.113,0.619
		c0,0.074,0.008,0.15,0.023,0.228s0.043,0.146,0.082,0.207s0.092,0.112,0.158,0.151s0.148,0.06,0.246,0.06
		c0.07,0,0.151-0.022,0.243-0.07c0.092-0.047,0.18-0.118,0.264-0.217c0.084-0.099,0.16-0.222,0.229-0.369
		c0.069-0.148,0.116-0.324,0.144-0.527c0.008-0.055,0.033-0.1,0.076-0.137c0.043-0.037,0.094-0.057,0.152-0.057
		c0.055,0,0.103,0.021,0.144,0.064s0.063,0.092,0.067,0.146c0.004,0.074,0.012,0.18,0.023,0.314c0.011,0.133,0.038,0.268,0.079,0.4
		s0.103,0.248,0.185,0.347c0.082,0.098,0.195,0.146,0.34,0.146c0.094,0,0.187-0.025,0.278-0.076s0.182-0.117,0.27-0.201
		s0.172-0.18,0.252-0.286c0.08-0.107,0.153-0.218,0.22-0.327c0.067-0.109,0.125-0.215,0.176-0.316s0.094-0.189,0.129-0.264
		c0.02-0.043,0.048-0.076,0.085-0.1s0.077-0.035,0.12-0.035c0.066,0,0.12,0.025,0.161,0.074s0.062,0.1,0.062,0.154
		C14.616-14.985,14.61-14.958,14.598-14.931z"/>
	<path fill="#0392FE" stroke="#0392FE" stroke-width="0.05" stroke-miterlimit="10" d="M15.546-13.823
		c0.063-0.129,0.135-0.27,0.217-0.424s0.17-0.311,0.264-0.469c0.094-0.158,0.192-0.316,0.296-0.473
		c0.104-0.157,0.212-0.305,0.325-0.445c0.113-0.137,0.228-0.234,0.343-0.295c0.115-0.061,0.224-0.091,0.325-0.091
		c0.203,0,0.354,0.074,0.451,0.222s0.146,0.332,0.146,0.551c0,0.051-0.003,0.113-0.009,0.186c-0.006,0.073-0.012,0.148-0.018,0.23
		c-0.006,0.082-0.012,0.166-0.018,0.25c-0.006,0.084-0.009,0.162-0.009,0.236c0,0.094,0.005,0.184,0.015,0.27
		c0.01,0.086,0.028,0.162,0.056,0.228c0.028,0.065,0.066,0.114,0.117,0.151c0.051,0.037,0.117,0.055,0.199,0.055
		c0.148,0,0.293-0.057,0.434-0.172c0.141-0.114,0.271-0.252,0.39-0.409c0.119-0.158,0.223-0.32,0.311-0.484
		c0.088-0.164,0.153-0.297,0.196-0.398c0.02-0.043,0.048-0.076,0.085-0.1c0.037-0.024,0.077-0.035,0.12-0.035
		c0.066,0,0.12,0.025,0.161,0.074c0.041,0.049,0.062,0.1,0.062,0.154c0,0.027-0.006,0.055-0.018,0.082
		c-0.016,0.031-0.047,0.096-0.094,0.193s-0.108,0.211-0.185,0.337c-0.077,0.127-0.165,0.263-0.267,0.404
		c-0.102,0.143-0.214,0.271-0.337,0.389c-0.123,0.119-0.256,0.215-0.398,0.293s-0.292,0.117-0.448,0.117
		c-0.176,0-0.318-0.033-0.428-0.102s-0.195-0.158-0.258-0.27c-0.063-0.112-0.104-0.234-0.126-0.369
		c-0.022-0.135-0.032-0.271-0.032-0.408c0-0.059,0.003-0.125,0.009-0.199c0.006-0.074,0.014-0.152,0.023-0.234
		c0.009-0.082,0.018-0.164,0.023-0.246c0.005-0.082,0.009-0.16,0.009-0.234c0-0.125-0.02-0.209-0.059-0.254
		s-0.072-0.069-0.103-0.069c-0.063,0-0.134,0.037-0.214,0.109c-0.08,0.072-0.164,0.166-0.252,0.283
		c-0.088,0.117-0.178,0.25-0.27,0.396c-0.092,0.146-0.178,0.291-0.258,0.437c-0.08,0.145-0.154,0.283-0.223,0.414
		c-0.069,0.131-0.122,0.237-0.161,0.323c-0.078,0.164-0.156,0.275-0.234,0.332c-0.078,0.058-0.158,0.084-0.24,0.084
		c-0.113,0-0.204-0.032-0.272-0.102c-0.068-0.069-0.103-0.165-0.103-0.29c0-0.027,0.004-0.08,0.012-0.16s0.018-0.176,0.029-0.287
		c0.011-0.111,0.023-0.232,0.035-0.361c0.012-0.128,0.023-0.255,0.035-0.383c0.012-0.127,0.021-0.246,0.029-0.355
		c0.008-0.109,0.012-0.201,0.012-0.275c0-0.098-0.004-0.191-0.012-0.281c-0.008-0.09-0.023-0.145-0.047-0.164
		c-0.035,0.012-0.098,0.086-0.188,0.221c-0.09,0.135-0.204,0.369-0.344,0.709c-0.02,0.043-0.049,0.076-0.088,0.1
		c-0.039,0.024-0.08,0.035-0.123,0.035c-0.066,0-0.119-0.021-0.158-0.066c-0.039-0.045-0.059-0.098-0.059-0.156
		c0-0.027,0.006-0.057,0.018-0.088c0.176-0.418,0.341-0.725,0.495-0.922c0.154-0.197,0.308-0.296,0.46-0.296
		c0.09,0,0.166,0.022,0.229,0.067s0.112,0.104,0.149,0.179c0.037,0.075,0.064,0.156,0.082,0.246c0.018,0.09,0.026,0.182,0.026,0.275
		c0,0.07-0.005,0.18-0.015,0.328c-0.01,0.148-0.022,0.308-0.038,0.478s-0.03,0.338-0.044,0.506S15.558-13.937,15.546-13.823z"/>
	<path fill="#0392FE" stroke="#0392FE" stroke-width="0.05" stroke-miterlimit="10" d="M21.978-15.001
		c0.191,0.902,0.469,1.354,0.832,1.354c0.141,0,0.275-0.051,0.404-0.153c0.129-0.103,0.249-0.229,0.36-0.381
		c0.111-0.151,0.21-0.311,0.296-0.479c0.086-0.168,0.156-0.314,0.211-0.439c0.039-0.094,0.107-0.141,0.205-0.141
		c0.063,0,0.115,0.023,0.158,0.07s0.064,0.098,0.064,0.152c0,0.031-0.006,0.059-0.018,0.082c-0.027,0.066-0.067,0.156-0.12,0.268
		c-0.053,0.112-0.117,0.23-0.193,0.357c-0.076,0.127-0.161,0.256-0.255,0.389c-0.094,0.133-0.196,0.252-0.309,0.357
		c-0.113,0.104-0.233,0.192-0.36,0.262c-0.127,0.068-0.261,0.102-0.401,0.102c-0.262,0-0.486-0.09-0.674-0.271
		s-0.35-0.482-0.486-0.9c-0.188,0.397-0.377,0.688-0.568,0.867s-0.398,0.271-0.621,0.271c-0.117,0-0.23-0.019-0.34-0.056
		s-0.205-0.101-0.287-0.187s-0.148-0.194-0.199-0.329c-0.051-0.136-0.078-0.302-0.078-0.497c0-0.27,0.047-0.518,0.141-0.744
		c0.094-0.226,0.215-0.42,0.363-0.582s0.313-0.289,0.495-0.378c0.182-0.09,0.362-0.135,0.542-0.135c0.059,0,0.109,0.021,0.152,0.062
		s0.064,0.093,0.064,0.155c0,0.055-0.018,0.104-0.053,0.146c-0.035,0.042-0.082,0.068-0.141,0.076
		c-0.117,0.016-0.242,0.053-0.375,0.111c-0.133,0.058-0.255,0.145-0.366,0.256c-0.111,0.111-0.202,0.252-0.274,0.424
		c-0.072,0.172-0.108,0.377-0.108,0.615c0,0.195,0.04,0.348,0.12,0.457s0.196,0.164,0.349,0.164c0.063,0,0.129-0.016,0.199-0.049
		s0.146-0.1,0.226-0.197s0.168-0.236,0.264-0.416c0.096-0.18,0.202-0.416,0.319-0.709c-0.066-0.344-0.127-0.74-0.182-1.189
		c-0.055-0.449-0.082-0.951-0.082-1.506c0-0.242,0.008-0.495,0.023-0.759c0.015-0.264,0.041-0.521,0.076-0.773
		s0.082-0.491,0.141-0.718c0.059-0.227,0.13-0.426,0.214-0.598s0.183-0.308,0.296-0.407c0.113-0.099,0.242-0.149,0.387-0.149
		c0.129,0,0.238,0.035,0.328,0.105c0.09,0.07,0.163,0.168,0.22,0.293s0.099,0.275,0.126,0.451c0.027,0.176,0.041,0.369,0.041,0.58
		c0,0.453-0.039,0.906-0.117,1.359c-0.078,0.453-0.175,0.887-0.29,1.301c-0.115,0.414-0.237,0.797-0.366,1.148
		C22.201-15.558,22.083-15.255,21.978-15.001z M22.664-19.723c0-0.098-0.003-0.203-0.009-0.316c-0.006-0.113-0.02-0.22-0.041-0.319
		s-0.05-0.183-0.085-0.249c-0.035-0.066-0.082-0.1-0.141-0.1c-0.098,0-0.188,0.086-0.272,0.258c-0.084,0.172-0.157,0.397-0.22,0.677
		c-0.063,0.28-0.112,0.596-0.149,0.949s-0.056,0.71-0.056,1.069c0,0.344,0.014,0.688,0.041,1.031
		c0.027,0.343,0.059,0.65,0.094,0.919c0.113-0.3,0.221-0.61,0.322-0.928s0.19-0.644,0.267-0.976s0.137-0.667,0.182-1.005
		S22.664-19.387,22.664-19.723z"/>
	<path fill="#0392FE" stroke="#0392FE" stroke-width="0.05" stroke-miterlimit="10" d="M24.902-13.94
		c0.082,0.112,0.188,0.205,0.316,0.272c0.128,0.067,0.287,0.103,0.475,0.103c0.191,0,0.365-0.045,0.521-0.138
		c0.156-0.092,0.299-0.213,0.428-0.36c0.129-0.148,0.244-0.314,0.346-0.499c0.102-0.184,0.193-0.367,0.275-0.551
		c0.02-0.043,0.047-0.074,0.082-0.096c0.035-0.022,0.074-0.033,0.117-0.033c0.066,0,0.12,0.023,0.161,0.07s0.062,0.098,0.062,0.152
		c0,0.02-0.002,0.037-0.006,0.051c-0.004,0.014-0.01,0.027-0.018,0.043c-0.27,0.594-0.563,1.041-0.882,1.342
		c-0.319,0.302-0.679,0.455-1.081,0.463c-0.258,0-0.48-0.049-0.668-0.147c-0.188-0.1-0.342-0.229-0.463-0.387
		c-0.121-0.158-0.211-0.339-0.27-0.537c-0.059-0.199-0.088-0.398-0.088-0.599c0-0.2,0.024-0.383,0.073-0.551
		c0.049-0.168,0.119-0.314,0.211-0.439c0.092-0.125,0.201-0.222,0.328-0.292c0.127-0.07,0.267-0.105,0.419-0.105
		c0.09,0,0.179,0.019,0.267,0.056c0.088,0.037,0.167,0.09,0.237,0.159c0.07,0.068,0.127,0.15,0.17,0.248s0.064,0.209,0.064,0.334
		c0,0.16-0.027,0.311-0.082,0.451c-0.055,0.14-0.13,0.271-0.226,0.393c-0.096,0.122-0.21,0.232-0.343,0.334
		C25.194-14.101,25.055-14.015,24.902-13.94z M24.727-14.321c0.121-0.051,0.231-0.115,0.331-0.192
		c0.1-0.078,0.185-0.164,0.255-0.258c0.07-0.094,0.125-0.191,0.164-0.295s0.059-0.209,0.059-0.314c0-0.117-0.029-0.205-0.088-0.266
		c-0.059-0.061-0.127-0.092-0.205-0.092c-0.105,0-0.195,0.029-0.27,0.088c-0.075,0.059-0.135,0.135-0.182,0.229
		c-0.047,0.094-0.081,0.199-0.103,0.314c-0.022,0.115-0.032,0.229-0.032,0.342c0,0.07,0.007,0.145,0.021,0.223
		C24.691-14.465,24.707-14.392,24.727-14.321z"/>
	<path fill="#0392FE" stroke="#0392FE" stroke-width="0.05" stroke-miterlimit="10" d="M28.078-13.94
		c0.082,0.112,0.188,0.205,0.316,0.272s0.287,0.103,0.475,0.103c0.191,0,0.365-0.045,0.521-0.138
		c0.156-0.092,0.299-0.213,0.428-0.36c0.129-0.148,0.244-0.314,0.346-0.499s0.193-0.367,0.275-0.551
		c0.02-0.043,0.047-0.074,0.082-0.096s0.075-0.032,0.118-0.032c0.066,0,0.12,0.023,0.161,0.07c0.041,0.047,0.062,0.098,0.062,0.152
		c0,0.02-0.002,0.037-0.006,0.051c-0.004,0.014-0.01,0.027-0.018,0.043c-0.27,0.594-0.563,1.041-0.882,1.342
		s-0.679,0.455-1.081,0.463c-0.258,0-0.48-0.049-0.668-0.148c-0.188-0.098-0.342-0.229-0.463-0.387s-0.211-0.338-0.27-0.537
		s-0.088-0.397-0.088-0.598c0-0.2,0.024-0.383,0.073-0.551c0.049-0.168,0.119-0.314,0.211-0.439
		c0.092-0.125,0.201-0.222,0.328-0.292c0.127-0.07,0.267-0.105,0.419-0.105c0.09,0,0.179,0.019,0.267,0.056
		c0.088,0.037,0.167,0.09,0.237,0.159c0.07,0.068,0.127,0.15,0.17,0.248c0.043,0.098,0.064,0.209,0.064,0.334
		c0,0.16-0.027,0.311-0.082,0.451c-0.055,0.14-0.13,0.271-0.226,0.393c-0.096,0.122-0.21,0.232-0.343,0.334
		C28.371-14.101,28.23-14.015,28.078-13.94z M27.902-14.321c0.121-0.051,0.231-0.115,0.331-0.192c0.1-0.078,0.185-0.164,0.255-0.258
		c0.07-0.094,0.125-0.191,0.164-0.295s0.059-0.209,0.059-0.314c0-0.117-0.029-0.205-0.088-0.266s-0.127-0.092-0.205-0.092
		c-0.105,0-0.195,0.029-0.27,0.088c-0.075,0.059-0.135,0.135-0.182,0.229c-0.047,0.094-0.081,0.199-0.103,0.314
		c-0.022,0.115-0.032,0.229-0.032,0.342c0,0.07,0.007,0.145,0.021,0.223S27.883-14.392,27.902-14.321z"/>
	<path fill="#0392FE" stroke="#0392FE" stroke-width="0.05" stroke-miterlimit="10" d="M33.508-14.931
		c0,0.359-0.064,0.666-0.193,0.92s-0.287,0.447-0.475,0.58h0.023c0.23,0,0.44-0.051,0.63-0.154s0.36-0.236,0.513-0.398
		c0.153-0.162,0.289-0.344,0.41-0.542c0.121-0.199,0.229-0.393,0.322-0.58c0.021-0.043,0.048-0.076,0.085-0.1
		c0.037-0.024,0.077-0.035,0.12-0.035c0.066,0,0.119,0.023,0.158,0.07s0.059,0.098,0.059,0.152c0,0.031-0.006,0.061-0.018,0.088
		c-0.102,0.227-0.223,0.455-0.363,0.684c-0.14,0.229-0.305,0.434-0.492,0.617s-0.398,0.334-0.633,0.449
		c-0.235,0.115-0.494,0.172-0.779,0.172c-0.207,0-0.408-0.031-0.604-0.096c-0.196-0.065-0.367-0.166-0.515-0.303
		c-0.055-0.043-0.102-0.088-0.141-0.137c-0.039-0.049-0.07-0.096-0.094-0.139c-0.008-0.008-0.012-0.016-0.012-0.023
		c-0.023-0.035-0.035-0.072-0.035-0.111c0-0.051,0.018-0.098,0.053-0.141c0.004-0.008,0.008-0.012,0.012-0.014
		s0.008-0.006,0.012-0.01c0.039-0.035,0.082-0.056,0.129-0.06h0.018c0.02,0,0.033,0.002,0.041,0.006
		c0.004,0,0.007,0.003,0.009,0.005s0.005,0.002,0.009,0.002c0.012,0,0.025,0.004,0.041,0.012c0.004,0.004,0.008,0.006,0.012,0.006
		c0.035,0.023,0.064,0.053,0.088,0.088c0.027,0.047,0.059,0.09,0.094,0.129c0.031,0.031,0.068,0.061,0.111,0.086
		s0.09,0.037,0.145,0.037c0.098,0,0.195-0.029,0.293-0.088s0.186-0.143,0.264-0.252s0.142-0.242,0.19-0.398
		c0.048-0.156,0.073-0.33,0.073-0.521c0-0.141-0.015-0.26-0.044-0.359c-0.029-0.099-0.066-0.182-0.111-0.244
		s-0.093-0.109-0.144-0.138s-0.1-0.045-0.146-0.045c-0.105,0-0.212,0.055-0.319,0.164c-0.107,0.109-0.214,0.248-0.319,0.416
		s-0.21,0.354-0.313,0.557c-0.103,0.203-0.208,0.4-0.313,0.592c-0.008,0.633-0.019,1.236-0.032,1.812
		c-0.013,0.575-0.037,1.106-0.07,1.601c-0.033,0.492-0.079,0.938-0.138,1.336C31.06-8.842,30.98-8.5,30.879-8.217
		c-0.101,0.282-0.227,0.5-0.375,0.651c-0.148,0.152-0.33,0.229-0.545,0.229c-0.066,0-0.143-0.015-0.229-0.041
		s-0.166-0.082-0.24-0.166c-0.074-0.084-0.137-0.205-0.188-0.36c-0.051-0.156-0.076-0.365-0.076-0.627
		c0-0.332,0.041-0.718,0.123-1.154c0.082-0.438,0.198-0.9,0.349-1.391c0.151-0.492,0.329-0.994,0.536-1.511s0.436-1.019,0.686-1.506
		c0-0.138,0.001-0.271,0.003-0.404c0.002-0.133,0.003-0.262,0.003-0.387c-0.051,0.059-0.111,0.088-0.182,0.088
		c-0.066,0-0.119-0.023-0.158-0.07c-0.039-0.047-0.059-0.098-0.059-0.152c0-0.027,0.006-0.057,0.018-0.088
		c0.094-0.215,0.166-0.418,0.217-0.611c0.051-0.193,0.089-0.364,0.114-0.51s0.04-0.263,0.044-0.349
		c0.004-0.086,0.006-0.131,0.006-0.135c0-0.059,0.021-0.109,0.064-0.152s0.096-0.064,0.158-0.064c0.059,0,0.109,0.021,0.152,0.062
		c0.043,0.041,0.064,0.093,0.064,0.155v1.798c0.09-0.152,0.18-0.303,0.27-0.451c0.09-0.148,0.185-0.281,0.284-0.398
		c0.099-0.117,0.207-0.211,0.322-0.284c0.115-0.072,0.243-0.108,0.384-0.108c0.133,0,0.254,0.031,0.363,0.094
		c0.109,0.063,0.203,0.148,0.281,0.257c0.078,0.109,0.138,0.24,0.179,0.391C33.488-15.259,33.508-15.103,33.508-14.931z
		 M30.906-13.05c-0.191,0.43-0.364,0.861-0.519,1.295c-0.155,0.434-0.285,0.852-0.393,1.254s-0.19,0.779-0.249,1.131
		s-0.088,0.66-0.088,0.926c0,0.066,0.004,0.14,0.012,0.217c0.008,0.078,0.023,0.15,0.047,0.218c0.024,0.067,0.057,0.123,0.1,0.168
		s0.1,0.065,0.17,0.065c0.129,0,0.24-0.08,0.334-0.242c0.094-0.161,0.173-0.381,0.237-0.655s0.118-0.593,0.161-0.949
		s0.077-0.731,0.103-1.123c0.026-0.391,0.044-0.782,0.056-1.18C30.889-12.323,30.898-12.698,30.906-13.05z"/>
	<path fill="#0392FE" stroke="#0392FE" stroke-width="0.05" stroke-miterlimit="10" d="M47.781-19.448
		c-0.012,0.055-0.037,0.098-0.076,0.129c-0.039,0.031-0.082,0.047-0.129,0.047c-0.07,0-0.127-0.022-0.17-0.067
		s-0.064-0.097-0.064-0.155c0-0.058,0.006-0.116,0.018-0.173c0.014-0.057,0.02-0.112,0.02-0.167c0-0.285-0.088-0.541-0.264-0.768
		c-0.178-0.227-0.426-0.417-0.748-0.571c-0.322-0.154-0.715-0.272-1.176-0.354s-0.975-0.124-1.541-0.124
		c-0.434,0-0.871,0.028-1.311,0.085s-0.861,0.139-1.266,0.246s-0.781,0.242-1.135,0.404c-0.352,0.162-0.656,0.35-0.916,0.563
		c-0.26,0.213-0.465,0.449-0.611,0.709c-0.148,0.26-0.223,0.544-0.223,0.852c0,0.238,0.053,0.448,0.154,0.63
		c0.104,0.182,0.246,0.34,0.426,0.475c0.18,0.135,0.393,0.25,0.635,0.346c0.244,0.096,0.51,0.176,0.795,0.24
		s0.582,0.117,0.891,0.158s0.619,0.075,0.932,0.103l0.902,0.076c0.449,0.039,0.852,0.08,1.207,0.123
		c0.355,0.043,0.668,0.098,0.938,0.164c0.449,0.113,0.781,0.275,0.996,0.486c0.215,0.21,0.322,0.492,0.322,0.843
		c0,0.34-0.094,0.639-0.281,0.896c-0.186,0.257-0.441,0.476-0.768,0.649c-0.324,0.176-0.703,0.31-1.137,0.398
		c-0.434,0.09-0.898,0.135-1.395,0.135c-0.539,0-1.014-0.035-1.422-0.106c-0.408-0.072-0.75-0.152-1.025-0.24
		c-0.273-0.088-0.484-0.17-0.629-0.244c-0.145-0.073-0.223-0.114-0.234-0.122c-0.07-0.039-0.105-0.103-0.105-0.188
		c0-0.066,0.023-0.119,0.07-0.16s0.098-0.063,0.152-0.063c0.043,0,0.082,0.013,0.117,0.035c0.004,0,0.07,0.035,0.201,0.104
		s0.328,0.144,0.588,0.226s0.58,0.156,0.963,0.223c0.385,0.067,0.828,0.101,1.336,0.101c0.506,0,0.949-0.041,1.336-0.123
		c0.389-0.082,0.713-0.194,0.977-0.342s0.463-0.318,0.598-0.516c0.137-0.198,0.203-0.412,0.203-0.643
		c0-0.137-0.023-0.254-0.074-0.354c-0.049-0.1-0.115-0.186-0.201-0.258c-0.086-0.072-0.188-0.135-0.309-0.186
		c-0.119-0.051-0.248-0.093-0.389-0.128c-0.148-0.039-0.309-0.072-0.479-0.1c-0.17-0.028-0.346-0.051-0.523-0.07
		c-0.18-0.019-0.361-0.037-0.543-0.053s-0.359-0.031-0.535-0.047l-0.904-0.075c-0.711-0.059-1.33-0.149-1.859-0.272
		s-0.971-0.281-1.32-0.475c-0.352-0.194-0.615-0.425-0.791-0.694s-0.264-0.584-0.264-0.943c0-0.367,0.082-0.704,0.248-1.011
		s0.393-0.583,0.68-0.829s0.623-0.46,1.008-0.642c0.385-0.182,0.797-0.333,1.234-0.454c0.436-0.121,0.891-0.212,1.357-0.272
		c0.469-0.06,0.932-0.091,1.383-0.091c0.566,0,1.061,0.034,1.48,0.103c0.418,0.069,0.779,0.156,1.078,0.264s0.543,0.229,0.734,0.366
		c0.191,0.137,0.346,0.271,0.463,0.404c0.277,0.324,0.416,0.693,0.416,1.107C47.822-19.704,47.809-19.573,47.781-19.448z"/>
	<path fill="#0392FE" stroke="#0392FE" stroke-width="0.05" stroke-miterlimit="10" d="M47.732-13.794
		c0.063-0.133,0.135-0.275,0.217-0.43c0.082-0.155,0.17-0.313,0.264-0.475c0.094-0.162,0.193-0.324,0.299-0.484
		c0.107-0.16,0.215-0.311,0.328-0.451c0.113-0.137,0.229-0.234,0.344-0.295s0.225-0.091,0.324-0.091
		c0.102,0,0.191,0.021,0.268,0.062s0.139,0.096,0.188,0.166c0.049,0.07,0.086,0.152,0.111,0.246s0.037,0.195,0.037,0.305
		c0,0.09-0.008,0.211-0.025,0.361s-0.025,0.307-0.025,0.471c0,0.094,0.004,0.188,0.016,0.279c0.01,0.091,0.025,0.174,0.053,0.246
		c0.025,0.072,0.063,0.131,0.113,0.176s0.117,0.066,0.199,0.066c0.094,0,0.188-0.025,0.281-0.078
		c0.092-0.053,0.186-0.123,0.275-0.211c0.088-0.088,0.176-0.186,0.258-0.293s0.156-0.215,0.223-0.322s0.125-0.211,0.176-0.311
		s0.092-0.184,0.123-0.25c0.039-0.09,0.107-0.135,0.205-0.135c0.066,0,0.119,0.023,0.158,0.07s0.059,0.098,0.059,0.152
		c0,0.031-0.006,0.061-0.018,0.088c-0.016,0.031-0.047,0.096-0.092,0.193c-0.045,0.097-0.105,0.211-0.182,0.339
		c-0.076,0.129-0.164,0.265-0.268,0.404c-0.102,0.141-0.213,0.271-0.336,0.391c-0.123,0.121-0.256,0.218-0.398,0.293
		c-0.143,0.076-0.291,0.113-0.447,0.113c-0.182,0-0.324-0.037-0.436-0.113c-0.109-0.075-0.193-0.172-0.256-0.289
		c-0.061-0.118-0.102-0.248-0.123-0.394c-0.02-0.145-0.031-0.284-0.031-0.422c0-0.07,0.004-0.145,0.01-0.225
		c0.006-0.08,0.012-0.16,0.02-0.238s0.016-0.15,0.021-0.219c0.006-0.069,0.01-0.127,0.01-0.174c0-0.121-0.018-0.203-0.051-0.246
		s-0.072-0.063-0.115-0.063c-0.064,0-0.135,0.037-0.215,0.109c-0.08,0.072-0.164,0.166-0.252,0.283
		c-0.088,0.117-0.176,0.25-0.264,0.396s-0.174,0.291-0.256,0.437c-0.082,0.145-0.154,0.283-0.223,0.414
		c-0.066,0.131-0.121,0.237-0.164,0.323c-0.082,0.164-0.164,0.275-0.248,0.332c-0.084,0.058-0.16,0.084-0.227,0.084
		c-0.121,0-0.215-0.047-0.277-0.143c-0.064-0.097-0.098-0.214-0.098-0.351v-0.367c0-0.738,0.002-1.441,0.004-2.112
		c0.002-0.67,0.012-1.293,0.027-1.869c0.018-0.576,0.049-1.098,0.088-1.564c0.041-0.466,0.104-0.865,0.186-1.195
		c0.082-0.33,0.188-0.585,0.313-0.765c0.127-0.18,0.287-0.27,0.479-0.27c0.164,0,0.303,0.045,0.416,0.135
		c0.113,0.09,0.205,0.212,0.275,0.366s0.121,0.334,0.152,0.539s0.047,0.421,0.047,0.647c0,0.461-0.043,0.913-0.127,1.356
		s-0.195,0.876-0.336,1.298c-0.141,0.422-0.305,0.833-0.492,1.233c-0.188,0.401-0.385,0.79-0.592,1.168c0,0.07,0,0.154,0,0.252
		c0,0.098,0,0.195,0,0.293c0,0.098,0,0.189,0,0.275s0,0.153,0,0.205L47.732-13.794z M47.732-15.956
		c0.164-0.359,0.313-0.709,0.447-1.051c0.135-0.342,0.25-0.683,0.346-1.022c0.098-0.339,0.172-0.685,0.227-1.034
		s0.082-0.714,0.082-1.093c0-0.063-0.002-0.162-0.008-0.299c-0.008-0.137-0.023-0.275-0.055-0.416
		c-0.029-0.141-0.072-0.264-0.135-0.369c-0.061-0.105-0.145-0.158-0.254-0.158c-0.086,0-0.16,0.058-0.223,0.173
		c-0.064,0.115-0.117,0.271-0.164,0.469c-0.047,0.198-0.086,0.427-0.117,0.688s-0.059,0.539-0.076,0.832
		c-0.02,0.293-0.035,0.594-0.045,0.902s-0.016,0.608-0.021,0.899c-0.004,0.291-0.006,0.563-0.006,0.817
		C47.73-16.364,47.732-16.143,47.732-15.956z"/>
	<path fill="#0392FE" stroke="#0392FE" stroke-width="0.05" stroke-miterlimit="10" d="M56.455-14.931
		c-0.016,0.031-0.047,0.098-0.098,0.197c-0.049,0.099-0.109,0.213-0.188,0.342c-0.076,0.129-0.164,0.264-0.268,0.404
		c-0.102,0.14-0.215,0.27-0.34,0.387s-0.26,0.215-0.402,0.291c-0.145,0.076-0.299,0.113-0.457,0.113
		c-0.229,0-0.418-0.072-0.572-0.218s-0.266-0.325-0.336-0.545c-0.133,0.224-0.291,0.399-0.477,0.531
		c-0.184,0.131-0.365,0.194-0.551,0.194c-0.145,0-0.273-0.024-0.393-0.078c-0.117-0.053-0.217-0.127-0.299-0.223
		s-0.146-0.209-0.189-0.338c-0.045-0.129-0.068-0.27-0.068-0.422c0-0.305,0.053-0.572,0.156-0.805
		c0.104-0.233,0.234-0.428,0.396-0.584c0.16-0.156,0.336-0.273,0.529-0.351c0.193-0.078,0.379-0.117,0.561-0.117
		c0.121,0,0.23,0.017,0.334,0.05c0.102,0.033,0.188,0.069,0.26,0.108c0.072,0.039,0.129,0.076,0.168,0.109
		c0.039,0.033,0.061,0.051,0.064,0.055c0.043,0.051,0.063,0.104,0.063,0.158c0,0.059-0.02,0.111-0.063,0.156
		c-0.043,0.045-0.096,0.066-0.152,0.066c-0.064,0-0.115-0.021-0.158-0.064c-0.008-0.008-0.025-0.021-0.053-0.043
		c-0.029-0.022-0.064-0.045-0.111-0.068s-0.104-0.043-0.168-0.061c-0.063-0.018-0.137-0.027-0.219-0.027
		c-0.121,0-0.25,0.027-0.387,0.082c-0.139,0.055-0.264,0.141-0.375,0.256c-0.113,0.115-0.209,0.26-0.285,0.434
		s-0.113,0.379-0.113,0.617c0,0.074,0.008,0.15,0.023,0.228c0.014,0.077,0.043,0.146,0.082,0.207s0.092,0.112,0.156,0.151
		c0.066,0.039,0.148,0.06,0.246,0.06c0.07,0,0.152-0.022,0.244-0.07c0.092-0.047,0.18-0.118,0.264-0.217s0.16-0.222,0.229-0.369
		c0.07-0.148,0.117-0.324,0.145-0.527c0.008-0.055,0.033-0.1,0.076-0.137s0.094-0.057,0.152-0.057c0.055,0,0.102,0.021,0.143,0.064
		s0.064,0.092,0.068,0.146c0.004,0.074,0.012,0.18,0.023,0.314c0.01,0.133,0.037,0.268,0.078,0.4s0.104,0.248,0.186,0.346
		c0.082,0.099,0.195,0.146,0.34,0.146c0.094,0,0.188-0.025,0.277-0.076c0.092-0.052,0.182-0.117,0.27-0.201s0.172-0.18,0.252-0.287
		c0.08-0.106,0.154-0.217,0.221-0.326s0.125-0.215,0.176-0.316c0.051-0.101,0.094-0.189,0.129-0.264
		c0.02-0.043,0.049-0.076,0.086-0.1s0.076-0.035,0.119-0.035c0.066,0,0.121,0.025,0.162,0.074s0.061,0.1,0.061,0.154
		C56.473-14.985,56.467-14.958,56.455-14.931z"/>
	<path fill="#0392FE" stroke="#0392FE" stroke-width="0.05" stroke-miterlimit="10" d="M56.693-15.704
		c-0.016,0.105-0.033,0.205-0.059,0.297c-0.023,0.092-0.045,0.172-0.066,0.24s-0.041,0.123-0.057,0.166s-0.025,0.066-0.029,0.07
		c-0.039,0.09-0.105,0.135-0.205,0.135c-0.055,0-0.104-0.02-0.15-0.061s-0.07-0.094-0.07-0.156c0-0.023,0.004-0.041,0.012-0.053
		s0.02-0.035,0.035-0.07c0.016-0.035,0.035-0.094,0.059-0.176s0.053-0.209,0.088-0.381c-0.066,0-0.135-0.002-0.205-0.006
		c-0.07-0.004-0.135-0.018-0.195-0.041s-0.109-0.061-0.148-0.111c-0.039-0.05-0.063-0.121-0.063-0.21c0-0.066,0.02-0.156,0.057-0.27
		c0.037-0.114,0.088-0.225,0.148-0.334c0.063-0.109,0.133-0.204,0.211-0.284c0.078-0.08,0.156-0.12,0.234-0.12
		c0.09,0,0.164,0.033,0.221,0.1c0.057,0.067,0.1,0.147,0.131,0.243c0.031,0.096,0.055,0.196,0.068,0.302
		c0.012,0.106,0.02,0.197,0.02,0.275c0.066,0,0.133-0.001,0.197-0.003s0.125-0.003,0.184-0.003c0.225,0,0.395,0.049,0.512,0.146
		c0.115,0.097,0.176,0.257,0.176,0.48c0,0.09-0.006,0.184-0.02,0.281c-0.012,0.097-0.023,0.199-0.041,0.303
		c-0.016,0.104-0.027,0.205-0.041,0.307c-0.012,0.102-0.018,0.201-0.018,0.299c0,0.141,0.021,0.258,0.059,0.35
		c0.039,0.092,0.09,0.164,0.146,0.219c0.059,0.056,0.121,0.095,0.188,0.115c0.068,0.021,0.129,0.031,0.184,0.031
		c0.168,0,0.326-0.055,0.475-0.164s0.285-0.24,0.41-0.395c0.125-0.155,0.236-0.318,0.336-0.49c0.102-0.172,0.184-0.322,0.25-0.451
		c0.02-0.035,0.047-0.063,0.082-0.082s0.072-0.029,0.111-0.029c0.068,0,0.125,0.023,0.164,0.068s0.059,0.094,0.059,0.148
		c0,0.039-0.008,0.074-0.023,0.105c-0.09,0.16-0.193,0.342-0.313,0.543c-0.119,0.201-0.256,0.39-0.408,0.564
		c-0.15,0.175-0.322,0.323-0.512,0.444c-0.191,0.121-0.398,0.183-0.625,0.183c-0.141,0-0.273-0.025-0.398-0.078
		c-0.125-0.054-0.232-0.129-0.324-0.229c-0.092-0.1-0.164-0.223-0.221-0.369c-0.055-0.146-0.082-0.313-0.082-0.496
		c0-0.194,0.021-0.388,0.061-0.582c0.039-0.193,0.059-0.379,0.059-0.555c0-0.074-0.018-0.129-0.051-0.166s-0.105-0.057-0.219-0.057
		c-0.057,0-0.115,0-0.18,0S56.768-15.708,56.693-15.704z M56.301-16.137c0-0.027,0-0.063-0.002-0.108
		c-0.002-0.045-0.006-0.089-0.012-0.132c-0.008-0.043-0.016-0.08-0.023-0.111c-0.01-0.031-0.021-0.047-0.033-0.047
		c-0.01,0-0.025,0.015-0.043,0.044c-0.018,0.029-0.037,0.064-0.057,0.105s-0.037,0.085-0.051,0.132
		c-0.016,0.047-0.027,0.086-0.035,0.117H56.301z"/>
	<path fill="#0392FE" stroke="#0392FE" stroke-width="0.05" stroke-miterlimit="10" d="M61.061-13.817
		c0.059-0.117,0.133-0.262,0.227-0.436c0.092-0.174,0.188-0.35,0.287-0.525c0.098-0.175,0.195-0.342,0.293-0.498
		c0.096-0.156,0.176-0.275,0.242-0.357c0.113-0.137,0.23-0.234,0.352-0.293c0.121-0.058,0.232-0.087,0.334-0.087
		s0.188,0.021,0.262,0.064c0.072,0.043,0.131,0.102,0.178,0.174c0.049,0.072,0.082,0.156,0.105,0.252s0.035,0.197,0.035,0.307
		c0,0.063-0.002,0.145-0.008,0.246c-0.008,0.101-0.014,0.211-0.02,0.328c-0.006,0.117-0.012,0.239-0.018,0.364
		s-0.012,0.241-0.016,0.352c0.061-0.117,0.125-0.246,0.199-0.389c0.074-0.144,0.15-0.286,0.227-0.426
		c0.076-0.141,0.148-0.271,0.221-0.395c0.07-0.124,0.135-0.225,0.191-0.303c0.17-0.231,0.326-0.385,0.473-0.463
		s0.275-0.117,0.391-0.117c0.133,0,0.242,0.024,0.328,0.074c0.086,0.049,0.152,0.111,0.201,0.188s0.084,0.16,0.104,0.254
		s0.029,0.184,0.029,0.27c0,0.133-0.01,0.271-0.029,0.416s-0.029,0.315-0.029,0.514c0,0.082,0.004,0.164,0.012,0.246
		s0.023,0.154,0.051,0.217c0.025,0.063,0.064,0.113,0.119,0.152s0.129,0.059,0.223,0.059c0.104,0,0.201-0.025,0.301-0.078
		c0.098-0.053,0.189-0.123,0.279-0.209s0.176-0.184,0.256-0.293s0.152-0.219,0.221-0.328c0.066-0.109,0.125-0.213,0.176-0.313
		c0.051-0.1,0.092-0.186,0.123-0.256c0.02-0.043,0.047-0.076,0.082-0.1s0.074-0.035,0.117-0.035c0.064,0,0.119,0.025,0.16,0.074
		s0.063,0.1,0.063,0.154c0,0.027-0.006,0.055-0.018,0.082c-0.018,0.031-0.049,0.098-0.096,0.197s-0.107,0.213-0.188,0.339
		c-0.078,0.127-0.168,0.261-0.271,0.4c-0.104,0.141-0.219,0.271-0.344,0.391c-0.125,0.121-0.26,0.218-0.404,0.293
		c-0.143,0.076-0.297,0.113-0.457,0.113c-0.172,0-0.311-0.029-0.418-0.09s-0.193-0.143-0.258-0.244
		c-0.064-0.101-0.107-0.219-0.133-0.352c-0.023-0.133-0.035-0.27-0.035-0.414c0-0.191,0.01-0.367,0.029-0.529
		c0.018-0.162,0.027-0.289,0.027-0.379c0-0.098-0.008-0.172-0.025-0.223c-0.018-0.051-0.039-0.086-0.064-0.107
		c-0.023-0.021-0.049-0.033-0.072-0.035s-0.041-0.004-0.053-0.004c-0.094,0-0.191,0.053-0.297,0.156
		c-0.104,0.103-0.209,0.24-0.318,0.412s-0.223,0.367-0.338,0.586c-0.113,0.219-0.23,0.441-0.348,0.668
		c-0.066,0.125-0.123,0.229-0.168,0.311s-0.088,0.146-0.129,0.193s-0.08,0.08-0.119,0.1c-0.039,0.021-0.082,0.029-0.129,0.029
		c-0.102,0-0.18-0.035-0.232-0.105c-0.051-0.069-0.078-0.161-0.078-0.274c0-0.06,0.002-0.137,0.006-0.233
		c0.004-0.098,0.008-0.205,0.012-0.322s0.01-0.238,0.018-0.363c0.01-0.125,0.016-0.244,0.02-0.359
		c0.004-0.115,0.008-0.219,0.012-0.309s0.006-0.158,0.006-0.205c0-0.102-0.018-0.174-0.053-0.219s-0.078-0.07-0.125-0.07
		c-0.043,0-0.092,0.016-0.145,0.047c-0.053,0.031-0.113,0.092-0.186,0.182c-0.055,0.07-0.123,0.174-0.207,0.309
		c-0.084,0.135-0.174,0.283-0.268,0.447s-0.188,0.332-0.277,0.504c-0.092,0.172-0.172,0.325-0.238,0.463
		c-0.082,0.164-0.164,0.276-0.246,0.338s-0.16,0.091-0.238,0.091c-0.113,0-0.197-0.033-0.252-0.103
		c-0.057-0.069-0.082-0.16-0.082-0.272c0-0.013,0.002-0.082,0.008-0.212c0.006-0.129,0.014-0.284,0.021-0.471
		c0.008-0.186,0.018-0.385,0.025-0.596c0.01-0.211,0.02-0.408,0.027-0.592c0.004-0.098,0-0.188-0.014-0.27
		c-0.012-0.082-0.025-0.131-0.047-0.146c-0.031,0.008-0.092,0.08-0.184,0.217c-0.092,0.137-0.207,0.374-0.348,0.714
		c-0.02,0.043-0.049,0.076-0.088,0.1c-0.039,0.024-0.08,0.035-0.123,0.035c-0.066,0-0.119-0.021-0.158-0.066
		s-0.059-0.098-0.059-0.156c0-0.027,0.006-0.057,0.018-0.088c0.176-0.418,0.344-0.725,0.504-0.922
		c0.16-0.197,0.316-0.296,0.469-0.296c0.09,0,0.166,0.021,0.227,0.062s0.107,0.094,0.145,0.158c0.035,0.064,0.061,0.137,0.076,0.219
		c0.014,0.082,0.021,0.162,0.021,0.24c0,0.348-0.008,0.666-0.025,0.955C61.1-14.401,61.08-14.11,61.061-13.817z"/>
	<path fill="#0392FE" stroke="#0392FE" stroke-width="0.05" stroke-miterlimit="10" d="M72.053-14.931
		c-0.016,0.031-0.049,0.098-0.098,0.197s-0.111,0.213-0.188,0.342c-0.078,0.129-0.166,0.264-0.268,0.404
		c-0.102,0.14-0.215,0.27-0.34,0.387s-0.26,0.215-0.404,0.291s-0.297,0.113-0.457,0.113c-0.227,0-0.416-0.072-0.57-0.218
		s-0.268-0.325-0.338-0.545c-0.133,0.224-0.291,0.399-0.475,0.531c-0.184,0.131-0.367,0.194-0.551,0.194
		c-0.145,0-0.275-0.024-0.393-0.078c-0.119-0.053-0.217-0.127-0.299-0.223s-0.146-0.209-0.191-0.338
		c-0.043-0.129-0.066-0.27-0.066-0.422c0-0.305,0.053-0.572,0.154-0.805c0.104-0.233,0.236-0.428,0.396-0.584
		c0.162-0.156,0.338-0.273,0.531-0.351c0.191-0.078,0.379-0.117,0.559-0.117c0.121,0,0.232,0.017,0.334,0.05
		c0.104,0.033,0.189,0.069,0.262,0.108c0.072,0.039,0.127,0.076,0.166,0.109c0.039,0.033,0.063,0.051,0.064,0.055
		c0.043,0.051,0.064,0.104,0.064,0.158c0,0.059-0.021,0.111-0.064,0.156c-0.043,0.045-0.094,0.066-0.152,0.066
		c-0.063,0-0.113-0.021-0.156-0.064c-0.01-0.008-0.025-0.021-0.055-0.043c-0.027-0.022-0.063-0.045-0.109-0.068
		c-0.049-0.023-0.104-0.043-0.168-0.061s-0.139-0.027-0.221-0.027c-0.121,0-0.25,0.027-0.387,0.082s-0.262,0.141-0.375,0.256
		c-0.113,0.115-0.207,0.26-0.283,0.434s-0.115,0.379-0.115,0.617c0,0.074,0.01,0.15,0.023,0.228
		c0.016,0.077,0.043,0.146,0.082,0.207s0.092,0.112,0.158,0.151s0.148,0.06,0.246,0.06c0.07,0,0.15-0.022,0.244-0.07
		c0.092-0.047,0.18-0.118,0.264-0.217s0.16-0.222,0.229-0.369c0.068-0.148,0.115-0.324,0.145-0.527
		c0.008-0.055,0.033-0.1,0.076-0.137s0.094-0.057,0.15-0.057s0.104,0.021,0.145,0.064s0.063,0.092,0.066,0.146
		c0.004,0.074,0.014,0.18,0.023,0.314c0.012,0.133,0.039,0.268,0.08,0.4s0.102,0.248,0.184,0.346
		c0.082,0.099,0.195,0.146,0.34,0.146c0.096,0,0.188-0.025,0.279-0.076c0.09-0.052,0.182-0.117,0.27-0.201s0.172-0.18,0.252-0.287
		c0.08-0.106,0.152-0.217,0.221-0.326c0.066-0.109,0.125-0.215,0.176-0.316c0.051-0.101,0.094-0.189,0.129-0.264
		c0.02-0.043,0.047-0.076,0.084-0.1s0.078-0.035,0.121-0.035c0.066,0,0.119,0.025,0.16,0.074s0.063,0.1,0.063,0.154
		C72.07-14.985,72.064-14.958,72.053-14.931z"/>
</g>
<g enable-background="new    ">
	<path d="M2.278,6.123c0.016,0.8,0.824,1.352,2.424,1.656h0.024c0.92,0.168,1.632,0.424,2.136,0.768
		c0.616,0.4,0.924,0.93,0.924,1.59s-0.31,1.214-0.93,1.662s-1.346,0.672-2.178,0.672c-1.056-0.008-2.088-0.412-3.096-1.212
		c-0.128-0.111-0.14-0.235-0.036-0.372c0.048-0.056,0.108-0.088,0.18-0.096c0.072-0.008,0.136,0.012,0.192,0.06
		c0.904,0.729,1.824,1.089,2.76,1.08c0.736,0,1.352-0.184,1.848-0.552c0.48-0.344,0.72-0.76,0.72-1.248
		c0-0.896-0.876-1.508-2.628-1.836H4.594C2.698,7.943,1.75,7.219,1.75,6.123c0-0.624,0.286-1.144,0.858-1.561
		C3.18,4.147,3.862,3.939,4.654,3.939c0.344,0,0.69,0.058,1.038,0.174C6.04,4.229,6.31,4.341,6.501,4.449
		c0.192,0.107,0.44,0.262,0.744,0.462c0.144,0.096,0.168,0.22,0.072,0.372c-0.088,0.144-0.208,0.168-0.36,0.072
		C6.669,5.171,6.436,5.027,6.256,4.923c-0.18-0.104-0.42-0.206-0.72-0.306c-0.3-0.101-0.594-0.15-0.882-0.15
		c-0.672,0-1.244,0.168-1.716,0.504C2.498,5.299,2.278,5.684,2.278,6.123z"/>
	<path d="M15.658,12.447l-0.108,0.012c-0.136,0-0.228-0.063-0.276-0.192l-0.744-1.979h-3.828l-0.744,1.979
		c-0.048,0.129-0.14,0.192-0.276,0.192l-0.108-0.012c-0.072-0.032-0.126-0.086-0.162-0.162s-0.038-0.15-0.006-0.223l2.916-7.787
		c0.056-0.12,0.156-0.181,0.3-0.181s0.236,0.061,0.276,0.181l2.916,7.787c0.032,0.072,0.032,0.146,0,0.223
		C15.781,12.361,15.729,12.415,15.658,12.447z M12.622,5.187l-1.704,4.513h3.396L12.622,5.187z"/>
	<path d="M23.337,12.303l-5.04-7.008v6.876c0,0.08-0.028,0.148-0.084,0.204s-0.124,0.084-0.204,0.084s-0.148-0.028-0.204-0.084
		c-0.056-0.056-0.084-0.124-0.084-0.204V4.467c-0.041-0.128-0.016-0.224,0.072-0.288c0.088-0.063,0.174-0.09,0.258-0.078
		c0.084,0.013,0.146,0.051,0.186,0.114l5.088,7.056v-6.84c0-0.079,0.028-0.147,0.084-0.204c0.056-0.056,0.124-0.084,0.204-0.084
		s0.15,0.028,0.21,0.084c0.06,0.057,0.09,0.125,0.09,0.204v7.74c0,0.08-0.03,0.148-0.09,0.204c-0.06,0.056-0.134,0.084-0.222,0.084
		c-0.088,0-0.16-0.036-0.216-0.108L23.337,12.303z"/>
	<path d="M28.797,12.459h-1.596c-0.072-0.008-0.134-0.038-0.186-0.09c-0.052-0.052-0.078-0.118-0.078-0.198V4.347
		c0-0.079,0.028-0.147,0.084-0.204c0.056-0.056,0.124-0.084,0.204-0.084h1.572c1.16,0,2.15,0.412,2.97,1.236
		c0.82,0.824,1.23,1.816,1.23,2.976c0,1.16-0.41,2.148-1.23,2.965C30.947,12.051,29.958,12.459,28.797,12.459z M27.525,11.871h1.272
		c1,0,1.852-0.352,2.556-1.056c0.704-0.704,1.056-1.555,1.056-2.551s-0.353-1.846-1.056-2.55c-0.704-0.704-1.556-1.06-2.556-1.067
		h-1.272V11.871z"/>
	<path d="M35.565,12.171V4.347c0-0.079,0.028-0.147,0.084-0.204c0.056-0.056,0.124-0.084,0.204-0.084h4.32
		c0.08,0,0.147,0.028,0.203,0.084c0.057,0.057,0.084,0.126,0.084,0.21s-0.027,0.154-0.084,0.21
		c-0.056,0.057-0.123,0.085-0.203,0.085h-4.021v3.323h3.517c0.079,0,0.147,0.03,0.203,0.09c0.057,0.061,0.084,0.131,0.084,0.21
		c0,0.08-0.027,0.148-0.084,0.204c-0.056,0.057-0.124,0.084-0.203,0.084h-3.517v3.313h4.021c0.08,0,0.147,0.028,0.203,0.084
		c0.057,0.056,0.084,0.126,0.084,0.21s-0.027,0.154-0.084,0.21c-0.056,0.056-0.123,0.084-0.203,0.084H35.83
		c-0.072-0.008-0.134-0.038-0.186-0.09C35.591,12.317,35.565,12.251,35.565,12.171z"/>
	<path d="M42.682,12.171V4.347c0-0.079,0.027-0.147,0.084-0.204c0.055-0.056,0.123-0.084,0.203-0.084h4.32
		c0.08,0,0.148,0.028,0.204,0.084c0.056,0.057,0.084,0.126,0.084,0.21s-0.028,0.154-0.084,0.21
		c-0.056,0.057-0.124,0.085-0.204,0.085h-4.02v3.323h3.516c0.08,0,0.148,0.03,0.204,0.09c0.056,0.061,0.084,0.131,0.084,0.21
		c0,0.08-0.028,0.148-0.084,0.204c-0.056,0.057-0.124,0.084-0.204,0.084H43.27v3.313h4.02c0.08,0,0.148,0.028,0.204,0.084
		s0.084,0.126,0.084,0.21s-0.028,0.154-0.084,0.21s-0.124,0.084-0.204,0.084h-4.344c-0.072-0.008-0.135-0.038-0.186-0.09
		C42.707,12.317,42.682,12.251,42.682,12.171z"/>
	<path d="M49.797,12.171V4.347c0-0.079,0.027-0.147,0.084-0.204c0.056-0.056,0.124-0.084,0.204-0.084h2.376
		c0.656,0,1.218,0.234,1.686,0.702c0.469,0.468,0.702,1.032,0.702,1.692s-0.233,1.224-0.702,1.691
		c-0.468,0.469-1.029,0.702-1.686,0.702l-2.076,0.024v3.3c0,0.08-0.029,0.148-0.09,0.204s-0.131,0.084-0.21,0.084
		c-0.08,0-0.148-0.028-0.204-0.084C49.824,12.319,49.797,12.251,49.797,12.171z M50.385,8.283h2.076
		c0.496-0.008,0.922-0.19,1.278-0.546c0.355-0.356,0.533-0.782,0.533-1.278s-0.178-0.922-0.533-1.278
		c-0.356-0.355-0.782-0.533-1.278-0.533h-2.076V8.283z"/>
	<path d="M60.74,6.123c0.017,0.8,0.824,1.352,2.424,1.656h0.024c0.92,0.168,1.632,0.424,2.136,0.768
		c0.616,0.4,0.924,0.93,0.924,1.59s-0.31,1.214-0.93,1.662s-1.346,0.672-2.178,0.672c-1.056-0.008-2.088-0.412-3.096-1.212
		c-0.129-0.111-0.141-0.235-0.036-0.372c0.048-0.056,0.107-0.088,0.18-0.096s0.136,0.012,0.192,0.06
		c0.903,0.729,1.823,1.089,2.76,1.08c0.736,0,1.352-0.184,1.848-0.552c0.48-0.344,0.721-0.76,0.721-1.248
		c0-0.896-0.876-1.508-2.629-1.836h-0.023c-1.896-0.352-2.844-1.076-2.844-2.172c0-0.624,0.285-1.144,0.857-1.561
		c0.572-0.415,1.254-0.623,2.046-0.623c0.344,0,0.69,0.058,1.038,0.174c0.349,0.116,0.618,0.228,0.811,0.336
		c0.191,0.107,0.439,0.262,0.744,0.462c0.144,0.096,0.168,0.22,0.071,0.372c-0.088,0.144-0.208,0.168-0.359,0.072
		c-0.288-0.185-0.522-0.328-0.702-0.433c-0.181-0.104-0.42-0.206-0.721-0.306c-0.3-0.101-0.594-0.15-0.882-0.15
		c-0.672,0-1.244,0.168-1.716,0.504C60.961,5.299,60.74,5.684,60.74,6.123z"/>
	<path d="M73.305,12.171V8.547h-4.32v3.624c0,0.08-0.03,0.148-0.09,0.204c-0.061,0.056-0.13,0.084-0.21,0.084
		s-0.148-0.028-0.204-0.084s-0.084-0.124-0.084-0.204V4.347c0-0.079,0.028-0.147,0.084-0.204c0.056-0.056,0.124-0.084,0.204-0.084
		s0.149,0.028,0.21,0.084c0.06,0.057,0.09,0.125,0.09,0.204v3.624h4.32V4.347c0-0.079,0.027-0.147,0.084-0.204
		c0.056-0.056,0.124-0.084,0.204-0.084c0.079,0,0.149,0.028,0.21,0.084c0.06,0.057,0.09,0.125,0.09,0.204v7.824
		c0,0.08-0.03,0.148-0.09,0.204c-0.061,0.056-0.131,0.084-0.21,0.084c-0.08,0-0.148-0.028-0.204-0.084
		C73.332,12.319,73.305,12.251,73.305,12.171z"/>
	<path d="M82.628,12.447l-0.107,0.012c-0.137,0-0.229-0.063-0.276-0.192L81.5,10.287h-3.828l-0.743,1.979
		c-0.049,0.129-0.141,0.192-0.276,0.192l-0.108-0.012c-0.071-0.032-0.126-0.086-0.162-0.162c-0.035-0.076-0.038-0.15-0.006-0.223
		l2.916-7.787c0.056-0.12,0.156-0.181,0.3-0.181c0.145,0,0.236,0.061,0.276,0.181l2.916,7.787c0.032,0.072,0.032,0.146,0,0.223
		S82.7,12.415,82.628,12.447z M79.592,5.187l-1.703,4.513h3.396L79.592,5.187z"/>
	<path d="M89.601,12.327c-0.513,0-0.769-0.588-0.769-1.765c0-0.512-0.228-0.936-0.684-1.271c-0.328-0.232-0.664-0.376-1.008-0.432
		c-0.009-0.008-0.017-0.013-0.024-0.013h-2.04v3.324c0,0.08-0.03,0.148-0.09,0.204c-0.061,0.056-0.13,0.084-0.21,0.084
		s-0.148-0.028-0.204-0.084s-0.084-0.124-0.084-0.204V4.347c0-0.071,0.025-0.136,0.078-0.191c0.052-0.057,0.114-0.088,0.186-0.097
		h2.4c0.664,0,1.228,0.234,1.691,0.702s0.696,1.034,0.696,1.698c0,0.472-0.126,0.904-0.378,1.296
		c-0.252,0.393-0.586,0.685-1.002,0.876l0.12,0.061c0.319,0.184,0.588,0.432,0.804,0.743c0.216,0.313,0.324,0.736,0.324,1.272
		s0.076,0.88,0.228,1.032c0.169-0.017,0.276,0.048,0.324,0.191c0.04,0.192-0.023,0.32-0.191,0.385h-0.024l-0.12,0.012H89.601z
		 M88.448,7.719c0.344-0.352,0.516-0.775,0.516-1.271s-0.178-0.92-0.533-1.272c-0.356-0.352-0.782-0.527-1.278-0.527h-2.076v3.623
		H87.2C87.688,8.255,88.104,8.071,88.448,7.719z"/>
	<path d="M98.636,12.171V5.259l-2.688,3.732c-0.056,0.088-0.136,0.132-0.24,0.132h-0.023c-0.112,0-0.196-0.044-0.252-0.132
		l-2.688-3.721v6.9c0,0.08-0.028,0.148-0.084,0.204s-0.124,0.084-0.204,0.084s-0.149-0.028-0.21-0.084
		c-0.06-0.056-0.09-0.124-0.09-0.204V4.395c0-0.096,0.04-0.172,0.12-0.228L92.3,4.143c0.16-0.104,0.296-0.079,0.408,0.072
		l2.988,4.141l2.976-4.141c0.04-0.063,0.103-0.102,0.187-0.114c0.084-0.012,0.157,0.003,0.222,0.042
		c0.088,0.089,0.132,0.173,0.132,0.252v7.776c0,0.08-0.028,0.148-0.084,0.204s-0.124,0.084-0.204,0.084s-0.147-0.028-0.204-0.084
		C98.664,12.319,98.636,12.251,98.636,12.171z"/>
	<path d="M108.009,12.447l-0.107,0.012c-0.137,0-0.229-0.063-0.276-0.192l-0.744-1.979h-3.828l-0.743,1.979
		c-0.049,0.129-0.141,0.192-0.276,0.192l-0.108-0.012c-0.071-0.032-0.126-0.086-0.162-0.162c-0.035-0.076-0.038-0.15-0.006-0.223
		l2.916-7.787c0.056-0.12,0.156-0.181,0.3-0.181c0.145,0,0.236,0.061,0.276,0.181l2.916,7.787c0.032,0.072,0.032,0.146,0,0.223
		S108.081,12.415,108.009,12.447z M104.973,5.187l-1.703,4.513h3.396L104.973,5.187z"/>
</g>
<text transform="matrix(1 0 0 1 2.1816 38.959)" font-family="'Quicksand-Bold'" font-size="12">SANDEEP SHARMA</text>
</svg>
