<?xml version="1.0" encoding="utf-8"?>
<!-- Generator: Adobe Illustrator 15.0.0, SVG Export Plug-In . SVG Version: 6.00 Build 0)  -->
<!DOCTYPE svg PUBLIC "-//W3C//DTD SVG 1.1//EN" "http://www.w3.org/Graphics/SVG/1.1/DTD/svg11.dtd">
<svg version="1.1" id="Layer_1" xmlns="http://www.w3.org/2000/svg" xmlns:xlink="http://www.w3.org/1999/xlink" x="0px" y="0px"
	 width="100px" height="31px" viewBox="0 0 100 31" enable-background="new 0 0 100 31" xml:space="preserve">
<g enable-background="new    ">
	<path d="M11.305,20.201c-2.668,0-6.257-0.782-8.557-1.794c-0.322-0.14-0.966-0.509-1.288-0.874c0.092-0.094,0.322-0.276,0.46-0.276
		c0.046,0,1.519,0.782,2.208,1.013c2.162,0.782,4.922,1.289,7.269,1.289c1.289,0,5.015-0.048,5.015-2.762
		c0-5.429-11.961-4.187-11.961-9.108c0-2.209,3.358-3.864,5.015-4.278c0.598-0.138,1.38-0.276,2.07-0.276
		c1.058,0,3.22,0.46,3.22,2.347c0,1.748-2.76,3.082-3.772,3.082c-0.138,0-0.276,0-0.368-0.092c0.092-0.093,0.322-0.185,0.46-0.23
		c1.15-0.184,3.358-1.334,3.358-2.76c0-0.461-0.506-1.334-1.104-1.61c-0.506-0.229-0.92-0.322-1.702-0.322
		c-2.163,0-6.717,1.702-6.717,4.142c0,4.555,12.007,3.035,12.007,9.154C16.918,19.973,12.869,20.201,11.305,20.201z"/>
	<path d="M23.126,20.063c-0.782,0-1.472-0.875-1.886-1.842c-0.414,1.336-1.012,2.025-2.071,2.025c-1.104,0-1.656-0.967-1.656-1.887
		c0-0.139,0.138-0.735,0.184-1.06c0.23-0.873,1.84-2.438,2.484-2.438h0.46l0.138,0.139c-0.138,0.184-0.506,0.229-0.736,0.275
		c-1.012,0.367-2.116,2.07-2.116,2.99c0,0.689,0.368,1.474,1.242,1.474c2.163,0,1.472-4.049,1.656-4.417h0.184
		c0.138,0,0.414,0.139,0.46,0.276c0,0.184,0,4.095,1.702,4.095c0.138,0,0.414-0.141,0.645-0.322
		c0.046,0.092,0.138,0.092,0.184,0.138C24.046,19.741,23.402,20.063,23.126,20.063z"/>
	<path d="M30.348,19.373c-0.092,0.275-1.012,0.689-1.472,0.689c-1.886,0-0.874-4.692-2.438-4.692c-1.104,0-1.518,3.313-1.564,3.589
		c-0.092,0.275-0.276,0.92-0.552,1.288h-0.276c-0.046-0.093-0.138-0.14-0.184-0.185c-0.368-1.381-0.368-2.394-0.368-3.635
		c0-0.139,0-1.15,0.092-1.748c0.138,0.045,0.276,0.045,0.276,0.184v1.655c0,0.92,0.184,1.888,0.322,2.854h0.046
		c0.046-0.139,0.092-0.275,0.138-0.368c0.138-0.78,0.46-4.277,2.07-4.277c1.472,0,1.702,2.853,1.702,3.221
		c0,0.229,0.046,0.598,0.138,0.874c0.138,0.46,0.184,0.827,0.644,0.827c0.138,0,0.874-0.229,1.288-0.414L30.348,19.373z"/>
	<path d="M37.662,19.511c-0.414,0.14-1.196,0.276-1.38,0.276c-0.598,0-0.966-0.046-1.61-1.014c-1.058,1.06-1.886,1.656-2.853,1.656
		c-1.426,0-2.024-1.427-2.024-2.301c0-1.195,1.196-3.449,2.76-3.449c0.138,0,0.552,0.137,0.782,0.184
		c-0.092-1.059-0.276-2.944-0.276-3.082c0-0.139,0.184-1.428,0.23-2.07c0-0.23,0.69-2.668,1.886-2.668
		c1.518,0,1.656,3.635,1.656,4.002c0,4.232-1.886,7.271-1.886,7.271c0,0.139,0.276,0.599,0.46,0.781
		c0.046,0.047,0.276,0.186,0.414,0.275c0.184,0.046,0.368,0.046,0.506,0.046c0.138,0,0.874-0.092,1.426-0.138
		C37.753,19.327,37.708,19.465,37.662,19.511z M34.027,17.305c-0.184-0.6-0.322-1.289-0.506-1.796
		c-0.184-0.506-0.69-0.414-0.92-0.414c-1.426,0-2.438,2.024-2.438,3.036c0,0.782,0.506,1.842,1.656,1.842
		c0.138,0,0.598-0.14,0.782-0.14c0.184-0.046,1.794-1.242,1.794-1.608C34.395,18.085,34.073,17.533,34.027,17.305z M35.177,7.642
		c-0.69,0-1.196,1.84-1.196,1.84c-0.322,1.703-0.276,1.703-0.276,2.762c0,1.609,0.414,4.277,1.012,5.521
		c1.012-1.934,1.564-4.557,1.564-6.534C36.281,11.138,36.189,7.642,35.177,7.642z"/>
	<path d="M39.869,20.293c-1.15,0-2.484-0.598-2.484-2.116c0-0.872,0.92-2.853,2.346-2.853c0.782,0,1.242,0.553,1.242,1.24
		c0,1.383-2.116,2.209-3.082,2.162c0.46,1.061,1.288,1.15,2.116,1.15c0.782,0,1.84-0.229,2.76-0.689h0.184
		c0,0,0.046,0.186,0.046,0.229C42.307,19.925,40.881,20.293,39.869,20.293z M39.685,15.831c-0.92,0-1.61,1.38-1.84,2.208h0.782
		c0.506,0,1.794-0.782,1.794-1.475C40.421,16.105,40.099,15.831,39.685,15.831z"/>
	<path d="M45.066,20.293c-1.15,0-2.484-0.598-2.484-2.116c0-0.872,0.92-2.853,2.346-2.853c0.782,0,1.242,0.553,1.242,1.24
		c0,1.383-2.116,2.209-3.082,2.162c0.46,1.061,1.288,1.15,2.116,1.15c0.782,0,1.84-0.229,2.76-0.689h0.184
		c0,0,0.046,0.186,0.046,0.229C47.505,19.925,46.079,20.293,45.066,20.293z M44.882,15.831c-0.92,0-1.61,1.38-1.84,2.208h0.782
		c0.506,0,1.794-0.782,1.794-1.475C45.619,16.105,45.296,15.831,44.882,15.831z"/>
	<path d="M53.529,19.465c-0.229,0.186-0.506,0.414-0.827,0.46c-0.599,0.185-1.841,0.322-1.978,0.322h-1.75l-0.23,9.614L48.608,30
		c-0.138-0.046-0.23-0.186-0.23-0.32V14.404c0.322,0,0.46,0.046,0.644,0.046l0.046,1.52c0.69-0.783,1.15-1.104,1.793-1.104
		c1.242,0,1.474,1.288,1.474,1.841c0,0.966-0.46,2.254-2.024,3.128c0.046,0.046,0.046,0,0.184,0c0.92,0,2.116-0.185,2.991-0.552
		l0.046,0.046v0.137L53.529,19.465L53.529,19.465z M50.908,15.417c-0.783,0-1.104,0.827-1.933,1.426v2.761h0.414
		c0.138,0,0.368-0.139,0.506-0.139c1.242-0.367,1.933-1.794,1.933-2.668C51.828,16.477,51.645,15.417,50.908,15.417z"/>
	<path d="M67.79,18.773c-0.138,0-0.966-0.229-1.472-0.366c-0.276,1.518-1.933,1.84-3.129,1.84c-0.506,0-2.99-0.046-2.99-1.38
		c0-1.288,1.701-1.381,2.347-1.381c0.138,0,1.886,0.185,2.897,0.32c-0.598-1.012-2.575-1.148-3.68-1.518
		c-0.414-0.094-0.646-0.414-0.646-0.645c0-0.828,1.654-0.92,1.979-0.92c0.367,0,0.965,0.138,1.104,0.275
		c-0.093,0.092-0.093,0.184-0.229,0.184c-0.139,0-0.599-0.092-0.736-0.092c-0.459,0-1.059-0.092-1.701,0.414v0.184
		c1.609,0.784,3.727,0.506,4.646,2.302c0.598,0.138,1.194,0.274,1.747,0.506C67.93,18.545,67.93,18.773,67.79,18.773z
		 M65.721,18.361c-0.921-0.094-2.669-0.276-2.807-0.276c-0.275,0-2.116,0-2.116,0.782c0,0.734,2.162,0.828,2.53,0.828
		c0.138,0,0.552,0,0.781,0c0.093-0.047,1.656-0.555,1.608-1.061v-0.273H65.721z"/>
	<path d="M72.391,20.339c-2.578,0-0.783-4.738-2.623-4.738c-0.828,0-1.563,1.426-1.656,1.887c-0.185,0.967-0.139,2.022-0.185,2.99
		c0,0-0.092,0.047-0.138,0.092c-0.046,0-0.139-0.092-0.186-0.139c0.047-0.873,0.047-2.576,0-3.313l-0.045-6.765
		c-0.646,0.322-1.656,0.6-2.395,0.6c-0.139,0-0.367-0.092-0.46-0.139c0,0,0-0.139,0.046-0.185c0.322-0.046,0.734-0.046,1.061-0.092
		c0.366-0.046,0.873-0.229,1.287-0.368c0.139-0.046,0.414-0.092,0.461-0.229c0.092-0.508,0.185-1.795,0.229-2.807
		c0.046-0.322,0.186-2.348,1.24-2.348c1.014,0,1.195,1.288,1.195,1.795c0,1.148-0.644,2.53-1.978,3.404
		c-0.046,0.138-0.093,0.32-0.093,0.46v6.118c0.461-0.828,0.875-1.425,1.608-1.425c2.394,0,0.69,4.691,2.808,4.691
		c0.553,0,0.553-0.23,1.197-0.598c0,0.045,0.092,0.138,0.137,0.184C73.355,20.107,73.033,20.339,72.391,20.339z M69.077,5.343
		c-0.69,0-0.736,2.022-0.782,2.207c0,0.645-0.046,1.288-0.046,1.932c1.149-0.92,1.472-1.84,1.472-2.805
		C69.721,6.491,69.768,5.343,69.077,5.343z"/>
	<path d="M78.968,20.063c-0.782,0-1.472-0.875-1.886-1.842c-0.414,1.336-1.014,2.025-2.07,2.025c-1.104,0-1.656-0.967-1.656-1.887
		c0-0.139,0.14-0.735,0.186-1.06c0.229-0.873,1.841-2.438,2.482-2.438h0.461l0.14,0.139c-0.14,0.184-0.507,0.229-0.735,0.275
		c-1.014,0.367-2.115,2.07-2.115,2.99c0,0.689,0.367,1.474,1.242,1.474c2.16,0,1.471-4.049,1.654-4.417h0.186
		c0.138,0,0.414,0.139,0.459,0.276c0,0.184,0,4.095,1.703,4.095c0.139,0,0.414-0.141,0.645-0.322
		c0.046,0.092,0.138,0.092,0.184,0.138C79.889,19.741,79.244,20.063,78.968,20.063z"/>
	<path d="M84.993,19.145c-0.507,0.688-1.058,0.967-1.519,0.967c-0.736,0-1.52-0.646-1.52-1.381c0-0.828,0.689-1.104,0.689-1.979
		c0-0.92-0.781-1.242-1.334-1.242c-0.047,0-0.321,0.139-0.321,0.229c-0.23,1.288-0.276,3.129-1.288,4.141h-0.229
		c0,0-0.048,0-0.048-0.138c0-0.14,0.23-0.322,0.322-0.507c0.185-0.461,0.414-0.967,0.506-1.473c0.229-1.059,0.187-1.795,0.274-2.438
		c0.048-0.185,0.6-0.321,0.875-0.321c1.013,0,1.841,0.735,1.841,1.748c0,1.147-0.646,1.288-0.646,2.069
		c0,0.507,0.6,0.828,0.967,0.828c0.599,0,0.689-0.461,1.287-0.646L84.993,19.145z"/>
	<path d="M92.538,19.741c0,0.274-1.06,0.506-1.381,0.506c-1.519,0-1.427-2.349-1.472-2.668c-0.094-0.46-0.047-1.242-0.369-1.841
		c-0.185,0.321-0.321,0.735-0.414,1.149c-0.092,0.23-0.185,0.646-0.229,0.92c-0.047,0.047-0.366,2.116-1.059,2.116
		c-0.921,0-0.69-2.3-0.646-2.392l-0.047-1.934c-0.689,0.276-0.689,1.289-0.828,1.84c-0.046,0.229-0.092,0.646-0.092,0.922
		c-0.046,0.138-0.138,2.067-0.874,2.067c-0.599,0-0.599-1.747-0.599-1.84c0-0.138,0.093-2.438,0.229-3.635
		c0.046-0.092,0.093-0.139,0.14-0.229c0.367,0.321,0.092,1.149,0.092,1.655c0.046,1.013-0.23,2.853,0.138,3.589
		c0.322-0.229,0.276-0.783,0.368-1.148c0.092-0.555,0.092-3.729,1.473-3.729c0.184,0,0.413-0.046,0.506,0.598l0.092,3.496
		c0.277-0.319,0.369-1.012,0.461-1.426c0.093-0.367,0.229-0.92,0.367-1.426c0.094-0.46,0.369-1.242,0.875-1.242
		c1.609,0,0.045,4.738,2.023,4.738c0.092,0,0.689-0.092,1.104-0.23L92.538,19.741z"/>
	<path d="M97.598,20.063c-0.783,0-1.473-0.875-1.887-1.842c-0.414,1.336-1.013,2.025-2.07,2.025c-1.104,0-1.656-0.967-1.656-1.887
		c0-0.139,0.14-0.735,0.186-1.06c0.229-0.873,1.842-2.438,2.482-2.438h0.461l0.14,0.139c-0.14,0.184-0.507,0.229-0.735,0.275
		c-1.014,0.367-2.115,2.07-2.115,2.99c0,0.689,0.367,1.474,1.242,1.474c2.162,0,1.471-4.049,1.654-4.417h0.186
		c0.138,0,0.414,0.139,0.459,0.276c0,0.184,0,4.095,1.703,4.095c0.139,0,0.414-0.141,0.645-0.322
		c0.046,0.092,0.139,0.092,0.184,0.138C98.518,19.741,97.873,20.063,97.598,20.063z"/>
</g>
</svg>
