<?xml version="1.0" encoding="utf-8"?>
<!-- Generator: Adobe Illustrator 15.0.0, SVG Export Plug-In . SVG Version: 6.00 Build 0)  -->
<!DOCTYPE svg PUBLIC "-//W3C//DTD SVG 1.1//EN" "http://www.w3.org/Graphics/SVG/1.1/DTD/svg11.dtd">
<svg version="1.1" id="Layer_1" xmlns="http://www.w3.org/2000/svg" xmlns:xlink="http://www.w3.org/1999/xlink" x="0px" y="0px"
	 width="200px" height="167px" viewBox="0 0 200 167" enable-background="new 0 0 200 167" xml:space="preserve">
<line fill="none" stroke="#CCCCCC" stroke-linecap="round" stroke-linejoin="round" stroke-miterlimit="10" x1="1" y1="96.5" x2="198" y2="96.5"/>
<g>
	<path fill="#B3B3B3" d="M188,3c5.514,0,10,4.486,10,10v142c0,5.514-4.486,10-10,10H12c-5.514,0-10-4.486-10-10V13
		C2,7.486,6.486,3,12,3H188 M188,1H12C5.373,1,0,6.373,0,13v142c0,6.627,5.373,12,12,12h176c6.627,0,12-5.373,12-12V13
		C200,6.373,194.627,1,188,1L188,1z"/>
</g>
<line fill="none" stroke="#B3B3B3" stroke-linecap="round" stroke-linejoin="round" stroke-miterlimit="10" x1="2" y1="18.5" x2="199" y2="18.5"/>
<circle fill="#CCCCCC" cx="188" cy="11" r="2"/>
<circle fill="#CCCCCC" cx="182" cy="11" r="2"/>
<circle fill="#CCCCCC" cx="176" cy="11" r="2"/>
<rect x="9.5" y="24.5" fill="none" stroke="#B3B3B3" stroke-miterlimit="10" width="25" height="9"/>
<rect x="178" y="28" fill="#CCCCCC" width="10" height="4"/>
<rect x="165" y="28" fill="#CCCCCC" width="10" height="4"/>
<rect x="152" y="28" fill="#CCCCCC" width="10" height="4"/>
<rect x="138" y="28" fill="#CCCCCC" width="10" height="4"/>
<rect x="77" y="48" fill="#CCCCCC" width="22" height="6"/>
<rect x="122" y="48" fill="#CCCCCC" width="27" height="6"/>
<rect x="47" y="48" fill="#CCCCCC" width="27" height="6"/>
<rect x="102" y="48" fill="#CCCCCC" width="18" height="6"/>
<line fill="none" stroke="#CCCCCC" stroke-miterlimit="10" stroke-dasharray="3,2" x1="81" y1="122.5" x2="119" y2="122.5"/>
<line fill="none" stroke="#CCCCCC" stroke-width="5" stroke-miterlimit="10" stroke-dasharray="12,2" x1="81" y1="114.5" x2="119" y2="114.5"/>
<line fill="none" stroke="#CCCCCC" stroke-miterlimit="10" stroke-dasharray="3,2" x1="81" y1="125.5" x2="119" y2="125.5"/>
<line fill="none" stroke="#CCCCCC" stroke-miterlimit="10" stroke-dasharray="3,2" x1="81" y1="128.5" x2="119" y2="128.5"/>
<line fill="none" stroke="#CCCCCC" stroke-miterlimit="10" stroke-dasharray="3,2" x1="81" y1="131.5" x2="119" y2="131.5"/>
<line fill="none" stroke="#CCCCCC" stroke-miterlimit="10" stroke-dasharray="3,2" x1="81" y1="134.5" x2="119" y2="134.5"/>
<line fill="none" stroke="#CCCCCC" stroke-miterlimit="10" stroke-dasharray="3,2" x1="81" y1="137.5" x2="119" y2="137.5"/>
<line fill="none" stroke="#CCCCCC" stroke-miterlimit="10" stroke-dasharray="3,2" x1="81" y1="140.5" x2="119" y2="140.5"/>
<line fill="none" stroke="#CCCCCC" stroke-miterlimit="10" stroke-dasharray="3,2" x1="81" y1="143.5" x2="119" y2="143.5"/>
<line fill="none" stroke="#CCCCCC" stroke-miterlimit="10" stroke-dasharray="3,2" x1="81" y1="146.5" x2="119" y2="146.5"/>
<line fill="none" stroke="#CCCCCC" stroke-miterlimit="10" stroke-dasharray="3,2" x1="81" y1="149.5" x2="119" y2="149.5"/>
<line fill="none" stroke="#CCCCCC" stroke-miterlimit="10" stroke-dasharray="3,2" x1="51" y1="64.5" x2="148" y2="64.5"/>
<line fill="none" stroke="#CCCCCC" stroke-miterlimit="10" stroke-dasharray="3,2" x1="62" y1="70.5" x2="138" y2="70.5"/>
<path fill="none" stroke="#B3B3B3" stroke-linecap="round" stroke-linejoin="round" stroke-miterlimit="10" d="M114.5,82.5
	c0,2.209-1.791,4-4,4h-21c-2.209,0-4-1.791-4-4l0,0c0-2.209,1.791-4,4-4h21C112.709,78.5,114.5,80.291,114.5,82.5L114.5,82.5z"/>
<rect x="14.5" y="104.5" fill="none" stroke="#CCCCCC" stroke-miterlimit="10" width="51" height="51"/>
<rect x="134.5" y="104.5" fill="none" stroke="#CCCCCC" stroke-miterlimit="10" width="51" height="51"/>
<rect x="74.5" y="104.5" fill="none" stroke="#CCCCCC" stroke-miterlimit="10" width="51" height="51"/>
<polygon fill="none" stroke="#CCCCCC" stroke-linecap="round" stroke-linejoin="round" stroke-miterlimit="10" points="27.01,138.5 
	40,116 52.99,138.5 "/>
<polygon fill="none" stroke="#CCCCCC" stroke-linecap="round" stroke-linejoin="round" stroke-miterlimit="10" points="27.01,122.5 
	40,145 52.99,122.5 "/>
<polygon fill="none" stroke="#CCCCCC" stroke-linecap="round" stroke-linejoin="round" stroke-miterlimit="10" points="
	147.01,141.5 160,118 172.99,141.5 "/>
<ellipse fill="none" stroke="#B3B3B3" stroke-linecap="round" stroke-linejoin="round" stroke-miterlimit="10" cx="160" cy="133" rx="7" ry="3"/>
<circle fill="#B3B3B3" cx="160" cy="133" r="2"/>
</svg>
