<?xml version="1.0" encoding="utf-8"?>
<!-- Generator: Adobe Illustrator 16.0.0, SVG Export Plug-In . SVG Version: 6.00 Build 0)  -->
<!DOCTYPE svg PUBLIC "-//W3C//DTD SVG 1.1//EN" "http://www.w3.org/Graphics/SVG/1.1/DTD/svg11.dtd">
<svg version="1.1" id="Capa_1" xmlns="http://www.w3.org/2000/svg" xmlns:xlink="http://www.w3.org/1999/xlink" x="0px" y="0px"
	 width="612px" height="531.857px" viewBox="0 130.071 612 531.857" enable-background="new 0 130.071 612 531.857"
	 xml:space="preserve">
<g>
	<g>
		<path fill="#DBD9D9" d="M308.479,661.929c11.199,0,20.362-9.164,20.362-20.363V372.098l83.487,74.325
			c3.734,3.394,8.825,5.091,13.575,5.091c5.77,0,11.199-2.376,15.272-6.788c7.466-8.484,6.788-21.381-1.697-28.847l-117.426-104.19
			c-7.806-7.127-20.023-6.788-27.489,0.679L185.622,416.558c-8.145,7.806-8.483,20.701-0.679,28.847
			c7.806,8.146,20.701,8.484,28.847,0.68l73.985-70.931v266.752C288.115,652.765,297.28,661.929,308.479,661.929z"/>
		<path fill="#DBD9D9" d="M536.542,356.826c1.697-17.647,2.715-46.834-5.77-78.736c-12.218-47.173-47.174-109.621-143.22-138.467
			c-52.943-15.951-100.116-11.879-139.824,11.879c-53.622,32.241-78.735,91.632-88.239,121.838
			c-22.737-1.697-61.427-0.679-95.366,21.042c-30.883,19.684-50.907,51.246-60.07,94.008c-12.557,59.731,6.448,98.76,24.436,120.82
			c30.205,37.332,79.415,53.961,114.711,53.961h56.677c11.2,0,20.363-9.163,20.363-20.362c0-11.2-9.163-20.363-20.363-20.363
			h-56.337c-24.774,0-61.088-12.218-83.148-39.028c-17.987-22.399-23.417-51.586-16.29-86.881
			c6.448-31.563,20.702-54.301,41.744-67.876c36.652-22.738,83.826-12.557,84.166-12.557c5.43,1.357,10.861,0.339,15.611-2.716
			c4.751-3.054,7.807-7.806,8.824-12.896c0-0.679,16.97-79.415,74.324-113.693c29.526-17.647,65.5-20.363,107.244-7.806
			c147.63,44.119,119.461,180.211,118.104,185.981c-2.376,10.181,3.394,20.363,12.896,23.756
			c3.394,1.019,79.754,29.526,60.75,92.651c-12.897,43.44-65.5,41.743-67.537,41.743c-0.339,0-0.679,0-1.018,0h-75.343
			c-11.199,0-20.362,9.164-20.362,20.363s9.163,20.362,20.362,20.362h75.004c1.356,0,2.715,0,4.072,0
			c31.224,0,87.222-14.254,104.189-70.931C628.175,422.665,576.588,376.849,536.542,356.826z"/>
	</g>
</g>
</svg>
