<?xml version="1.0" encoding="utf-8"?>
<!-- Generator: Adobe Illustrator 16.0.0, SVG Export Plug-In . SVG Version: 6.00 Build 0)  -->
<!DOCTYPE svg PUBLIC "-//W3C//DTD SVG 1.1//EN" "http://www.w3.org/Graphics/SVG/1.1/DTD/svg11.dtd">
<svg version="1.1" id="Capa_1" xmlns="http://www.w3.org/2000/svg" xmlns:xlink="http://www.w3.org/1999/xlink" x="0px" y="0px"
	 width="606.819px" height="612px" viewBox="2.59 90 606.819 612" enable-background="new 2.59 90 606.819 612"
	 xml:space="preserve">
<g>
	<path fill="#FFFFFF" d="M497.823,478.966c-35.432,0-66.685,16.88-87.103,42.729l-189.385-96.852
		c2.479-9.248,4.262-18.803,4.262-28.858c0-10.947-2.117-21.253-5.069-31.281l188.549-96.406
		c20.307,27.019,52.367,44.679,88.773,44.679c61.671,0,111.56-49.888,111.56-111.503C609.409,139.916,559.521,90,497.85,90
		c-61.531,0-111.475,49.916-111.475,111.475c0,10.083,1.782,19.666,4.289,28.941l-189.357,96.852
		c-20.445-25.877-51.754-42.813-87.241-42.813C52.45,284.455,2.59,334.399,2.59,395.986c0,61.587,49.86,111.503,111.476,111.503
		c36.462,0,68.495-17.716,88.885-44.763l188.467,96.405c-2.953,10-5.098,20.391-5.098,31.365
		C386.32,652.084,436.263,702,497.794,702c61.671,0,111.56-49.916,111.56-111.503C609.381,528.854,559.493,478.966,497.823,478.966z
		"/>
</g>
</svg>
