<?xml version="1.0" encoding="utf-8"?>
<!-- Generator: Adobe Illustrator 16.0.0, SVG Export Plug-In . SVG Version: 6.00 Build 0)  -->
<!DOCTYPE svg PUBLIC "-//W3C//DTD SVG 1.1//EN" "http://www.w3.org/Graphics/SVG/1.1/DTD/svg11.dtd">
<svg version="1.1" id="Capa_1" xmlns="http://www.w3.org/2000/svg" xmlns:xlink="http://www.w3.org/1999/xlink" x="0px" y="0px"
	 width="612px" height="413.1px" viewBox="0 0 612 413.1" enable-background="new 0 0 612 413.1" xml:space="preserve">
<g id="_x37_7_Essential_Icons_21_">
	<path id="Email" fill="#CCCCCC" d="M596.698,0H15.3C6.885,0,0,6.885,0,15.3v382.5c0,8.415,6.885,15.3,15.3,15.3h581.398
		c8.415,0,15.302-6.885,15.302-15.3V15.3C612,6.885,605.115,0,596.698,0z M559.98,30.6L306,284.58L52.02,30.6H559.98z M30.6,52.02
		l154.53,154.53L30.6,361.08V52.02z M52.785,382.5L206.55,228.736l88.74,88.739c6.118,6.12,15.3,6.12,21.42,0l88.738-88.739
		L559.215,382.5H52.785z M581.4,361.08L426.868,206.55L581.4,52.02V361.08z"/>
</g>
</svg>
