<?xml version="1.0" encoding="utf-8"?>
<!-- Generator: Adobe Illustrator 16.0.0, SVG Export Plug-In . SVG Version: 6.00 Build 0)  -->
<!DOCTYPE svg PUBLIC "-//W3C//DTD SVG 1.1//EN" "http://www.w3.org/Graphics/SVG/1.1/DTD/svg11.dtd">
<svg version="1.1" id="Capa_1" xmlns="http://www.w3.org/2000/svg" xmlns:xlink="http://www.w3.org/1999/xlink" x="0px" y="0px"
	 width="466.332px" height="210px" viewBox="0 128.166 466.332 210" enable-background="new 0 128.166 466.332 210"
	 xml:space="preserve">
<g>
	<g>
		<g>
			<path fill="#FFFFFF" d="M454.164,128.166H193.578c-8.242,0-16.293,6.679-17.988,14.92l-37.041,180.16
				c-1.69,8.24,3.619,14.92,11.854,14.92h260.592c8.242,0,16.293-6.68,17.986-14.92l37.035-180.16
				C467.714,134.845,462.406,128.166,454.164,128.166z M422.99,188.459l-115.646,55.773c-4.988,2.408-10.671,2.408-14.671,0
				l-92.713-55.773c-6.723-4.042-7.641-13.477-2.043-21.032c3.748-5.062,9.65-8.21,15.398-8.21c2.539,0,4.94,0.636,6.945,1.841
				l86.184,51.849l107.51-51.849c2.492-1.204,5.156-1.84,7.701-1.84c5.746,0,10.354,3.146,12.021,8.203
				C436.173,174.979,431.378,184.418,422.99,188.459z"/>
			<path fill="#FFFFFF" d="M40.877,167.508H153.15c5.945,0,10.76-4.817,10.76-10.757c0-5.942-4.813-10.757-10.76-10.757H40.877
				c-5.938,0-10.758,4.815-10.758,10.757C30.119,162.691,34.937,167.508,40.877,167.508z"/>
			<path fill="#FFFFFF" d="M123.035,243.88H10.76C4.817,243.88,0,248.695,0,254.635c0,5.942,4.816,10.758,10.76,10.758h112.275
				c5.938,0,10.756-4.813,10.756-10.758C133.791,248.695,128.973,243.88,123.035,243.88z"/>
			<path fill="#FFFFFF" d="M148.848,205.066c0-5.941-4.813-10.755-10.752-10.755H70.992c-5.938,0-10.752,4.814-10.752,10.755
				c0,5.939,4.813,10.756,10.752,10.756h67.104C144.035,215.822,148.848,211.006,148.848,205.066z"/>
			<path fill="#FFFFFF" d="M107.973,292.193H72.121c-5.942,0-10.76,4.813-10.76,10.758c0,5.938,4.816,10.757,10.76,10.757h35.853
				c5.944,0,10.76-4.817,10.76-10.757C118.732,297.009,113.918,292.193,107.973,292.193z"/>
		</g>
	</g>
</g>
</svg>
