<?xml version="1.0" encoding="utf-8"?>
<!-- Generator: Adobe Illustrator 16.0.0, SVG Export Plug-In . SVG Version: 6.00 Build 0)  -->
<!DOCTYPE svg PUBLIC "-//W3C//DTD SVG 1.1//EN" "http://www.w3.org/Graphics/SVG/1.1/DTD/svg11.dtd">
<svg version="1.1" id="Capa_1" xmlns="http://www.w3.org/2000/svg" xmlns:xlink="http://www.w3.org/1999/xlink" x="0px" y="0px"
	 width="564.924px" height="612px" viewBox="0 0 564.924 612" enable-background="new 0 0 564.924 612" xml:space="preserve">
<g id="_x37_7_Essential_Icons_70_">
	<path id="User" fill="#CCCCCC" d="M355.432,323.262c51-31.385,83.953-93.369,83.953-150.646C439.385,91.016,372.694,0,282.463,0
		c-90.231,0-156.924,91.016-156.924,172.615c0,57.277,32.953,119.262,83.953,150.646C88.662,355.431,0,466.063,0,596.308
		C0,604.939,7.063,612,15.693,612h533.539c8.631,0,15.691-7.063,15.691-15.692C564.925,466.063,476.262,355.431,355.432,323.262z
		 M156.923,172.615c0-80.815,66.692-141.23,125.54-141.23c58.846,0,125.538,60.415,125.538,141.23
		c0,80.814-66.691,141.23-125.538,141.23C223.616,313.846,156.923,253.432,156.923,172.615z M32.169,580.615
		c7.848-131.03,117.693-235.385,250.294-235.385c132.6,0,242.444,104.354,250.292,235.385H32.169z"/>
</g>
</svg>
