<?xml version="1.0" standalone="no"?>
<!DOCTYPE svg PUBLIC "-//W3C//DTD SVG 1.1//EN" "http://www.w3.org/Graphics/SVG/1.1/DTD/svg11.dtd" >
<svg xmlns="http://www.w3.org/2000/svg" xmlns:xlink="http://www.w3.org/1999/xlink" version="1.1">
<metadata>
Created by FontForge 20161013 at Wed Dec 15 19:34:36 2004
 By ,,,
Copyright  2004, Joshua Darden &#38; Phil's Fonts, Inc. All rights reserved. Published by Garagefonts USA 301-260-2285 www.garagefonts.com
</metadata>
<defs>
<font id="FreightTextMedium" horiz-adv-x="400" >
  <font-face 
    font-family="FreightText Medium"
    font-weight="400"
    font-stretch="normal"
    units-per-em="1000"
    panose-1="2 0 6 3 7 0 0 2 0 4"
    ascent="800"
    descent="-200"
    x-height="448"
    cap-height="625"
    bbox="-67 -270 1109 864"
    underline-thickness="20"
    underline-position="-153"
    unicode-range="U+0020-FB04"
  />
<missing-glyph horiz-adv-x="500" 
 />
    <glyph glyph-name=".notdef" horiz-adv-x="500" 
 />
    <glyph glyph-name=".null" horiz-adv-x="0" 
 />
    <glyph glyph-name="nonmarkingreturn" horiz-adv-x="160" 
 />
    <glyph glyph-name="space" unicode=" " horiz-adv-x="160" 
 />
    <glyph glyph-name="space" unicode="&#xa0;" horiz-adv-x="160" 
 />
    <glyph glyph-name="exclam" unicode="!" horiz-adv-x="284" 
d="M153 196q-1 -6 -10 -6t-10 6l-42 400q-2 20 7.5 31.5t43.5 11.5h2q34 0 43.5 -11.5t7.5 -31.5zM202 45q0 -24 -16.5 -42t-42.5 -18t-43.5 18t-17.5 42q0 23 17.5 40.5t43.5 17.5t42.5 -17.5t16.5 -40.5z" />
    <glyph glyph-name="quotedbl" unicode="&#x22;" horiz-adv-x="370" 
d="M213 403h-37l107 243h1l80 -28zM51 403h-38l107 243h2l80 -28z" />
    <glyph glyph-name="numbersign" unicode="#" horiz-adv-x="566" 
d="M437 404l-50 -186h129v-38h-139l-50 -186h-39l50 186h-171l-50 -186h-39l50 186h-128v38h138l50 186h-128v38h138l52 189h39l-51 -189h170l51 189h39l-51 -189h129v-38h-139zM398 404h-170l-51 -186h171z" />
    <glyph glyph-name="dollar" unicode="$" horiz-adv-x="510" 
d="M142 -166h-39l43 159q-21 4 -40.5 9.5t-38.5 12.5l-14 178h37l45 -137q5 -3 11.5 -5.5t13.5 -4.5l66 244q-31 12 -59.5 26.5t-51 35t-36 48.5t-13.5 68q0 31 11.5 61.5t36.5 54.5t63.5 39t92.5 16h26t23 -1l27 100h39l-28 -104q17 -3 30 -6l52 14v-199h-39l-29 124
q-16 7 -29 11l-57 -212q34 -13 67.5 -28.5t60 -37t43 -53t16.5 -76.5q0 -35 -15.5 -68.5t-45 -59t-72.5 -41.5t-98 -17q-29 0 -58 3zM278 484q5 20 10 38.5t9 33.5t6.5 23.5l2.5 8.5q-14 3 -26.5 5t-24.5 2q-28 0 -49 -8t-34.5 -21.5t-20 -31t-6.5 -35.5q0 -25 8.5 -43
t22.5 -32t33 -24.5t41 -19.5zM229 156l-12 -44t-10.5 -39t-7.5 -27.5l-3 -10.5q17 -4 33.5 -6t30.5 -1q32 0 56.5 10t41 25.5t25 35t8.5 40.5q0 30 -10.5 51t-28.5 37t-41.5 27.5t-49.5 21.5z" />
    <glyph glyph-name="percent" unicode="%" horiz-adv-x="746" 
d="M349 482q0 -33 -11.5 -63t-33 -52.5t-52 -36t-69.5 -13.5q-38 0 -69 13.5t-52.5 36t-33 52.5t-11.5 63q0 34 11.5 64.5t33 53t52.5 36t69 13.5q39 0 69.5 -13.5t52 -36t33 -53t11.5 -64.5zM147 -15h-54l507 654h54zM729 142q0 -34 -11.5 -64.5t-33 -53t-52.5 -36
t-69 -13.5q-39 0 -69.5 13.5t-52 36t-33 53t-11.5 64.5q0 33 11.5 63t33 52.5t52 36t69.5 13.5q38 0 69 -13.5t52.5 -36t33 -52.5t11.5 -63zM300 482q0 25 -8 47.5t-23 39t-37 26t-49 9.5t-49 -9.5t-37 -26t-23 -39t-8 -47.5q0 -24 8 -45.5t23 -38t37 -26.5t49 -10t49 10
t37 26.5t23 38t8 45.5zM680 142q0 24 -8 45.5t-23 38t-37 26.5t-49 10t-49 -10t-37 -26.5t-23 -38t-8 -45.5q0 -25 8 -47.5t23 -39t37 -26t49 -9.5t49 9.5t37 26t23 39t8 47.5z" />
    <glyph glyph-name="ampersand" unicode="&#x26;" horiz-adv-x="695" 
d="M696 54q-34 -35 -66.5 -52.5t-67.5 -17.5q-28 0 -49.5 8t-38.5 23.5t-31 37.5t-28 50q-18 -23 -41 -44t-50.5 -37.5t-58 -26.5t-62.5 -10q-43 0 -76.5 13.5t-56.5 36.5t-34.5 52.5t-11.5 60.5q0 63 40 111t102 74q-47 21 -71 58t-24 82q0 35 14.5 65t39.5 52.5t60 35.5
t75 13q39 0 69.5 -11.5t51.5 -30t32 -42t11 -47.5q0 -47 -28.5 -88.5t-98.5 -71.5q49 -23 87.5 -55.5t66.5 -80.5q16 23 29 43q11 17 20.5 34t9.5 26q1 20 -29 25l-20 3l-2 34h217l-4 -34l-21 -5q-27 -7 -55.5 -23t-51.5 -46l-71 -94q17 -34 31 -58t28.5 -38t30.5 -20.5
t37 -6.5q17 0 37 7.5t43 21.5l16 -27v0zM341 494q0 19 -6 37.5t-17.5 33.5t-29 24t-41.5 9q-48 0 -75 -27.5t-27 -67.5q0 -50 29 -82t89 -56q42 21 60 53.5t18 75.5zM396 144q-17 35 -38 60.5t-46 45t-54 34.5t-62 29q-39 -25 -64 -56.5t-26 -76.5q0 -26 11 -49t30 -40.5
t45 -27.5t54 -10q37 0 76.5 21.5t73.5 69.5z" />
    <glyph glyph-name="quotesingle" unicode="'" horiz-adv-x="208" 
d="M51 403h-38l108 243h1l80 -28z" />
    <glyph glyph-name="parenleft" unicode="(" horiz-adv-x="395" 
d="M358 -254q-40 20 -86.5 60.5t-86.5 99.5t-66.5 135.5t-26.5 167.5q0 92 26.5 168t66.5 135t86.5 99.5t86.5 60.5l26 -35q-37 -20 -79.5 -59.5t-78 -94.5t-59 -124t-23.5 -150t23.5 -150t59 -124t78 -94t79.5 -59l-26 -36v0z" />
    <glyph glyph-name="parenright" unicode=")" horiz-adv-x="395" 
d="M11 -219q38 20 80 59.5t77.5 94.5t59 124t23.5 150t-23.5 150t-59 124t-77.5 94.5t-80 59.5l27 35q40 -20 86.5 -60.5t86 -99.5t66 -135t26.5 -168q0 -91 -26.5 -167.5t-66 -135.5t-86 -99.5t-86.5 -60.5z" />
    <glyph glyph-name="asterisk" unicode="*" horiz-adv-x="349" 
d="M291 433l-92 34l-10 -13l60 -76l-11 -61l-21 -6l-45 43l4 97l-15 4l-52 -78l-62 -10l-14 18l28 58l91 24v18l-91 26l-29 56l13 18l64 -9l52 -81l16 5l-2 97l43 42l22 -7l11 -61l-62 -76l10 -13l92 33l53 -30v-22z" />
    <glyph glyph-name="plus" unicode="+" horiz-adv-x="480" 
d="M267 208v-185h-53v185h-183l3 53h180v184h53v-184h179l3 -53h-182z" />
    <glyph glyph-name="comma" unicode="," horiz-adv-x="232" 
d="M203 23q0 -32 -13 -60t-33.5 -53t-46 -46.5t-50.5 -39.5l-26 16q15 10 30 24.5t27.5 32t20.5 36t8 38.5q0 22 -12.5 37.5t-27 26t-27 15.5t-12.5 6q0 26 19 43.5t51 17.5q16 0 32 -7t29.5 -19.5t22 -29.5t8.5 -38z" />
    <glyph glyph-name="hyphen" unicode="-" horiz-adv-x="328" 
d="M33 208l3 53h258l3 -53h-264z" />
    <glyph glyph-name="period" unicode="." horiz-adv-x="234" 
d="M184 52q0 -26 -18.5 -46.5t-47.5 -20.5t-48.5 20.5t-19.5 46.5t19.5 45.5t48.5 19.5t47.5 -19.5t18.5 -45.5z" />
    <glyph glyph-name="slash" unicode="/" horiz-adv-x="279" 
d="M222 665h48l-215 -877h-48z" />
    <glyph glyph-name="zero" unicode="0" horiz-adv-x="558" 
d="M521 235q0 -56 -18 -102t-50 -79t-77 -51t-98 -18t-97.5 18t-76.5 50.5t-49.5 78t-17.5 101.5t18 102t50.5 79t77 51t97.5 18t97.5 -18t76.5 -50.5t49.5 -78t17.5 -101.5zM458 233q0 42 -13 76.5t-37 59.5t-57 39t-73 14t-72.5 -13.5t-56 -38.5t-36.5 -59t-13 -76
t13 -76.5t37 -59.5t57 -39t73 -14t72.5 13.5t56 38.5t36.5 59t13 76z" />
    <glyph glyph-name="one" unicode="1" horiz-adv-x="379" 
d="M64 0l3 35l64 11q23 7 23 23v339l-110 9l3 30l188 32v-410q0 -19 23 -23l68 -11l3 -35h-265z" />
    <glyph glyph-name="two" unicode="2" horiz-adv-x="468" 
d="M432 0h-396l-5 58q48 36 92.5 70t78.5 66.5t54.5 63t20.5 58.5q0 41 -27.5 68t-77.5 27q-34 0 -62.5 -21t-44.5 -43l-20 11q21 60 68.5 92.5t108.5 32.5q30 0 57 -9.5t47.5 -27t32.5 -42t12 -53.5q0 -37 -17.5 -68t-51 -63t-83 -67t-113.5 -80v-5h44q72 0 115.5 2t68 7.5
t36.5 16t21 28.5l19 39h33z" />
    <glyph glyph-name="three" unicode="3" horiz-adv-x="423" 
d="M221 185q36 -1 67 -11.5t54 -30.5t36 -48t13 -64q0 -45 -21 -87t-56.5 -74.5t-82 -51.5t-97.5 -19q-27 0 -49.5 6t-39 16t-25.5 23t-9 28q0 21 14.5 35t34.5 14q29 0 51 -23.5t27 -52.5q7 -2 13 -2h13q25 0 49.5 10t44 28.5t32 45t12.5 59.5q0 64 -36.5 101.5t-94.5 37.5
q-20 0 -40 -4t-40 -13l-11 27q27 18 57.5 36.5t57 40t44 46t17.5 53.5q0 42 -27.5 71t-73.5 29q-38 0 -66.5 -21t-44.5 -43q-2 0 -6 1.5t-7.5 4t-6 4t-0.5 1.5q21 60 71 92.5t115 32.5q32 0 58.5 -10t45 -27t29 -40t10.5 -50q0 -47 -30 -87t-102 -82v-2z" />
    <glyph glyph-name="four" unicode="4" horiz-adv-x="479" 
d="M367 20v-204h-81v204h-278l-3 34l325 424h37v-390h115l-7 -68h-108zM286 360h-3l-209 -272h212v272z" />
    <glyph glyph-name="five" unicode="5" horiz-adv-x="425" 
d="M111 254q140 -38 203 -98t63 -131q0 -47 -20 -88t-54 -72t-78.5 -48.5t-92.5 -17.5q-54 0 -88 20t-34 49q0 21 14.5 35t34.5 14q29 0 50.5 -21.5t26.5 -50.5q7 -2 12.5 -2h13.5q30 0 56 11t45 30.5t29.5 45.5t10.5 57q0 68 -67.5 117.5t-188.5 81.5l72 282h271l-3 -83
h-242l-34 -131v0z" />
    <glyph glyph-name="six" unicode="6" horiz-adv-x="511" 
d="M468 199q0 -50 -17 -90t-46.5 -68.5t-69.5 -44t-87 -15.5q-52 0 -91 21.5t-65.5 56t-39.5 79.5t-13 91q0 87 36.5 162t97 131.5t138.5 90.5t161 39l3 -32q-72 -10 -127.5 -36.5t-96.5 -65.5t-68 -86.5t-41 -99.5l1 -1q29 26 67.5 42t76.5 16q43 0 76.5 -15t57 -41
t35.5 -60.5t12 -73.5zM384 171q0 36 -10 66t-28 52t-42 34.5t-53 12.5q-35 0 -65 -15t-48 -33q-4 -4 -6.5 -22t-2.5 -37q0 -38 9.5 -75t27.5 -66t44.5 -47t60.5 -18q28 0 49 12.5t35.5 33.5t21.5 47.5t7 54.5z" />
    <glyph glyph-name="seven" unicode="7" horiz-adv-x="467" 
d="M134 -184h-55l300 571v5h-150h-75t-40.5 -2.5t-18 -7.5t-9.5 -15l-28 -60h-33l20 161h396l5 -46z" />
    <glyph glyph-name="eight" unicode="8" horiz-adv-x="498" 
d="M458 158q0 -35 -15 -66.5t-43 -55t-69 -37.5t-92 -14q-40 0 -76 12t-63.5 33.5t-43.5 51.5t-16 66q0 57 38.5 98t98.5 64v1q-24 13 -46 28.5t-38.5 34.5t-26 42.5t-9.5 53.5q0 29 12.5 59t37.5 54.5t61.5 40.5t85.5 16q36 0 68.5 -12t57 -33t38.5 -50t14 -64
q0 -49 -32 -85t-86 -60v-1q28 -14 54 -30.5t46 -37t32 -47.5t12 -62zM352 481q0 23 -8 45.5t-23 41.5t-37 30.5t-49 11.5q-24 0 -43 -8.5t-32.5 -23t-20.5 -33.5t-7 -40q0 -30 13 -52.5t34.5 -40.5t49 -32.5t56.5 -29.5q35 24 51 55.5t16 75.5zM384 124q0 35 -16 60.5
t-42 45t-58 35.5t-65 32q-36 -28 -59 -66t-23 -83q0 -27 10.5 -51t29 -41.5t44 -27.5t55.5 -10q60 0 92 31t32 75z" />
    <glyph glyph-name="nine" unicode="9" horiz-adv-x="511" 
d="M471 240q0 -87 -36.5 -162t-97 -131.5t-138.5 -90.5t-161 -39l-3 32q72 10 127.5 36.5t96.5 65.5t68 86.5t41 99.5l-1 1q-29 -26 -67.5 -42t-76.5 -16q-43 0 -76.5 15t-56.5 41t-35.5 60.5t-12.5 73.5q0 50 17 90t46.5 68.5t70 44t86.5 15.5q52 0 91 -21.5t65.5 -56
t39.5 -79t13 -91.5zM381 240q0 38 -9.5 75t-27.5 66t-44.5 47t-60.5 18q-28 0 -49 -12.5t-35.5 -33.5t-21.5 -47.5t-7 -54.5q0 -36 10 -66t28 -52t42.5 -34.5t52.5 -12.5q35 0 65 15t48 33q4 4 6.5 22t2.5 37z" />
    <glyph glyph-name="colon" unicode=":" horiz-adv-x="232" 
d="M184 358q0 -26 -18.5 -46.5t-47.5 -20.5t-48.5 20.5t-19.5 46.5t19.5 45.5t48.5 19.5t47.5 -19.5t18.5 -45.5zM184 52q0 -26 -18.5 -46.5t-47.5 -20.5t-48.5 20.5t-19.5 46.5t19.5 45.5t48.5 19.5t47.5 -19.5t18.5 -45.5z" />
    <glyph glyph-name="semicolon" unicode=";" horiz-adv-x="232" 
d="M184 358q0 -26 -18.5 -46.5t-47.5 -20.5t-48.5 20.5t-19.5 46.5t19.5 45.5t48.5 19.5t47.5 -19.5t18.5 -45.5zM203 23q0 -32 -13 -60t-33.5 -53t-46 -46.5t-50.5 -39.5l-26 16q15 10 30 24.5t27.5 32t20.5 36t8 38.5q0 22 -12.5 37.5t-27 26t-27 15.5t-12.5 6
q0 26 19 43.5t51 17.5q16 0 32 -7t29.5 -19.5t22 -29.5t8.5 -38z" />
    <glyph glyph-name="less" unicode="&#x3c;" horiz-adv-x="480" 
d="M28 222v26l402 189l13 -48l-327 -152v-3l327 -153l-13 -48z" />
    <glyph glyph-name="equal" unicode="=" horiz-adv-x="480" 
d="M44 295l-3 53h398l-3 -53h-392zM41 121l3 53h392l3 -53h-398z" />
    <glyph glyph-name="greater" unicode="&#x3e;" horiz-adv-x="480" 
d="M50 33l-13 48l327 153v3l-327 152l13 48l402 -189v-26z" />
    <glyph glyph-name="question" unicode="?" horiz-adv-x="363" 
d="M325 470q0 -31 -7.5 -52t-22 -35t-34.5 -24t-44 -20q-16 -6 -31 -12.5t-26.5 -14t-18.5 -18.5t-7 -26q0 -23 13 -42.5t33 -39.5h-30q-9 7 -20.5 18.5t-22 25.5t-18 31.5t-7.5 36.5q0 26 8.5 44t24 31t36.5 22.5t46 19.5q34 14 60 27.5t26 37.5q0 16 -11.5 30t-32 24.5
t-49 16.5t-61.5 6q-20 0 -37 -2.5t-30 -4.5q-11 14 -11 33q0 24 21.5 40t58.5 16q41 0 76 -14.5t61.5 -38t41.5 -54t15 -62.5zM214 45q0 -24 -16.5 -42t-42.5 -18t-43.5 18t-17.5 42q0 23 17.5 40.5t43.5 17.5t42.5 -17.5t16.5 -40.5z" />
    <glyph glyph-name="at" unicode="@" horiz-adv-x="834" 
d="M508 247h-14q-21 -40 -43 -76t-44 -62.5t-42.5 -42t-40.5 -15.5q-21 0 -39.5 9t-32.5 22.5t-22.5 30t-8.5 31.5q0 29 9.5 67t25 76t36.5 72.5t43 56.5q26 26 54 39t54 13q32 0 57 -18.5t36 -54.5h11l22 59h53l-58 -163l-18 -163q-5 -23 7 -37.5t45 -14.5q32 0 60 15
t49.5 42t35.5 65t17 85q5 67 -17 124t-64.5 99t-102 66.5t-128.5 26.5t-131.5 -23t-111 -70t-78.5 -106t-35 -130q-5 -79 18.5 -144.5t67 -112.5t103.5 -73t127 -26q32 0 63 5.5t60 13.5l11 -36q-36 -12 -67.5 -17.5t-68.5 -5.5q-76 0 -144 29t-117.5 81.5t-76 125.5
t-20.5 161q5 78 39 146.5t88.5 118t125.5 77.5t149 25t145.5 -30.5t115.5 -74.5t73 -111.5t20 -140.5q-4 -60 -25 -105t-51.5 -76t-68.5 -46.5t-77 -15.5q-44 0 -67 10t-31.5 24.5t-7.5 31t5 29.5zM513 353q-4 9 -13.5 20t-23 21.5t-29.5 17.5t-33 7q-24 0 -36 -12
q-13 -13 -27 -43.5t-25.5 -67t-18.5 -73.5t-7 -64q0 -14 5.5 -24.5t13 -17t16.5 -10t16 -3.5q10 0 27.5 19.5t38 49t41.5 65t39 66.5q8 14 12 30t4 19z" />
    <glyph glyph-name="A" unicode="A" horiz-adv-x="600" 
d="M344 0l3 35l49 8q14 3 20.5 7.5t7 16t-5 30.5t-15.5 50l-25 78h-206l-24 -77q-10 -28 -16 -47.5t-6 -31.5t6 -18t18 -8l40 -8l3 -35h-209l3 35l28 7q16 4 27.5 11.5t23.5 27.5t27.5 58.5t38.5 103.5l116 325v36l90 42l189 -576q3 -9 10.5 -15.5t21.5 -8.5l54 -11l3 -35
h-272zM282 536h-6l-90 -269h179z" />
    <glyph glyph-name="B" unicode="B" horiz-adv-x="582" 
d="M549 169q0 -83 -67.5 -126t-183.5 -43h-257l3 35l41 5q20 2 27.5 6.5t7.5 11.5v511q0 7 -6.5 10t-28.5 6l-41 5l-3 35h262q63 0 105 -11t67.5 -30t36.5 -44t11 -53q0 -30 -11.5 -56.5t-32 -47.5t-49.5 -35.5t-64 -20.5v-5q50 -4 84.5 -18.5t56.5 -35.5t32 -46.5t10 -52.5
zM419 460q0 57 -36 92t-115 35h-53v-247l67 1q38 1 64.5 12t42.5 28.5t23 38t7 40.5zM447 161q0 35 -13.5 61.5t-38 44t-58 26t-73.5 8.5h-49v-248l69 -15l24 1q26 1 51 9t44.5 23t31.5 37.5t12 52.5z" />
    <glyph glyph-name="C" unicode="C" horiz-adv-x="682" 
d="M598 0l-51 9q-28 -10 -69 -17t-83 -7q-73 0 -136.5 21t-111 62t-74.5 101t-27 137q0 79 27.5 141t75 104.5t112 65t137.5 22.5q45 0 82.5 -7t55.5 -13l80 15v-205h-46l-27 128q-30 18 -64.5 29t-85.5 11q-54 0 -98.5 -21t-76 -58t-49 -88t-17.5 -111q0 -65 17 -119
t49 -93t79.5 -60.5t108.5 -21.5q31 0 63.5 7.5t59.5 22.5l43 138h48z" />
    <glyph glyph-name="D" unicode="D" horiz-adv-x="687" 
d="M642 328q0 -67 -23.5 -126.5t-70.5 -104.5t-117.5 -71t-164.5 -26h-225l3 35l41 5q20 2 27.5 6.5t7.5 11.5v511q0 7 -6.5 10t-28.5 6l-41 5l-3 35l229 3q84 1 152.5 -21t117.5 -62.5t75.5 -96t26.5 -120.5zM539 302q0 64 -19 116.5t-56 90t-92 58t-127 20.5h-30v-533
l72 -15q61 0 108 20.5t79 55.5t48.5 83.5t16.5 103.5z" />
    <glyph glyph-name="E" unicode="E" horiz-adv-x="594" 
d="M531 0h-490l3 35l41 5q20 2 27.5 6.5t7.5 11.5v511q0 7 -6.5 10t-28.5 6l-41 5l-3 35h491v-186h-48l-24 97q-5 17 -12 27t-27.5 15t-60 6.5t-109.5 1.5h-36v-249h27q29 0 47 0.5t28.5 3t15 7t7.5 11.5l23 67h39l-21 -215h-38l-8 64q-1 7 -3.5 11.5t-12.5 7.5t-28.5 4
t-51.5 1h-24v-260h28q75 0 118 1.5t65.5 7t31 15.5t14.5 26l24 92h54z" />
    <glyph glyph-name="F" unicode="F" horiz-adv-x="564" 
d="M473 439l-22 97q-6 18 -13 28t-28 15t-60.5 6t-109.5 1h-25v-255h38q29 0 47 0.5t28.5 3t15.5 7t8 11.5l23 67h39l-22 -215h-37l-8 64q-1 7 -4 11.5t-13 7.5t-28.5 4t-50.5 1h-36v-237q0 -7 7 -10.5t28 -5.5l61 -5l3 -35h-273l3 35l41 5q20 2 27.5 6.5t7.5 11.5v511
q0 7 -6.5 10t-28.5 6l-41 5l-3 35h480v-186h-48z" />
    <glyph glyph-name="G" unicode="G" horiz-adv-x="716" 
d="M691 242l-43 -5q-20 -2 -27.5 -6.5t-7.5 -11.5v-150l60 -6l2 -27q-30 -10 -64.5 -19.5t-71.5 -16.5t-73.5 -11t-70.5 -4q-73 0 -137 21.5t-111 62.5t-74 100.5t-27 136.5q0 79 29.5 141t79 104.5t115 65t138.5 22.5q45 0 82 -7t54 -13l80 15v-205h-47l-27 128
q-29 18 -63.5 29t-86.5 11q-53 0 -98.5 -21t-78.5 -58t-52 -88t-19 -111q0 -65 16.5 -119t48 -93t77 -60.5t104.5 -21.5q34 0 66.5 7t55.5 18v171q0 8 -7 11t-28 5l-51 5l-3 35h263z" />
    <glyph glyph-name="H" unicode="H" horiz-adv-x="737" 
d="M443 0l3 35l41 5q20 2 27.5 6t7.5 12v241h-307v-243q0 -7 7 -10.5t28 -5.5l41 -5l3 -35h-253l3 35l41 5q20 2 27.5 6.5t7.5 11.5v511q0 7 -6.5 10t-28.5 6l-41 5l-3 35h253l-3 -35l-41 -5q-20 -2 -27.5 -6.5t-7.5 -11.5v-226h307v228q0 8 -7 11t-28 5l-41 5l-3 35h253
l-3 -35l-41 -5q-20 -2 -27.5 -6.5t-7.5 -11.5v-511q0 -7 6.5 -10t28.5 -6l41 -5l3 -35h-253z" />
    <glyph glyph-name="I" unicode="I" horiz-adv-x="360" 
d="M44 0l3 35l51 5q20 2 27.5 6.5t7.5 11.5v511q0 7 -6.5 10t-28.5 6l-51 5l-3 35h273l-3 -35l-51 -5q-20 -2 -27.5 -6.5t-7.5 -11.5v-511q0 -7 7 -10.5t28 -5.5l51 -5l3 -35h-273z" />
    <glyph glyph-name="J" unicode="J" horiz-adv-x="406" 
d="M381 590l-50 -5q-20 -2 -27.5 -6.5t-7.5 -11.5v-306q0 -137 -49 -206.5t-140 -69.5q-45 0 -73 18.5t-28 45.5q0 21 13.5 33.5t36.5 12.5q27 0 49 -21q17 -17 28 -54h1q16 5 28.5 15t21 33.5t13 65t4.5 108.5v327q0 8 -7 11t-28 5l-61 5l-3 35h282z" />
    <glyph glyph-name="K" unicode="K" horiz-adv-x="639" 
d="M401 0l3 35l34 7q8 2 6.5 10t-8.5 18l-161 235l-60 -57v-192q0 -7 7 -10.5t28 -5.5l41 -5l3 -35h-253l3 35l41 5q20 2 27.5 6.5t7.5 11.5v511q0 7 -6.5 10t-28.5 6l-41 5l-3 35h253l-3 -35l-41 -5q-20 -2 -27.5 -6.5t-7.5 -11.5v-263l184 179q28 27 42 45.5t16 30.5
t-5.5 18t-23.5 8l-41 5l-3 35h253l-3 -35l-34 -5q-23 -4 -44.5 -17.5t-57.5 -48.5l-159 -156l203 -279q10 -13 17 -21.5t13.5 -13t13.5 -6.5t17 -4l29 -4l3 -35h-234z" />
    <glyph glyph-name="L" unicode="L" horiz-adv-x="574" 
d="M516 0h-475l3 35l41 5q20 2 27.5 6.5t7.5 11.5v511q0 7 -6.5 10t-28.5 6l-41 5l-3 35h262l-3 -35l-50 -5q-20 -2 -27.5 -6.5t-7.5 -11.5v-528h31q68 0 107 1.5t60.5 7t30 15.5t13.5 26l29 111h52z" />
    <glyph glyph-name="M" unicode="M" horiz-adv-x="855" 
d="M559 0l3 35l56 7q8 1 12.5 10t7 31.5t2.5 60t-2 95.5l-12 323h-7l-194 -542h-48l-189 520h-12l-13 -297q-3 -68 -4.5 -108t0 -60t5.5 -26t11 -7l57 -7l3 -35h-217l3 35l56 7q8 1 13.5 7t10.5 26t9 59.5t8 108.5l13 246q2 43 -7.5 63.5t-32.5 26.5l-60 11l-3 35h228
l169 -468h5l164 468h221l-3 -35l-68 -6q-13 -2 -18.5 -10.5t-5.5 -18.5l12 -316q2 -61 4.5 -99.5t6.5 -59.5t9.5 -29t12.5 -9l56 -7l3 -35h-265z" />
    <glyph glyph-name="N" unicode="N" horiz-adv-x="752" 
d="M716 590l-47 -8q-15 -3 -24 -9t-13.5 -25.5t-6 -58.5t-1.5 -107v-391h-51l-395 539h-5v-287q0 -68 1.5 -107t6 -58.5t13 -25.5t23.5 -9l48 -8l3 -35h-229l3 35l47 8q15 3 24 9t13.5 25.5t6 58.5t1.5 107v246q0 43 -10 63.5t-33 30.5l-47 7l-3 35h181l357 -489h5v246
q0 68 -1 107t-5.5 58.5t-13.5 25.5t-24 9l-48 8l-3 35h230z" />
    <glyph glyph-name="O" unicode="O" horiz-adv-x="745" 
d="M699 315q0 -68 -25.5 -128t-70 -105t-104 -71.5t-128.5 -26.5t-128.5 23.5t-103 66t-68.5 102t-25 130.5q0 68 25.5 128.5t70 105.5t104 71.5t128.5 26.5t128.5 -23.5t103 -66.5t68.5 -102t25 -131zM593 304q0 69 -18 123.5t-48.5 93t-71 59t-85.5 20.5t-84.5 -18.5
t-69 -54.5t-47 -88.5t-17.5 -120.5q0 -69 18 -124t48.5 -93.5t70.5 -59t85 -20.5t84.5 19t69.5 55t47.5 88.5t17.5 120.5z" />
    <glyph glyph-name="P" unicode="P" horiz-adv-x="573" 
d="M542 458q0 -51 -19.5 -90t-53 -64.5t-78 -38.5t-94.5 -13q-21 0 -41.5 1t-40.5 3v-200q0 -7 7 -10.5t28 -5.5l60 -5l3 -35h-272l3 35l41 5q20 2 27.5 6.5t7.5 11.5v511q0 7 -6.5 10t-28.5 6l-41 5l-3 35h257q61 0 107 -13.5t76.5 -36t45.5 -53t15 -64.5zM440 438
q0 69 -39 108.5t-105 39.5h-81v-287q36 -9 76 -9q32 0 59.5 10t47.5 29t31 46.5t11 62.5z" />
    <glyph glyph-name="Q" unicode="Q" horiz-adv-x="745" 
d="M754 -160q-19 -7 -55.5 -13.5t-74.5 -6.5q-51 0 -91 9.5t-71.5 29t-56.5 50.5t-47 75q-67 2 -124 26t-99 66.5t-65.5 101t-23.5 128.5q0 68 25.5 128.5t70 105.5t104 71.5t128.5 26.5t128.5 -23.5t103 -66.5t68.5 -102t25 -131q0 -56 -17 -106.5t-48 -92.5t-73 -72.5
t-93 -45.5q26 -45 57 -72t66 -40.5t75 -15.5t85 3l3 -33v0zM593 304q0 69 -18 123.5t-48.5 93t-71 59t-85.5 20.5t-84.5 -18.5t-69 -54.5t-47 -88.5t-17.5 -120.5q0 -69 18 -124t48.5 -93.5t70.5 -59t85 -20.5t84.5 19t69.5 55t47.5 88.5t17.5 120.5z" />
    <glyph glyph-name="R" unicode="R" horiz-adv-x="605" 
d="M425 452q0 68 -36.5 102.5t-109.5 29.5h-16t-22 -1q-12 -1 -26 -1v-262l71 -6q63 5 101 38.5t38 99.5zM514 100q13 -18 22 -28.5t16 -16.5t13.5 -8.5t13.5 -4.5l31 -7l4 -35h-161l-38 69l-120 210l-80 -3v-220q0 -7 7 -10.5t28 -5.5l49 -5l3 -35h-261l3 35l41 5
q20 2 27.5 6.5t7.5 11.5v511q0 7 -6.5 10t-28.5 6l-41 5l-3 35h259q119 0 174 -42.5t55 -111.5q0 -65 -40 -108t-103 -65z" />
    <glyph glyph-name="S" unicode="S" horiz-adv-x="517" 
d="M472 171q0 -35 -15.5 -68.5t-45.5 -59t-73.5 -41.5t-99.5 -17q-53 -1 -95 7.5t-82 22.5l-14 178h42l45 -137q25 -12 59 -21t63 -8q32 0 56.5 10t41 26t24.5 35.5t8 40.5q0 33 -12.5 56t-33.5 39t-49 27.5t-59 23.5q-33 13 -64.5 27.5t-55.5 35.5t-38.5 49.5t-14.5 70.5
q0 31 12 61.5t37.5 54.5t64.5 39t94 16q42 1 69 -2.5t51 -8.5l52 14v-199h-42l-31 128q-28 12 -57.5 18t-55.5 6q-28 0 -49 -8t-34.5 -21.5t-20.5 -31t-7 -35.5q0 -31 12.5 -52t33.5 -36.5t48 -26.5t56 -23q35 -13 67.5 -28.5t57.5 -36.5t40 -51t15 -74z" />
    <glyph glyph-name="T" unicode="T" horiz-adv-x="619" 
d="M536 429l-23 97q-4 16 -10.5 27t-21.5 18t-43.5 10.5t-78.5 4.5h-2v-530q0 -7 7 -10.5t28 -5.5l60 -5l3 -35h-291l3 35l60 5q20 2 27.5 6.5t7.5 11.5v528h-2q-47 0 -75.5 -1.5t-45.5 -7t-24.5 -15t-12.5 -26.5l-28 -107h-50l17 196h543v-196h-48z" />
    <glyph glyph-name="U" unicode="U" horiz-adv-x="714" 
d="M687 590l-47 -8q-15 -3 -24 -9t-13.5 -25.5t-6 -58.5t-1.5 -107v-178q0 -101 -64 -160t-177 -59q-112 0 -175.5 55t-63.5 169v360q0 7 -6.5 10t-28.5 6l-41 5l-3 35h253l-3 -35l-41 -5q-20 -2 -27.5 -6.5t-7.5 -11.5v-336q0 -53 13.5 -89.5t37 -59t56.5 -32t72 -9.5
q78 0 122 46t44 127v168q0 68 -1 107t-5.5 58.5t-13.5 25.5t-24 9l-48 8l-3 35h230z" />
    <glyph glyph-name="V" unicode="V" horiz-adv-x="626" 
d="M640 590l-28 -7q-17 -4 -29 -11t-24 -27.5t-27 -58.5t-38 -104l-135 -383h-94l-193 556q-3 9 -10 15.5t-21 8.5l-55 11l-3 35h272l-3 -35l-49 -8q-13 -2 -18.5 -7t-5 -16t7 -30.5t16.5 -50.5l132 -400h11l104 304q21 63 30 101.5t7 61t-13.5 31t-30.5 11.5l-24 3l-3 35
h227z" />
    <glyph glyph-name="W" unicode="W" horiz-adv-x="925" 
d="M935 590l-22 -7q-16 -5 -27 -11.5t-22 -26t-25 -57.5t-37 -106l-125 -383h-60l-141 421h-3l-151 -421h-61l-188 556q-3 9 -10 15.5t-21 8.5l-55 11l-3 35h273l-3 -35l-50 -8q-13 -2 -18.5 -7t-4.5 -16.5t7 -30.5t16 -50l112 -352h5l130 355l-25 74q-3 9 -10 15.5t-22 8.5
l-52 11l-3 35h269l-3 -35l-52 -8q-11 -2 -16 -7.5t-4.5 -17t5.5 -31t15 -48.5l113 -353l5 1l80 256q21 67 30.5 105t9 58t-11 26.5t-28.5 10.5l-40 8l-3 35h230z" />
    <glyph glyph-name="X" unicode="X" horiz-adv-x="627" 
d="M366 0l3 35l41 6q16 2 21 8.5t1 18.5t-16 31.5t-31 47.5l-87 132h-5l-107 -164q-26 -35 -24.5 -52t26.5 -22l33 -6l3 -35h-221l3 35l36 8q24 5 41 21.5t41 48.5l145 199l-170 243q-6 8 -16.5 15t-18.5 9l-48 11l-3 35h262l-3 -35l-39 -6q-17 -3 -22.5 -9t-1.5 -18.5
t16 -31.5t30 -48l71 -107h5l92 140q23 35 22.5 52t-24.5 22l-34 6l-3 35h219l-3 -35l-35 -8q-24 -5 -42.5 -21.5t-41.5 -48.5l-125 -175l187 -267q6 -8 16 -15t19 -9l47 -11l3 -35h-262z" />
    <glyph glyph-name="Y" unicode="Y" horiz-adv-x="602" 
d="M603 590l-14 -4q-26 -8 -47 -22t-46 -52l-141 -238v-218q0 -7 7 -10.5t28 -5.5l60 -5l3 -35h-292l3 35l61 5q20 2 27.5 6.5t7.5 11.5v202l-180 286q-8 11 -21.5 21.5t-31.5 14.5l-32 8l-3 35h256l-3 -35l-40 -6q-23 -4 -19.5 -27t37.5 -79l100 -165h5l112 197
q23 36 20 53t-29 22l-24 5l-3 35h202z" />
    <glyph glyph-name="Z" unicode="Z" horiz-adv-x="571" 
d="M529 0h-490v36l390 545v5h-116q-62 0 -97.5 -3.5t-54 -11.5t-26.5 -21.5t-15 -33.5l-20 -83h-43v192h482v-37l-389 -545l-1 -5l121 1q66 0 104 3t58 10t28.5 18.5t14.5 29.5l24 88h51z" />
    <glyph glyph-name="bracketleft" unicode="[" horiz-adv-x="368" 
d="M94 -222v873h254v-44h-203v-785h203v-44h-254z" />
    <glyph glyph-name="backslash" unicode="\" horiz-adv-x="279" 
d="M223 -212l-215 877h48l215 -877h-48z" />
    <glyph glyph-name="bracketright" unicode="]" horiz-adv-x="368" 
d="M20 -178h203v785h-203v44h254v-873h-254v44z" />
    <glyph glyph-name="asciicircum" unicode="^" 
d="M300 510l-99 108h-2l-99 -108h-27l106 187h42l106 -187h-27z" />
    <glyph glyph-name="underscore" unicode="_" horiz-adv-x="470" 
d="M-9 -53l3 53h482l3 -53h-488z" />
    <glyph glyph-name="grave" unicode="`" 
d="M226 510l-169 187h98l93 -187h-22z" />
    <glyph glyph-name="a" unicode="a" horiz-adv-x="448" 
d="M448 51q-23 -30 -47.5 -48.5t-50.5 -18.5q-29 0 -47 17.5t-20 55.5h-5q-26 -29 -56 -50.5t-68 -21.5q-24 0 -45.5 9t-38 24.5t-26.5 37t-10 46.5q0 62 61 101t189 69v9q0 42 -7 68.5t-19.5 41.5t-30.5 20.5t-40 5.5q-12 0 -25.5 -2.5t-24 -6t-17.5 -7.5t-7 -7
q0 -2 3.5 -6t8 -10.5t8 -15t3.5 -18.5q0 -19 -14 -33.5t-39 -14.5q-23 0 -37.5 13.5t-14.5 33.5q0 18 18.5 39.5t47 39.5t61.5 30t63 12q44 0 73.5 -10t46 -34t22.5 -63.5t3 -98.5l-7 -170q-2 -39 23 -39q11 0 22 6t27 18l17 -22v0zM282 239q-49 -12 -81 -26t-50.5 -28.5
t-25.5 -30t-7 -31.5q0 -35 21.5 -55t50.5 -20q41 0 87 42z" />
    <glyph glyph-name="b" unicode="b" horiz-adv-x="515" 
d="M483 241q0 -48 -15.5 -94t-45.5 -82t-73.5 -58t-99.5 -22q-9 0 -24 2t-31.5 5t-32 7t-25.5 8h-1l-48 -28h-12v599q0 19 -11 23l-67 28l3 25l157 43v-315h5q29 33 67 53.5t76 20.5q42 0 75 -17t56 -46t35 -68.5t12 -83.5zM394 204q0 85 -34.5 133.5t-89.5 48.5
q-36 0 -65 -18t-48 -41v-240q21 -23 49 -42t65 -19q24 0 46 12.5t39.5 36t27.5 56.5t10 73z" />
    <glyph glyph-name="c" unicode="c" horiz-adv-x="440" 
d="M415 99q-28 -55 -75 -84.5t-107 -29.5q-44 0 -81 17.5t-63.5 47.5t-41.5 71t-15 88q0 56 19.5 102.5t52 80.5t75.5 52.5t90 18.5q35 0 61.5 -8t44.5 -21.5t27 -31t9 -35.5q0 -16 -5.5 -26.5t-13.5 -16.5t-18 -8.5t-19 -2.5q-29 0 -45 27.5t-8 65.5v2q-22 16 -55 16
q-27 0 -50.5 -11.5t-41 -33t-27.5 -53t-10 -71.5q0 -42 11.5 -78.5t32.5 -63t49.5 -41.5t61.5 -15q32 0 64 12t58 41l20 -11v0z" />
    <glyph glyph-name="d" unicode="d" horiz-adv-x="525" 
d="M515 3l-157 -18v69h-3q-26 -30 -62 -49t-75 -19q-40 0 -74 17t-59 47t-39 71t-14 89q0 49 17 94t48.5 79t76.5 54.5t101 20.5q18 0 40 -4t42 -10h1v160q0 19 -11 23l-71 21l4 25l160 24v-626q0 -19 11 -23l67 -20zM358 351q-20 23 -48 43.5t-66 20.5q-27 0 -49.5 -12.5
t-39 -35t-25.5 -54t-9 -70.5q0 -87 37.5 -137.5t100.5 -50.5q31 0 55 11t44 29v256z" />
    <glyph glyph-name="e" unicode="e" horiz-adv-x="461" 
d="M415 99q-28 -55 -75 -84.5t-107 -29.5q-44 0 -81 17.5t-63.5 47.5t-41.5 71t-15 88q0 56 18.5 102.5t50 80.5t74 52.5t90.5 18.5q72 0 114 -41t42 -109q0 -12 -1.5 -27t-4.5 -27l-297 4v-11q0 -43 11.5 -79t32.5 -61.5t49.5 -40t61.5 -14.5q32 0 64 12t58 41l20 -11v0z
M329 295q4 61 -20 96t-66 35q-20 0 -40 -8.5t-36.5 -25.5t-28.5 -41t-17 -56h208v0z" />
    <glyph glyph-name="f" unicode="f" horiz-adv-x="321" 
d="M393 634q0 -25 -14 -37t-34 -12q-21 0 -40 16.5t-27 49.5l-1 4l-29 2q-35 -20 -53.5 -62.5t-18.5 -109.5v-37h137l-7 -50h-130v-342q0 -8 7 -12t31 -6l54 -3l3 -35h-242l3 35l28 3q34 3 34 19v338l-82 5l6 48h71l1 21q3 53 21.5 95t48 71.5t66.5 45.5t76 16
q38 0 64.5 -18t26.5 -45z" />
    <glyph glyph-name="g" unicode="g" horiz-adv-x="470" 
d="M366 392v-6q12 -16 20 -35t8 -48q0 -33 -14 -62t-38 -51t-56 -34.5t-69 -12.5q-15 0 -31.5 2t-28.5 5q-6 -3 -13 -7.5t-14 -11t-11.5 -13.5t-4.5 -15q0 -20 18.5 -33.5t45.5 -13.5q33 0 63.5 1.5t54.5 1.5q31 0 57.5 -10.5t46 -28.5t31 -42.5t11.5 -52.5q0 -40 -19 -73
t-53.5 -57t-81.5 -37t-104 -13q-79 0 -126.5 32t-47.5 85q0 24 8 42t21.5 32t31 24.5t36.5 18.5v4q-30 5 -49 27.5t-19 47.5q0 30 23.5 56t58.5 42q0 2 2 4q1 1 2 1q-38 18 -61.5 52t-23.5 86q0 35 13.5 65t37.5 52t57 34.5t71 12.5q36 0 64.5 -7.5t55.5 -20.5h136v-62z
M311 300q0 33 -8.5 60t-25.5 44q-25 25 -58 25q-42 0 -68 -31.5t-26 -82.5q0 -38 11 -67.5t30 -48.5q22 -22 51 -22q41 0 63 22q31 30 31 101zM366 -113q0 38 -23 63t-82 27q-29 1 -55 -0.5t-59 -1.5q-7 -3 -17 -10t-19.5 -18t-16.5 -25.5t-7 -32.5q0 -49 40 -77.5
t103 -28.5q62 0 99 29.5t37 74.5z" />
    <glyph glyph-name="h" unicode="h" horiz-adv-x="531" 
d="M305 0l3 35l26 3q22 2 28 6.5t6 12.5v209q0 37 -6 61.5t-17.5 39.5t-28.5 21t-40 6q-32 0 -61.5 -13.5t-49.5 -28.5v-123v-173q0 -8 7 -12t31 -6l34 -3l3 -35h-222l3 35l28 3q34 3 34 19v521q0 19 -11 23l-67 28l3 25l157 43v-305h5q38 32 78.5 51.5t81.5 19.5
q22 0 44 -7.5t38 -23.5q20 -20 29 -48t9 -64v-263q0 -7 7 -11.5t34 -7.5l26 -3l3 -35h-215z" />
    <glyph glyph-name="i" unicode="i" horiz-adv-x="272" 
d="M180 608q0 -23 -13 -41t-41 -18t-41 18t-13 41t13 41t41 18t41 -18t13 -41zM30 0l3 35l28 3q34 3 34 19v253q0 24 -1.5 38t-6.5 22.5t-13 13t-22 7.5l-24 6l1 27l148 39v-407q0 -8 7 -12t31 -6l29 -3l3 -35h-217z" />
    <glyph glyph-name="j" unicode="j" horiz-adv-x="257" 
d="M177 608q0 -23 -13 -41t-41 -18t-41 18t-13 41t13 41t41 18t41 -18t13 -41zM174 -24q-4 -57 -21.5 -101t-42 -74.5t-52.5 -46t-52 -15.5q-30 0 -51.5 15t-21.5 45q0 22 16.5 36t36.5 14q26 0 43 -15t28 -41q9 4 16 15.5t11 27.5t6 36t2 41v397q0 24 -1.5 38t-6.5 22.5
t-13 13t-22 7.5l-24 6l1 27l148 39v-487v0z" />
    <glyph glyph-name="k" unicode="k" horiz-adv-x="492" 
d="M342 0l-54 90l-83 125l-40 -37v-122q0 -8 7 -11.5t31 -6.5l24 -3l3 -35h-212l3 35l28 3q18 2 26 6t8 13v521q0 19 -11 23l-67 28l3 25l157 43v-468l69 64q32 30 55.5 53.5t23.5 39.5q0 14 -11 19t-28 7l-15 2l-3 34h216l-3 -34l-15 -3q-13 -2 -26.5 -7.5t-29 -16.5
t-36 -29t-49.5 -44l-49 -45l134 -186q14 -20 25.5 -31t25.5 -13l33 -4l3 -35h-143z" />
    <glyph glyph-name="l" unicode="l" horiz-adv-x="272" 
d="M30 0l3 35l28 3q34 3 34 19v521q0 19 -11 23l-67 28l3 25l157 43v-641q0 -8 7 -12t31 -6l29 -3l3 -35h-217z" />
    <glyph glyph-name="m" unicode="m" horiz-adv-x="812" 
d="M582 0l3 35l26 3q22 2 28 6.5t6 12.5v209q0 37 -7 61.5t-19.5 39.5t-29 21t-36.5 6q-27 0 -54 -14t-48 -32q1 -7 1 -13.5v-14.5v-263q0 -7 7 -11.5t34 -7.5l26 -3l3 -35h-215l3 35l26 3q22 2 28 6.5t6 12.5v209q0 37 -7 61.5t-19.5 39.5t-29 21t-36.5 6q-27 0 -54 -13.5
t-47 -28.5v-123v-173q0 -8 7 -12t31 -6l34 -3l3 -35h-222l3 35l28 3q34 3 34 19v253q0 24 -1.5 38t-6.5 22.5t-13 13t-22 7.5l-24 6l1 27l148 39v-71h3q37 32 75.5 51.5t76.5 19.5q22 0 44 -7.5t38 -23.5q20 -20 29 -47h4q38 35 78.5 56.5t81.5 21.5q22 0 44 -7.5t38 -23.5
q20 -20 29 -48t9 -64v-263q0 -7 7 -11.5t34 -7.5l26 -3l3 -35h-215z" />
    <glyph glyph-name="n" unicode="n" horiz-adv-x="547" 
d="M317 0l3 35l26 3q22 2 28 6.5t6 12.5v209q0 37 -6 61.5t-17.5 39.5t-28.5 21t-40 6q-32 0 -61.5 -13.5t-49.5 -28.5v-123v-173q0 -8 7 -12t31 -6l34 -3l3 -35h-222l3 35l28 3q34 3 34 19v253q0 24 -1.5 38t-6.5 22.5t-13 13t-22 7.5l-24 6l1 27l148 39v-71h5
q38 32 78.5 51.5t81.5 19.5q22 0 44 -7.5t38 -23.5q20 -20 29 -48t9 -64v-263q0 -7 7 -11.5t34 -7.5l26 -3l3 -35h-215z" />
    <glyph glyph-name="o" unicode="o" horiz-adv-x="518" 
d="M486 237q0 -52 -18 -97.5t-49.5 -80t-74.5 -54.5t-94 -20q-50 0 -90.5 18.5t-69 50.5t-43.5 75.5t-15 92.5q0 50 18.5 94t50.5 76.5t75.5 51.5t92.5 19t89 -17.5t68.5 -48t44 -71.5t15.5 -89zM395 195q0 58 -12.5 109t-40.5 80q-11 11 -32.5 24.5t-54.5 13.5
q-28 0 -52 -11.5t-42 -33t-28 -53t-10 -71.5q0 -58 13 -109t41 -80q11 -11 32 -24.5t55 -13.5q27 0 50.5 11.5t41.5 33t28.5 53t10.5 71.5z" />
    <glyph glyph-name="p" unicode="p" horiz-adv-x="525" 
d="M493 241q0 -48 -15.5 -94t-45 -82t-73 -58t-99.5 -22q-18 0 -45 4t-47 10h-1v-189q0 -8 7 -12t31 -6l39 -3l3 -35h-227l3 35l28 3q34 3 34 19v499q0 24 -1.5 38t-6.5 22.5t-13 13t-22 7.5l-24 6l1 27l148 39v-81h5q29 33 67 53.5t76 20.5q42 0 75 -17t56 -46t35 -68.5
t12 -83.5zM404 204q0 85 -34.5 133.5t-89.5 48.5q-36 0 -65 -18t-48 -41v-240q21 -23 49 -42t65 -19q24 0 46 12.5t39.5 36t27.5 56.5t10 73z" />
    <glyph glyph-name="q" unicode="q" horiz-adv-x="514" 
d="M283 -246l3 35l38 3q22 2 28 6.5t6 12.5v243h-3q-26 -30 -62 -49t-75 -19q-40 0 -74 17t-59 47t-39 71t-14 89q0 49 17 94t48.5 79t76.5 54.5t101 20.5q23 0 53.5 -7t50.5 -15h1l48 28h12v-653q0 -7 7 -11.5t34 -7.5l26 -3l3 -35h-227zM358 351q-20 23 -48 43.5t-66 20.5
q-27 0 -49.5 -12.5t-39 -35t-25.5 -54t-9 -70.5q0 -87 37.5 -137.5t100.5 -50.5q31 0 55 11t44 29v256z" />
    <glyph glyph-name="r" unicode="r" horiz-adv-x="385" 
d="M378 407q0 -23 -13 -39.5t-39 -16.5q-16 0 -29.5 10t-21.5 23q-22 -13 -50 -40t-48 -67v-221q0 -8 7 -12t31 -6l39 -3l3 -35h-227l3 35l28 3q34 3 34 19v253q0 24 -1.5 38t-6.5 22.5t-13 13t-22 7.5l-24 6l1 27l148 39v-128h5q41 68 71 98t65 30q29 0 44.5 -16t15.5 -40z
" />
    <glyph glyph-name="s" unicode="s" horiz-adv-x="406" 
d="M365 130q0 -28 -11.5 -54t-34 -46.5t-55 -32.5t-74.5 -12q-79 0 -135 21l-6 132h50l23 -88q17 -12 37.5 -20t42.5 -8q15 0 31 5.5t29.5 16t22 25t8.5 33.5q0 18 -9 30.5t-24.5 22.5t-35.5 18.5t-41 16.5q-25 10 -48.5 21t-42 27t-30 38.5t-11.5 54.5q0 25 10.5 49
t30.5 43t50 30.5t69 11.5q36 0 59 -5t41 -12l31 13l6 -142h-49l-20 83q-16 12 -37 18.5t-39 6.5q-33 0 -56 -18.5t-23 -47.5q0 -34 28 -51.5t79 -37.5q24 -10 48 -21.5t43 -27.5t31 -38.5t12 -54.5z" />
    <glyph glyph-name="t" unicode="t" horiz-adv-x="356" 
d="M338 50q-27 -30 -64.5 -47.5t-72.5 -17.5q-25 0 -46.5 7.5t-38 24.5t-25.5 44t-8 65l7 269l-81 5l1 30l65 54l65 55l32 -6l-1 -85h164l-7 -50h-156l-8 -250q-2 -55 22 -76.5t64 -21.5q20 0 41.5 7t41.5 18l5 -25v0z" />
    <glyph glyph-name="u" unicode="u" horiz-adv-x="529" 
d="M519 3l-157 -18v71h-5q-38 -32 -78.5 -51.5t-81.5 -19.5q-22 0 -44 7.5t-38 23.5q-20 20 -29 48t-9 64l3 263q0 7 -2 10t-6.5 4.5t-13 2t-22.5 2.5l-24 3l-3 35h158l-8 -266q0 -73 23.5 -100.5t68.5 -27.5q32 0 61.5 13.5t49.5 28.5v174v122q0 8 -7 12t-31 6l-39 3l-4 35
h163v-377q0 -19 11 -23l67 -20z" />
    <glyph glyph-name="v" unicode="v" horiz-adv-x="468" 
d="M482 414l-25 -7q-11 -1 -19 -5t-14.5 -12t-13 -21.5t-15.5 -35.5l-132 -342h-51l-154 377q-9 21 -18.5 27.5t-33.5 10.5l-23 6l-4 36h225l-3 -35l-28 -4q-16 -2 -23 -10t0 -26l111 -283l91 250q13 35 10.5 49.5t-29.5 17.5l-28 7l-3 34h183z" />
    <glyph glyph-name="w" unicode="w" horiz-adv-x="696" 
d="M709 414l-21 -5q-13 -2 -22 -5.5t-15.5 -11.5t-12.5 -22t-14 -37l-111 -342h-48l-111 290l-116 -290h-48l-134 377q-8 21 -17 29t-29 11l-22 4l-3 36h212l-3 -35l-23 -4q-17 -2 -24 -11.5t-1 -26.5l95 -275l91 238l-12 34q-8 21 -18 28t-33 11l-23 6l-3 35h216l-3 -34
l-23 -5q-17 -2 -24 -11.5t-1 -26.5l99 -278l73 240q11 38 6.5 55t-36.5 22l-20 4l-3 34h185z" />
    <glyph glyph-name="x" unicode="x" horiz-adv-x="481" 
d="M266 0l3 34l20 6q23 5 24 16.5t-21 41.5l-66 92h-1l-69 -92q-24 -32 -24.5 -44t25.5 -15l26 -5l3 -34h-192l3 34l29 6q11 2 20 5.5t18 11t20 19.5t26 30l92 112l-94 124q-14 18 -24 30t-19 19t-18 10.5t-20 5.5l-22 6l-3 35h218l-3 -34l-20 -6q-23 -4 -22.5 -16t23.5 -42
l54 -76h1l57 76q23 30 24 43t-25 16l-26 5l-3 34h195l-3 -34l-29 -6q-13 -1 -22.5 -5t-18.5 -11.5t-20 -19.5t-26 -30l-79 -96l104 -140q14 -18 24 -30t19 -19t17 -10.5t18 -5.5l20 -6l3 -35h-216z" />
    <glyph glyph-name="y" unicode="y" horiz-adv-x="459" 
d="M481 414l-26 -7q-11 -1 -18.5 -5t-14.5 -12t-13.5 -21.5t-15.5 -35.5l-117 -308l-50 -153q-22 -66 -46.5 -99.5t-68.5 -33.5q-32 0 -49.5 15.5t-17.5 39.5q0 22 11.5 37.5t37.5 15.5q23 0 37 -9.5t22 -22.5q11 6 19.5 21t19.5 45l42 117v2l-178 368q-5 10 -9 16.5
t-9 10.5t-13 6.5t-20 4.5l-21 6l-4 36h220l-3 -35l-25 -4q-16 -2 -23 -10t1 -26l120 -265l82 232q12 35 7.5 49.5t-32.5 17.5l-27 7l-3 34h188z" />
    <glyph glyph-name="z" unicode="z" horiz-adv-x="464" 
d="M133 37h40q51 0 84 2.5t53 9t32 19t21 31.5l35 72h48l-41 -171h-375v33l284 378h-25q-51 0 -83 -2t-50.5 -9t-27 -19t-12.5 -32l-19 -72h-50v171h368v-33z" />
    <glyph glyph-name="braceleft" unicode="{" horiz-adv-x="336" 
d="M302 -235q-93 5 -144 44t-51 107q0 32 9 56.5t20.5 46t20.5 43t9 47.5q0 21 -11.5 35.5t-30 23.5t-42 13t-47.5 5l-11 29l11 28q24 1 47.5 5t42 12.5t30 23t11.5 36.5q0 26 -9 47.5t-20.5 43.5t-20.5 46.5t-9 56.5q0 68 51 107t144 44v-35q-59 -5 -91 -31.5t-32 -61.5
q0 -26 9 -47.5t20.5 -43.5t20.5 -47t9 -57q0 -25 -12.5 -47.5t-31.5 -39t-41.5 -26t-42.5 -9.5v-12q20 -1 42.5 -10.5t41.5 -26t31.5 -38t12.5 -47.5q0 -31 -9 -55.5t-20.5 -46.5t-20.5 -43.5t-9 -46.5q0 -35 32 -63t91 -33v-33v0z" />
    <glyph glyph-name="bar" unicode="|" horiz-adv-x="276" 
d="M115 690h46v-877h-46v877z" />
    <glyph glyph-name="braceright" unicode="}" horiz-adv-x="336" 
d="M301 186q-24 -1 -47.5 -5t-42 -13t-30 -23.5t-11.5 -35.5q0 -26 9 -47.5t20.5 -43t20.5 -46t9 -56.5q0 -68 -51 -107t-144 -44v33q59 5 91 33t32 63q0 25 -9 46.5t-20.5 43.5t-20.5 46.5t-9 55.5q0 26 12.5 47.5t31.5 38t41.5 26t42.5 10.5v12q-20 0 -42.5 9.5t-41.5 26
t-31.5 39t-12.5 47.5q0 32 9 57t20.5 47t20.5 43.5t9 47.5q0 35 -32 61.5t-91 31.5v35q93 -5 144 -44t51 -107q0 -32 -9 -56.5t-20.5 -46.5t-20.5 -43.5t-9 -47.5q0 -22 11.5 -36.5t30 -23t42 -12.5t47.5 -5l11 -28z" />
    <glyph glyph-name="asciitilde" unicode="~" 
d="M364 289q-10 -60 -33 -91.5t-65 -31.5q-24 0 -46 11.5t-41 25t-35.5 25t-30.5 11.5t-25 -13.5t-26 -51.5h-26q10 60 33 91.5t65 31.5q24 0 45.5 -11.5t40.5 -25t35.5 -25t31.5 -11.5q14 0 25 13.5t26 51.5h26v0z" />
    <glyph glyph-name="exclamdown" unicode="&#xa1;" horiz-adv-x="284" 
d="M202 579q0 -23 -16.5 -40.5t-42.5 -17.5t-43.5 17.5t-17.5 40.5q0 24 17.5 42t43.5 18t42.5 -18t16.5 -42zM195 28q2 -20 -7.5 -31.5t-43.5 -11.5h-2q-34 0 -43.5 11.5t-7.5 31.5l42 400q1 6 10 6t10 -6l42 -400v0z" />
    <glyph glyph-name="cent" unicode="&#xa2;" horiz-adv-x="444" 
d="M182 -166h-39l43 159q-35 10 -63.5 31.5t-48.5 51.5t-31 66.5t-11 76.5q0 56 19.5 101t52 77t75.5 49t90 17q25 0 42 -4l47 176h39l-50 -186q32 -14 48 -36t16 -46t-14.5 -36.5t-28.5 -12.5q-17 0 -29 5t-21 19l-3 -12t-8.5 -31.5t-12 -45t-13.5 -51.5l-38 -140
q18 -5 36 -5q28 0 59.5 12t57.5 41l20 -11q-28 -55 -74.5 -84.5t-102.5 -29.5h-8t-8 1zM297 408q-22 13 -50 13q-27 0 -50.5 -11t-41 -32t-27.5 -52t-10 -71q0 -62 24 -109.5t66 -70.5z" />
    <glyph glyph-name="sterling" unicode="&#xa3;" horiz-adv-x="477" 
d="M136 299q-1 29 -2 54t-1 43q0 54 14.5 97.5t41.5 74t64.5 46.5t83.5 16q51 0 79 -21t28 -56q0 -22 -15 -37t-36 -15q-28 0 -43 21t-10 55q-8 5 -19 8.5t-25 3.5q-17 0 -31.5 -7t-25.5 -24.5t-17.5 -47.5t-6.5 -75q0 -21 1.5 -57t2.5 -79h160l3 -41h-162q1 -11 1 -22v-22
q0 -35 -10.5 -69.5t-25.5 -58.5v-5q15 -3 33 -8.5t37.5 -11t39 -9.5t36.5 -4q36 0 55 19q14 14 24.5 33.5t21.5 42.5l22 -6q2 -28 -4.5 -56.5t-21.5 -52t-39.5 -38t-59.5 -14.5q-28 0 -51 8.5t-43 21.5t-37 27.5t-33 26.5q-26 -32 -64 -54.5t-84 -32.5l-12 39q39 12 65 29
t41 39t21.5 49t6.5 60q0 17 -0.5 34.5t-0.5 34.5h-107l3 41h102v0z" />
    <glyph glyph-name="currency" unicode="&#xa4;" horiz-adv-x="524" 
d="M507 109q-28 -55 -73 -89.5t-114 -34.5q-44 0 -82 16.5t-67.5 46.5t-49.5 72t-29 93h-67l3 41h58q-1 10 -1 19.5v19.5q0 11 0.5 21t1.5 21h-62l3 41h64q11 56 34.5 102.5t57.5 80t77 52t92 18.5q31 0 58.5 -6.5t48.5 -17.5t33 -26.5t12 -32.5q0 -22 -13.5 -36t-35.5 -14
q-14 0 -25 6.5t-19 17t-13 23.5t-8 26q-14 9 -26.5 12.5t-29.5 3.5q-68 0 -109 -56.5t-52 -152.5h199l3 -41h-205v-22q0 -32 3 -59h199l3 -41h-195q18 -81 63 -121.5t106 -40.5q42 0 76.5 20t60.5 49l20 -11v0z" />
    <glyph glyph-name="yen" unicode="&#xa5;" horiz-adv-x="612" 
d="M596 590l-13 -4q-26 -8 -47 -22t-44 -52l-118 -207h162l3 -41h-182v-81h179l3 -41h-182v-72q0 -20 23 -24l74 -11l3 -35h-289l3 35l74 11q23 4 23 24v72h-175l3 41h172v81h-175l3 41h154l-153 241q-7 11 -21 21.5t-32 14.5l-33 8l-3 35h251l-3 -35l-41 -6q-24 -4 -20 -27
t39 -79l94 -157h5l104 189q20 36 17 53t-28 22l-23 5l-3 35h199z" />
    <glyph glyph-name="section" unicode="&#xa7;" horiz-adv-x="421" 
d="M395 260q0 -42 -25 -73.5t-58 -48.5q24 -34 24 -72q0 -25 -12.5 -48.5t-34 -42t-51 -29.5t-63.5 -11q-19 0 -38 4.5t-35 14t-26 23.5t-10 32q0 23 14.5 36.5t34.5 13.5q50 0 67 -77q10 -4 18.5 -5t16.5 -1q58 0 58 67q0 18 -10 34.5t-26.5 32t-37.5 30t-43 28.5
q-24 15 -48 31t-42.5 34t-30.5 40t-12 50q0 41 24.5 72.5t57.5 47.5q-24 36 -24 73q0 21 12 43t33 40t49 29t59 11q19 0 38.5 -4.5t35 -14t25.5 -23.5t10 -32q0 -23 -14.5 -36.5t-34.5 -13.5q-50 0 -67 77q-15 6 -28 6q-24 0 -40.5 -15t-16.5 -45q0 -18 10 -34t26.5 -31
t38 -29.5t43.5 -28.5q24 -15 48 -31t42.5 -34t30.5 -40t12 -50zM337 223q0 36 -27 61.5t-63 50.5q-31 22 -65 42t-58 47q-16 -10 -29 -28t-13 -37q0 -36 27 -61t63 -50q31 -21 65 -42t59 -48q23 14 32 30t9 35z" />
    <glyph glyph-name="dieresis" unicode="&#xa8;" 
d="M359 607q0 -25 -15.5 -44t-43.5 -19t-43.5 19t-15.5 44t15.5 44t43.5 19t43.5 -19t15.5 -44zM159 607q0 -25 -15.5 -44t-43.5 -19t-43.5 19t-15.5 44t15.5 44t43.5 19t43.5 -19t15.5 -44z" />
    <glyph glyph-name="copyright" unicode="&#xa9;" horiz-adv-x="734" 
d="M694 312q0 -68 -25.5 -127.5t-70 -104t-104 -70t-127.5 -25.5t-127.5 25.5t-104 70t-70 104t-25.5 127.5t25.5 127.5t70 104t104 70.5t127.5 26t127.5 -26t104 -70.5t70 -104t25.5 -127.5zM656 312q0 60 -22.5 113.5t-62 93.5t-92 63.5t-112.5 23.5t-112.5 -23.5
t-92 -63.5t-62 -93.5t-22.5 -113.5t22.5 -113.5t62 -93t92 -63t112.5 -23.5t112.5 23.5t92 63t62 93t22.5 113.5zM496 137l-30 6q-18 -7 -42 -11t-44 -4q-46 0 -81 14t-59 38t-36 56.5t-12 70.5q0 41 13.5 76t38 60t58.5 39t74 14q25 0 45.5 -3.5t34.5 -8.5l46 12v-131h-27
l-23 73q-28 22 -81 22q-49 0 -82.5 -36t-33.5 -98q0 -72 34.5 -117.5t100.5 -45.5q15 0 30 4t26 12l34 79h28z" />
    <glyph glyph-name="ordfeminine" unicode="&#xaa;" horiz-adv-x="347" 
d="M346 326q-12 -17 -33.5 -28.5t-44.5 -11.5q-26 0 -39 14.5t-16 39.5h-2q-25 -23 -52.5 -38.5t-50.5 -15.5q-16 0 -31 5.5t-27 15.5t-19 24.5t-7 33.5q0 48 49 77.5t142 47.5l1 27q2 19 -4.5 34.5t-18 27t-27 17.5t-31.5 6q-17 0 -30.5 -8t-13.5 -13q0 -2 6.5 -11.5
t6.5 -22.5q0 -14 -10.5 -24t-28.5 -10t-29.5 11t-11.5 28q0 16 15 31.5t38.5 28t51.5 20t54 7.5q53 0 80 -30t25 -70l-6 -163q-1 -21 5 -30.5t23 -9.5t33 10l3 -20v0zM214 465q-51 -11 -84.5 -28.5t-33.5 -45.5q0 -23 13.5 -37.5t36.5 -14.5q14 0 33.5 9.5t31.5 20.5z" />
    <glyph glyph-name="guillemotleft" unicode="&#xab;" horiz-adv-x="490" 
d="M445 46l-217 152v46l217 152l10 -20l-153 -155l153 -155zM255 56l-217 142v46l217 142l10 -20l-143 -145l143 -145z" />
    <glyph glyph-name="logicalnot" unicode="&#xac;" horiz-adv-x="448" 
d="M448 51q-23 -30 -47.5 -48.5t-50.5 -18.5q-29 0 -47 17.5t-20 55.5h-5q-26 -29 -56 -50.5t-68 -21.5q-24 0 -45.5 9t-38 24.5t-26.5 37t-10 46.5q0 62 61 101t189 69v9q0 42 -7 68.5t-19.5 41.5t-30.5 20.5t-40 5.5q-12 0 -25.5 -2.5t-24 -6t-17.5 -7.5t-7 -7
q0 -2 3.5 -6t8 -10.5t8 -15t3.5 -18.5q0 -19 -14 -33.5t-39 -14.5q-23 0 -37.5 13.5t-14.5 33.5q0 18 18.5 39.5t47 39.5t61.5 30t63 12q44 0 73.5 -10t46 -34t22.5 -63.5t3 -98.5l-7 -170q-2 -39 23 -39q11 0 22 6t27 18l17 -22v0zM282 239q-49 -12 -81 -26t-50.5 -28.5
t-25.5 -30t-7 -31.5q0 -35 21.5 -55t50.5 -20q41 0 87 42z" />
    <glyph glyph-name="registered" unicode="&#xae;" horiz-adv-x="734" 
d="M694 312q0 -68 -25.5 -127.5t-70 -104t-104 -70t-127.5 -25.5t-127.5 25.5t-104 70t-70 104t-25.5 127.5t25.5 127.5t70 104t104 70.5t127.5 26t127.5 -26t104 -70.5t70 -104t25.5 -127.5zM656 312q0 60 -22.5 113.5t-62 93.5t-92 63.5t-112.5 23.5t-112.5 -23.5
t-92 -63.5t-62 -93.5t-22.5 -113.5t22.5 -113.5t62 -93t92 -63t112.5 -23.5t112.5 23.5t92 63t62 93t22.5 113.5zM448 139l-21 39l-67 107l-39 2v-98q0 -10 14 -13l33 -6l1 -31h-151l2 31l29 6q13 3 13 13v250q0 11 -13 14l-29 6l-2 31h152q35 0 60 -7.5t40.5 -20.5t23 -29
t7.5 -33q0 -37 -21.5 -63t-62.5 -38l65 -98q13 -17 19 -21t13 -6l31 -4l2 -31h-99zM437 391q0 70 -93 65l-23 -1v-133l38 -5q35 2 56.5 19.5t21.5 54.5z" />
    <glyph glyph-name="macron" unicode="&#xaf;" 
d="M75 541l3 41h246l3 -41h-252z" />
    <glyph glyph-name="degree" unicode="&#xb0;" horiz-adv-x="410" 
d="M371 482q0 -33 -11.5 -63t-33 -52.5t-52 -36t-69.5 -13.5q-38 0 -69 13.5t-52.5 36t-33 52.5t-11.5 63q0 34 11.5 64.5t33 53t52.5 36t69 13.5q39 0 69.5 -13.5t52 -36t33 -53t11.5 -64.5zM205 604q-27 0 -49 -9.5t-37 -26t-23 -39t-8 -47.5q0 -24 8 -45.5t23 -38
t37 -26.5t49 -10t49 10t37 26.5t23 38t8 45.5q0 25 -8 47.5t-23 39t-37 26t-49 9.5z" />
    <glyph glyph-name="plusminus" unicode="&#xb1;" horiz-adv-x="734" 
d="M694 312q0 -68 -25.5 -127.5t-70 -104t-104 -70t-127.5 -25.5t-127.5 25.5t-104 70t-70 104t-25.5 127.5t25.5 127.5t70 104t104 70.5t127.5 26t127.5 -26t104 -70.5t70 -104t25.5 -127.5zM656 312q0 60 -22.5 113.5t-62 93.5t-92 63.5t-112.5 23.5t-112.5 -23.5
t-92 -63.5t-62 -93.5t-22.5 -113.5t22.5 -113.5t62 -93t92 -63t112.5 -23.5t112.5 23.5t92 63t62 93t22.5 113.5zM522 394q0 -27 -11 -50t-29.5 -39.5t-43 -25.5t-50.5 -9q-13 0 -22 0.5t-21 2.5v-84q0 -5 3 -8.5t10 -4.5l39 -6l1 -31h-156l1 31l30 6q13 3 13 13v251
q0 10 -13 13l-30 7l-1 30h144q70 0 103 -26.5t33 -69.5zM462 383q0 35 -23 54t-63 19h-31v-149q11 -2 19 -3t21 -1q35 0 56 22t21 58z" />
    <glyph glyph-name="acute" unicode="&#xb4;" 
d="M174 510h-24l91 187h102z" />
    <glyph glyph-name="mu" unicode="&#xb5;" horiz-adv-x="470" 
d="M366 392v-6q12 -16 20 -35t8 -48q0 -33 -14 -62t-38 -51t-56 -34.5t-69 -12.5q-15 0 -31.5 2t-28.5 5q-6 -3 -13 -7.5t-14 -11t-11.5 -13.5t-4.5 -15q0 -20 18.5 -33.5t45.5 -13.5q33 0 63.5 1.5t54.5 1.5q31 0 57.5 -10.5t46 -28.5t31 -42.5t11.5 -52.5q0 -40 -19 -73
t-53.5 -57t-81.5 -37t-104 -13q-79 0 -126.5 32t-47.5 85q0 24 8 42t21.5 32t31 24.5t36.5 18.5v4q-30 5 -49 27.5t-19 47.5q0 30 23.5 56t58.5 42q0 2 2 4q1 1 2 1q-38 18 -61.5 52t-23.5 86q0 35 13.5 65t37.5 52t57 34.5t71 12.5q36 0 64.5 -7.5t55.5 -20.5h136v-62z
M311 300q0 33 -8.5 60t-25.5 44q-25 25 -58 25q-42 0 -68 -31.5t-26 -82.5q0 -38 11 -67.5t30 -48.5q22 -22 51 -22q41 0 63 22q31 30 31 101zM366 -113q0 38 -23 63t-82 27q-29 1 -55 -0.5t-59 -1.5q-7 -3 -17 -10t-19.5 -18t-16.5 -25.5t-7 -32.5q0 -49 40 -77.5
t103 -28.5q62 0 99 29.5t37 74.5z" />
    <glyph glyph-name="paragraph" unicode="&#xb6;" horiz-adv-x="501" 
d="M360 -32v299q-25 -7 -48 -10t-40 -3q-59 0 -103 14.5t-72.5 39.5t-42.5 58.5t-14 72.5q0 48 16.5 83t45.5 58t68.5 34t85.5 11h155v-657h-51z" />
    <glyph glyph-name="periodcentered" unicode="&#xb7;" horiz-adv-x="232" 
d="M184 228q0 -26 -18.5 -46.5t-47.5 -20.5t-48.5 20.5t-19.5 46.5t19.5 45.5t48.5 19.5t47.5 -19.5t18.5 -45.5z" />
    <glyph glyph-name="cedilla" unicode="&#xb8;" 
d="M317 -148q0 -50 -55 -82.5t-155 -39.5l-9 24q157 19 157 86q0 23 -21 38t-64 15q-30 0 -62 -6v20l109 114h44l-75 -78q60 0 95.5 -23.5t35.5 -67.5z" />
    <glyph glyph-name="ordmasculine" unicode="&#xba;" horiz-adv-x="391" 
d="M366 463q0 -37 -12.5 -69.5t-35 -56.5t-54.5 -37.5t-70 -13.5q-39 0 -70 14t-53.5 37.5t-34.5 55.5t-12 68q0 37 13 69.5t36 56.5t54.5 38t69.5 14q39 0 70 -14t53 -38t34 -56t12 -68zM288 441q0 45 -10.5 82t-30.5 57q-8 8 -23.5 16t-35.5 8q-37 0 -61.5 -32t-24.5 -89
q0 -46 11 -83t31 -57q8 -8 23.5 -15t35.5 -7q35 0 60 31.5t25 88.5z" />
    <glyph glyph-name="guillemotright" unicode="&#xbb;" horiz-adv-x="490" 
d="M238 56l-10 20l143 145l-143 145l10 20l217 -142v-46zM48 46l-10 20l153 155l-153 155l10 20l217 -152v-46z" />
    <glyph glyph-name="onequarter" unicode="&#xbc;" horiz-adv-x="613" 
d="M685 634q0 -25 -14 -37t-34 -12q-21 0 -40 16.5t-27 49.5l-1 4l-29 2q-35 -20 -53.5 -62.5t-18.5 -109.5v-37h137l-7 -50h-130v-342q0 -8 7 -12t31 -6l54 -3l3 -35h-242l3 35l28 3q11 2 22.5 6t11.5 13v343h-210v-330q0 -9 5 -15.5t18 -8.5l74 -11l3 -35h-247l3 35l39 11
q23 4 23 24v325l-82 5l6 48h71l1 11q5 53 24 95t47.5 71.5t65 45.5t75.5 16q38 0 64.5 -18t26.5 -45q0 -25 -14 -37t-34 -12q-21 0 -40 16.5t-27 49.5l-1 4l-29 2q-35 -20 -53.5 -62.5t-18.5 -109.5v-27h205l1 21q3 53 21.5 95t48 71.5t66.5 45.5t76 16q38 0 64.5 -18
t26.5 -45z" />
    <glyph glyph-name="onehalf" unicode="&#xbd;" horiz-adv-x="855" 
d="M760 461v-405q0 -8 7 -12t31 -6l29 -3l3 -35h-217l3 35l28 3q34 3 34 19v341h-210v-342q0 -8 7 -12t31 -6l54 -3l3 -35h-242l3 35l28 3q11 2 22.5 6t11.5 13v343h-210v-330q0 -9 5 -15.5t18 -8.5l74 -11l3 -35h-247l3 35l39 11q23 4 23 24v325l-82 5l6 48h71l1 11
q5 53 24 95t47.5 71.5t65 45.5t75.5 16q38 0 64.5 -18t26.5 -45q0 -25 -14 -37t-34 -12q-21 0 -40 16.5t-27 49.5l-1 4l-29 2q-35 -20 -53.5 -62.5t-18.5 -109.5v-27h205l1 21q3 53 20.5 95t48 71.5t72 45.5t90.5 16q15 0 32.5 -4.5t32 -13.5t24.5 -22.5t10 -31.5
q0 -23 -14.5 -36.5t-34.5 -13.5q-26 0 -42 14t-24 47l-1 4l-57 12q-35 -20 -53 -60t-18 -107v-37h164z" />
    <glyph glyph-name="threequarters" unicode="&#xbe;" horiz-adv-x="855" 
d="M468 398v-342q0 -8 7 -12t31 -6l54 -3l3 -35h-242l3 35l28 3q11 2 22.5 6t11.5 13v343h-210v-330q0 -9 5 -15.5t18 -8.5l74 -11l3 -35h-247l3 35l39 11q23 4 23 24v325l-82 5l6 48h71l1 11q5 53 24 95t47.5 71.5t65 45.5t75.5 16q38 0 64.5 -18t26.5 -45q0 -25 -14 -37
t-34 -12q-21 0 -40 16.5t-27 49.5l-1 4l-29 2q-35 -20 -53.5 -62.5t-18.5 -109.5v-27h205l1 21q3 53 20.5 95t48 71.5t72 45.5t90.5 16q17 0 36 -5.5t34 -16.5l77 22v-641q0 -8 7 -12t31 -6l29 -3l3 -35h-217l3 35l28 3q34 3 34 19v341h-210zM678 577q-10 -2 -15 -2
q-26 0 -42 14t-24 47l-1 4l-57 12q-35 -20 -53 -60t-18 -107v-37h210v129v0z" />
    <glyph glyph-name="questiondown" unicode="&#xbf;" horiz-adv-x="363" 
d="M314 41q0 -24 -21.5 -40t-58.5 -16q-40 0 -75.5 14.5t-62 38t-41.5 54t-15 62.5t7.5 52.5t22 35t34.5 24t44 19.5q16 6 31 12.5t26.5 14t18.5 18.5t7 26q0 23 -13 42.5t-33 39.5h30q9 -7 20.5 -18.5t22 -25.5t18 -31.5t7.5 -36.5q0 -26 -8.5 -44t-24 -31t-36.5 -22.5
t-46 -19.5q-34 -14 -60 -27.5t-26 -37.5q0 -16 11.5 -30t32 -24.5t49 -16.5t61.5 -6q20 0 37 2.5t30 4.5q11 -14 11 -33zM271 579q0 -23 -17.5 -40.5t-43.5 -17.5t-42.5 17.5t-16.5 40.5q0 24 16.5 42t42.5 18t43.5 -18t17.5 -42z" />
    <glyph glyph-name="Agrave" unicode="&#xc0;" horiz-adv-x="600" 
d="M344 0l3 35l49 8q14 3 20.5 7.5t7 16t-5 30.5t-15.5 50l-25 78h-206l-24 -77q-10 -28 -16 -47.5t-6 -31.5t6 -18t18 -8l40 -8l3 -35h-209l3 35l28 7q16 4 27.5 11.5t23.5 27.5t27.5 58.5t38.5 103.5l116 325v36l90 42l189 -576q3 -9 10.5 -15.5t21.5 -8.5l54 -11l3 -35
h-272zM282 536h-6l-90 -269h179zM306 677l-169 187h98l93 -187h-22z" />
    <glyph glyph-name="Aacute" unicode="&#xc1;" horiz-adv-x="600" 
d="M344 0l3 35l49 8q14 3 20.5 7.5t7 16t-5 30.5t-15.5 50l-25 78h-206l-24 -77q-10 -28 -16 -47.5t-6 -31.5t6 -18t18 -8l40 -8l3 -35h-209l3 35l28 7q16 4 27.5 11.5t23.5 27.5t27.5 58.5t38.5 103.5l116 325v36l90 42l189 -576q3 -9 10.5 -15.5t21.5 -8.5l54 -11l3 -35
h-272zM282 536h-6l-90 -269h179zM284 677h-24l91 187h102z" />
    <glyph glyph-name="Acircumflex" unicode="&#xc2;" horiz-adv-x="600" 
d="M344 0l3 35l49 8q14 3 20.5 7.5t7 16t-5 30.5t-15.5 50l-25 78h-206l-24 -77q-10 -28 -16 -47.5t-6 -31.5t6 -18t18 -8l40 -8l3 -35h-209l3 35l28 7q16 4 27.5 11.5t23.5 27.5t27.5 58.5t38.5 103.5l116 325v36l90 42l189 -576q3 -9 10.5 -15.5t21.5 -8.5l54 -11l3 -35
h-272zM282 536h-6l-90 -269h179zM400 677l-99 108h-2l-99 -108h-27l106 187h42l106 -187h-27z" />
    <glyph glyph-name="Atilde" unicode="&#xc3;" horiz-adv-x="600" 
d="M344 0l3 35l49 8q14 3 20.5 7.5t7 16t-5 30.5t-15.5 50l-25 78h-206l-24 -77q-10 -28 -16 -47.5t-6 -31.5t6 -18t18 -8l40 -8l3 -35h-209l3 35l28 7q16 4 27.5 11.5t23.5 27.5t27.5 58.5t38.5 103.5l116 325v36l90 42l189 -576q3 -9 10.5 -15.5t21.5 -8.5l54 -11l3 -35
h-272zM282 536h-6l-90 -269h179zM464 810q-10 -60 -33 -91.5t-65 -31.5q-24 0 -46 11.5t-41 25t-35.5 25t-30.5 11.5t-25 -13.5t-26 -51.5h-26q10 60 33 91.5t65 31.5q24 0 45.5 -11.5t40.5 -25t35.5 -25t31.5 -11.5q14 0 25 13.5t26 51.5h26v0z" />
    <glyph glyph-name="Adieresis" unicode="&#xc4;" horiz-adv-x="600" 
d="M344 0l3 35l49 8q14 3 20.5 7.5t7 16t-5 30.5t-15.5 50l-25 78h-206l-24 -77q-10 -28 -16 -47.5t-6 -31.5t6 -18t18 -8l40 -8l3 -35h-209l3 35l28 7q16 4 27.5 11.5t23.5 27.5t27.5 58.5t38.5 103.5l116 325v36l90 42l189 -576q3 -9 10.5 -15.5t21.5 -8.5l54 -11l3 -35
h-272zM282 536h-6l-90 -269h179zM459 774q0 -25 -15.5 -44t-43.5 -19t-43.5 19t-15.5 44t15.5 44t43.5 19t43.5 -19t15.5 -44zM259 774q0 -25 -15.5 -44t-43.5 -19t-43.5 19t-15.5 44t15.5 44t43.5 19t43.5 -19t15.5 -44z" />
    <glyph glyph-name="Aring" unicode="&#xc5;" horiz-adv-x="600" 
d="M359 688q0 25 -15.5 44t-43.5 19t-43.5 -19t-15.5 -44t15.5 -44t43.5 -19t43.5 19t15.5 44zM262 606q-24 11 -37.5 33t-13.5 49q0 37 23.5 63.5t65.5 26.5t65.5 -26.5t23.5 -63.5q0 -24 -10 -44.5t-30 -32.5l178 -541q3 -9 10.5 -15.5t21.5 -8.5l54 -11l3 -35h-272l3 35
l49 8q14 3 20.5 7.5t7 16t-5 30.5t-15.5 50l-25 78h-206l-24 -77q-10 -28 -16 -47.5t-6 -31.5t6 -18t18 -8l40 -8l3 -35h-209l3 35l28 7q16 4 27.5 11.5t23.5 27.5t27.5 58.5t38.5 103.5l130 363v0zM282 538h-6l-90 -271h179z" />
    <glyph glyph-name="AE" unicode="&#xc6;" horiz-adv-x="803" 
d="M752 0h-467l3 35l54 11q23 4 23 24v155h-188l-31 -62q-19 -38 -28.5 -61t-11.5 -35t3 -17t15 -7l39 -8l3 -35h-216l3 35l29 7q17 5 30 11t28.5 25t38 57t57.5 108l140 278q14 26 8.5 42.5t-35.5 21.5l-27 5l-3 35h534v-186h-44l-24 97q-4 17 -11 27t-27.5 15t-60.5 6.5
t-112 1.5h-21v-249h14q30 0 48.5 0.5t29 3t15 7t7.5 11.5l23 67h36l-21 -215h-35l-8 64q-1 7 -3.5 11.5t-12.5 7.5t-29 4t-52 1h-12v-260h11q78 0 122 1.5t66.5 7t30.5 15.5t13 26l25 92h50zM365 581h-10l-157 -314h167v314z" />
    <glyph glyph-name="Ccedilla" unicode="&#xc7;" horiz-adv-x="682" 
d="M368 -14q-68 4 -127 27t-102.5 63.5t-68 98.5t-24.5 131q0 79 27.5 141t75 104.5t112 65t137.5 22.5q45 0 82.5 -7t55.5 -13l80 15v-205h-46l-27 128q-30 18 -64.5 29t-85.5 11q-54 0 -98.5 -21t-76 -58t-49 -88t-17.5 -111q0 -65 17 -119t49 -93t79.5 -60.5t108.5 -21.5
q31 0 63.5 7.5t59.5 22.5l43 138h48l-22 -193l-51 9q-25 -9 -61 -15.5t-74 -8.5l-41 -42q60 0 95.5 -23.5t35.5 -67.5q0 -50 -55 -82.5t-155 -39.5l-9 24q157 19 157 86q0 23 -21 38t-64 15q-30 0 -62 -6v20l75 79v0z" />
    <glyph glyph-name="Egrave" unicode="&#xc8;" horiz-adv-x="594" 
d="M531 0h-490l3 35l41 5q20 2 27.5 6.5t7.5 11.5v511q0 7 -6.5 10t-28.5 6l-41 5l-3 35h491v-186h-48l-24 97q-5 17 -12 27t-27.5 15t-60 6.5t-109.5 1.5h-36v-249h27q29 0 47 0.5t28.5 3t15 7t7.5 11.5l23 67h39l-21 -215h-38l-8 64q-1 7 -3.5 11.5t-12.5 7.5t-28.5 4
t-51.5 1h-24v-260h28q75 0 118 1.5t65.5 7t31 15.5t14.5 26l24 92h54zM313 677l-169 187h98l93 -187h-22z" />
    <glyph glyph-name="Eacute" unicode="&#xc9;" horiz-adv-x="594" 
d="M531 0h-490l3 35l41 5q20 2 27.5 6.5t7.5 11.5v511q0 7 -6.5 10t-28.5 6l-41 5l-3 35h491v-186h-48l-24 97q-5 17 -12 27t-27.5 15t-60 6.5t-109.5 1.5h-36v-249h27q29 0 47 0.5t28.5 3t15 7t7.5 11.5l23 67h39l-21 -215h-38l-8 64q-1 7 -3.5 11.5t-12.5 7.5t-28.5 4
t-51.5 1h-24v-260h28q75 0 118 1.5t65.5 7t31 15.5t14.5 26l24 92h54zM301 677h-24l91 187h102z" />
    <glyph glyph-name="Ecircumflex" unicode="&#xca;" horiz-adv-x="594" 
d="M531 0h-490l3 35l41 5q20 2 27.5 6.5t7.5 11.5v511q0 7 -6.5 10t-28.5 6l-41 5l-3 35h491v-186h-48l-24 97q-5 17 -12 27t-27.5 15t-60 6.5t-109.5 1.5h-36v-249h27q29 0 47 0.5t28.5 3t15 7t7.5 11.5l23 67h39l-21 -215h-38l-8 64q-1 7 -3.5 11.5t-12.5 7.5t-28.5 4
t-51.5 1h-24v-260h28q75 0 118 1.5t65.5 7t31 15.5t14.5 26l24 92h54zM397 677l-99 108h-2l-99 -108h-27l106 187h42l106 -187h-27z" />
    <glyph glyph-name="Edieresis" unicode="&#xcb;" horiz-adv-x="594" 
d="M531 0h-490l3 35l41 5q20 2 27.5 6.5t7.5 11.5v511q0 7 -6.5 10t-28.5 6l-41 5l-3 35h491v-186h-48l-24 97q-5 17 -12 27t-27.5 15t-60 6.5t-109.5 1.5h-36v-249h27q29 0 47 0.5t28.5 3t15 7t7.5 11.5l23 67h39l-21 -215h-38l-8 64q-1 7 -3.5 11.5t-12.5 7.5t-28.5 4
t-51.5 1h-24v-260h28q75 0 118 1.5t65.5 7t31 15.5t14.5 26l24 92h54zM456 774q0 -25 -15.5 -44t-43.5 -19t-43.5 19t-15.5 44t15.5 44t43.5 19t43.5 -19t15.5 -44zM256 774q0 -25 -15.5 -44t-43.5 -19t-43.5 19t-15.5 44t15.5 44t43.5 19t43.5 -19t15.5 -44z" />
    <glyph glyph-name="Igrave" unicode="&#xcc;" horiz-adv-x="360" 
d="M44 0l3 35l51 5q20 2 27.5 6.5t7.5 11.5v511q0 7 -6.5 10t-28.5 6l-51 5l-3 35h273l-3 -35l-51 -5q-20 -2 -27.5 -6.5t-7.5 -11.5v-511q0 -7 7 -10.5t28 -5.5l51 -5l3 -35h-273zM176 677l-169 187h98l93 -187h-22z" />
    <glyph glyph-name="Iacute" unicode="&#xcd;" horiz-adv-x="360" 
d="M44 0l3 35l51 5q20 2 27.5 6.5t7.5 11.5v511q0 7 -6.5 10t-28.5 6l-51 5l-3 35h273l-3 -35l-51 -5q-20 -2 -27.5 -6.5t-7.5 -11.5v-511q0 -7 7 -10.5t28 -5.5l51 -5l3 -35h-273zM185 677h-24l91 187h102z" />
    <glyph glyph-name="Icircumflex" unicode="&#xce;" horiz-adv-x="360" 
d="M44 0l3 35l51 5q20 2 27.5 6.5t7.5 11.5v511q0 7 -6.5 10t-28.5 6l-51 5l-3 35h273l-3 -35l-51 -5q-20 -2 -27.5 -6.5t-7.5 -11.5v-511q0 -7 7 -10.5t28 -5.5l51 -5l3 -35h-273zM280 677l-99 108h-2l-99 -108h-27l106 187h42l106 -187h-27z" />
    <glyph glyph-name="Idieresis" unicode="&#xcf;" horiz-adv-x="360" 
d="M44 0l3 35l51 5q20 2 27.5 6.5t7.5 11.5v511q0 7 -6.5 10t-28.5 6l-51 5l-3 35h273l-3 -35l-51 -5q-20 -2 -27.5 -6.5t-7.5 -11.5v-511q0 -7 7 -10.5t28 -5.5l51 -5l3 -35h-273zM339 774q0 -25 -15.5 -44t-43.5 -19t-43.5 19t-15.5 44t15.5 44t43.5 19t43.5 -19t15.5 -44
zM139 774q0 -25 -15.5 -44t-43.5 -19t-43.5 19t-15.5 44t15.5 44t43.5 19t43.5 -19t15.5 -44z" />
    <glyph glyph-name="Eth" unicode="&#xd0;" horiz-adv-x="674" 
d="M324 339l3 -41h-119v-244l72 -15q61 -3 109 16t81.5 54t51 83.5t17.5 104.5q0 66 -19.5 119.5t-58 91.5t-94.5 58.5t-129 20.5h-30v-248h116zM33 298l3 41h84v216q0 20 -23 24l-54 11l-3 35l222 3q81 1 149.5 -21t118 -62t77 -95.5t27.5 -121.5q0 -73 -23.5 -133.5
t-70.5 -103.5t-117.5 -67t-164.5 -24h-218l3 35l54 11q23 4 23 24v228h-87z" />
    <glyph glyph-name="Ntilde" unicode="&#xd1;" horiz-adv-x="752" 
d="M716 590l-47 -8q-15 -3 -24 -9t-13.5 -25.5t-6 -58.5t-1.5 -107v-391h-51l-395 539h-5v-287q0 -68 1.5 -107t6 -58.5t13 -25.5t23.5 -9l48 -8l3 -35h-229l3 35l47 8q15 3 24 9t13.5 25.5t6 58.5t1.5 107v246q0 43 -10 63.5t-33 30.5l-47 7l-3 35h181l357 -489h5v246
q0 68 -1 107t-5.5 58.5t-13.5 25.5t-24 9l-48 8l-3 35h230zM540 810q-10 -60 -33 -91.5t-65 -31.5q-24 0 -46 11.5t-41 25t-35.5 25t-30.5 11.5t-25 -13.5t-26 -51.5h-26q10 60 33 91.5t65 31.5q24 0 45.5 -11.5t40.5 -25t35.5 -25t31.5 -11.5q14 0 25 13.5t26 51.5h26v0z
" />
    <glyph glyph-name="Ograve" unicode="&#xd2;" horiz-adv-x="745" 
d="M699 315q0 -68 -25.5 -128t-70 -105t-104 -71.5t-128.5 -26.5t-128.5 23.5t-103 66t-68.5 102t-25 130.5q0 68 25.5 128.5t70 105.5t104 71.5t128.5 26.5t128.5 -23.5t103 -66.5t68.5 -102t25 -131zM593 304q0 69 -18 123.5t-48.5 93t-71 59t-85.5 20.5t-84.5 -18.5
t-69 -54.5t-47 -88.5t-17.5 -120.5q0 -69 18 -124t48.5 -93.5t70.5 -59t85 -20.5t84.5 19t69.5 55t47.5 88.5t17.5 120.5zM398 677l-169 187h98l93 -187h-22z" />
    <glyph glyph-name="Oacute" unicode="&#xd3;" horiz-adv-x="745" 
d="M699 315q0 -68 -25.5 -128t-70 -105t-104 -71.5t-128.5 -26.5t-128.5 23.5t-103 66t-68.5 102t-25 130.5q0 68 25.5 128.5t70 105.5t104 71.5t128.5 26.5t128.5 -23.5t103 -66.5t68.5 -102t25 -131zM593 304q0 69 -18 123.5t-48.5 93t-71 59t-85.5 20.5t-84.5 -18.5
t-69 -54.5t-47 -88.5t-17.5 -120.5q0 -69 18 -124t48.5 -93.5t70.5 -59t85 -20.5t84.5 19t69.5 55t47.5 88.5t17.5 120.5zM346 677h-24l91 187h102z" />
    <glyph glyph-name="Ocircumflex" unicode="&#xd4;" horiz-adv-x="745" 
d="M699 315q0 -68 -25.5 -128t-70 -105t-104 -71.5t-128.5 -26.5t-128.5 23.5t-103 66t-68.5 102t-25 130.5q0 68 25.5 128.5t70 105.5t104 71.5t128.5 26.5t128.5 -23.5t103 -66.5t68.5 -102t25 -131zM593 304q0 69 -18 123.5t-48.5 93t-71 59t-85.5 20.5t-84.5 -18.5
t-69 -54.5t-47 -88.5t-17.5 -120.5q0 -69 18 -124t48.5 -93.5t70.5 -59t85 -20.5t84.5 19t69.5 55t47.5 88.5t17.5 120.5zM472 677l-99 108h-2l-99 -108h-27l106 187h42l106 -187h-27z" />
    <glyph glyph-name="Otilde" unicode="&#xd5;" horiz-adv-x="745" 
d="M699 315q0 -68 -25.5 -128t-70 -105t-104 -71.5t-128.5 -26.5t-128.5 23.5t-103 66t-68.5 102t-25 130.5q0 68 25.5 128.5t70 105.5t104 71.5t128.5 26.5t128.5 -23.5t103 -66.5t68.5 -102t25 -131zM593 304q0 69 -18 123.5t-48.5 93t-71 59t-85.5 20.5t-84.5 -18.5
t-69 -54.5t-47 -88.5t-17.5 -120.5q0 -69 18 -124t48.5 -93.5t70.5 -59t85 -20.5t84.5 19t69.5 55t47.5 88.5t17.5 120.5zM536 810q-10 -60 -33 -91.5t-65 -31.5q-24 0 -46 11.5t-41 25t-35.5 25t-30.5 11.5t-25 -13.5t-26 -51.5h-26q10 60 33 91.5t65 31.5q24 0 45.5 -11.5
t40.5 -25t35.5 -25t31.5 -11.5q14 0 25 13.5t26 51.5h26v0z" />
    <glyph glyph-name="Odieresis" unicode="&#xd6;" horiz-adv-x="745" 
d="M699 315q0 -68 -25.5 -128t-70 -105t-104 -71.5t-128.5 -26.5t-128.5 23.5t-103 66t-68.5 102t-25 130.5q0 68 25.5 128.5t70 105.5t104 71.5t128.5 26.5t128.5 -23.5t103 -66.5t68.5 -102t25 -131zM593 304q0 69 -18 123.5t-48.5 93t-71 59t-85.5 20.5t-84.5 -18.5
t-69 -54.5t-47 -88.5t-17.5 -120.5q0 -69 18 -124t48.5 -93.5t70.5 -59t85 -20.5t84.5 19t69.5 55t47.5 88.5t17.5 120.5zM531 774q0 -25 -15.5 -44t-43.5 -19t-43.5 19t-15.5 44t15.5 44t43.5 19t43.5 -19t15.5 -44zM331 774q0 -25 -15.5 -44t-43.5 -19t-43.5 19t-15.5 44
t15.5 44t43.5 19t43.5 -19t15.5 -44z" />
    <glyph glyph-name="multiply" unicode="&#xd7;" horiz-adv-x="486" 
d="M413 28l-168 169l-169 -169l-37 37l169 169l-169 168l37 37l169 -169l169 170l37 -37l-170 -169l169 -169z" />
    <glyph glyph-name="Oslash" unicode="&#xd8;" horiz-adv-x="745" 
d="M674 318q0 -66 -21.5 -126t-62.5 -106t-99.5 -73.5t-133.5 -27.5q-80 0 -146 32q-9 -16 -18 -31.5t-17 -29.5q-9 -16 -18 -30h-46l64 111q-63 42 -99.5 111t-36.5 158q0 66 21.5 126t62.5 106t99.5 73.5t133.5 27.5q81 0 149 -34l48 83h47l-60 -103q62 -42 97.5 -110.5
t35.5 -156.5zM475 551q-57 46 -128 46q-47 0 -87 -18.5t-68.5 -53.5t-44.5 -85t-16 -112q0 -73 22 -131t59 -98l263 452v0zM583 297q0 71 -21.5 128.5t-56.5 97.5q-73 -126 -131 -225q-25 -42 -48.5 -83t-42 -72.5t-30 -51l-11.5 -19.5q57 -43 125 -43q47 0 87 18.5t68.5 53
t44.5 84t16 112.5z" />
    <glyph glyph-name="Ugrave" unicode="&#xd9;" horiz-adv-x="714" 
d="M687 590l-47 -8q-15 -3 -24 -9t-13.5 -25.5t-6 -58.5t-1.5 -107v-178q0 -101 -64 -160t-177 -59q-112 0 -175.5 55t-63.5 169v360q0 7 -6.5 10t-28.5 6l-41 5l-3 35h253l-3 -35l-41 -5q-20 -2 -27.5 -6.5t-7.5 -11.5v-336q0 -53 13.5 -89.5t37 -59t56.5 -32t72 -9.5
q78 0 122 46t44 127v168q0 68 -1 107t-5.5 58.5t-13.5 25.5t-24 9l-48 8l-3 35h230zM383 677l-169 187h98l93 -187h-22z" />
    <glyph glyph-name="Uacute" unicode="&#xda;" horiz-adv-x="714" 
d="M687 590l-47 -8q-15 -3 -24 -9t-13.5 -25.5t-6 -58.5t-1.5 -107v-178q0 -101 -64 -160t-177 -59q-112 0 -175.5 55t-63.5 169v360q0 7 -6.5 10t-28.5 6l-41 5l-3 35h253l-3 -35l-41 -5q-20 -2 -27.5 -6.5t-7.5 -11.5v-336q0 -53 13.5 -89.5t37 -59t56.5 -32t72 -9.5
q78 0 122 46t44 127v168q0 68 -1 107t-5.5 58.5t-13.5 25.5t-24 9l-48 8l-3 35h230zM371 677h-24l91 187h102z" />
    <glyph glyph-name="Ucircumflex" unicode="&#xdb;" horiz-adv-x="714" 
d="M687 590l-47 -8q-15 -3 -24 -9t-13.5 -25.5t-6 -58.5t-1.5 -107v-178q0 -101 -64 -160t-177 -59q-112 0 -175.5 55t-63.5 169v360q0 7 -6.5 10t-28.5 6l-41 5l-3 35h253l-3 -35l-41 -5q-20 -2 -27.5 -6.5t-7.5 -11.5v-336q0 -53 13.5 -89.5t37 -59t56.5 -32t72 -9.5
q78 0 122 46t44 127v168q0 68 -1 107t-5.5 58.5t-13.5 25.5t-24 9l-48 8l-3 35h230zM477 677l-99 108h-2l-99 -108h-27l106 187h42l106 -187h-27z" />
    <glyph glyph-name="Udieresis" unicode="&#xdc;" horiz-adv-x="714" 
d="M687 590l-47 -8q-15 -3 -24 -9t-13.5 -25.5t-6 -58.5t-1.5 -107v-178q0 -101 -64 -160t-177 -59q-112 0 -175.5 55t-63.5 169v360q0 7 -6.5 10t-28.5 6l-41 5l-3 35h253l-3 -35l-41 -5q-20 -2 -27.5 -6.5t-7.5 -11.5v-336q0 -53 13.5 -89.5t37 -59t56.5 -32t72 -9.5
q78 0 122 46t44 127v168q0 68 -1 107t-5.5 58.5t-13.5 25.5t-24 9l-48 8l-3 35h230zM516 774q0 -25 -15.5 -44t-43.5 -19t-43.5 19t-15.5 44t15.5 44t43.5 19t43.5 -19t15.5 -44zM316 774q0 -25 -15.5 -44t-43.5 -19t-43.5 19t-15.5 44t15.5 44t43.5 19t43.5 -19t15.5 -44z
" />
    <glyph glyph-name="Yacute" unicode="&#xdd;" horiz-adv-x="602" 
d="M603 590l-14 -4q-26 -8 -47 -22t-46 -52l-141 -238v-218q0 -7 7 -10.5t28 -5.5l60 -5l3 -35h-292l3 35l61 5q20 2 27.5 6.5t7.5 11.5v202l-180 286q-8 11 -21.5 21.5t-31.5 14.5l-32 8l-3 35h256l-3 -35l-40 -6q-23 -4 -19.5 -27t37.5 -79l100 -165h5l112 197
q23 36 20 53t-29 22l-24 5l-3 35h202zM275 677h-24l91 187h102z" />
    <glyph glyph-name="Thorn" unicode="&#xde;" horiz-adv-x="588" 
d="M542 331q0 -49 -19.5 -87t-53 -63t-78 -38t-94.5 -13q-23 0 -41 1.5t-41 3.5v-79q0 -7 7 -10.5t28 -5.5l60 -5l3 -35h-272l3 35l41 5q20 2 27.5 6.5t7.5 11.5v511q0 7 -6.5 10t-28.5 6l-41 5l-3 35h253l-3 -35l-41 -5q-11 -2 -23 -6.5t-12 -11.5v-64h83q61 0 107 -13.5
t76.5 -36.5t45.5 -54.5t15 -67.5zM440 311q0 72 -46.5 112.5t-131.5 40.5h-47v-285q21 -5 39 -7.5t47 -2.5q65 0 102 38t37 104z" />
    <glyph glyph-name="germandbls" unicode="&#xdf;" horiz-adv-x="666" 
d="M393 634q0 -25 -14 -37t-34 -12q-21 0 -40 16.5t-27 49.5l-1 4l-29 2q-35 -20 -53.5 -62.5t-18.5 -109.5v-429q0 -8 7 -12t31 -6l29 -3l3 -35h-217l3 35l28 3q34 3 34 19v338l-82 5l6 48h71l1 21q3 53 21.5 95t48 71.5t66.5 45.5t76 16q38 0 64.5 -18t26.5 -45zM615 130
q0 -28 -11.5 -54t-34 -46.5t-55 -32.5t-74.5 -12q-79 0 -135 21l-6 132h50l23 -88q17 -12 37.5 -20t42.5 -8q15 0 31 5.5t29.5 16t22 25t8.5 33.5q0 18 -9 30.5t-24.5 22.5t-35.5 18.5t-41 16.5q-25 10 -48.5 21t-42 27t-29.5 38.5t-11 54.5q0 25 10 49t30.5 43t50 30.5
t68.5 11.5q36 0 59 -5t41 -12l31 13l6 -142h-49l-20 83q-16 12 -37 18.5t-39 6.5q-33 0 -56 -18.5t-23 -47.5q0 -34 28 -51.5t79 -37.5q24 -10 48 -21.5t43 -27.5t31 -38.5t12 -54.5z" />
    <glyph glyph-name="agrave" unicode="&#xe0;" horiz-adv-x="444" 
d="M448 51q-23 -30 -47.5 -48.5t-50.5 -18.5q-29 0 -47 17.5t-20 55.5h-5q-26 -29 -56 -50.5t-68 -21.5q-24 0 -45.5 9t-38 24.5t-26.5 37t-10 46.5q0 62 61 101t189 69v9q0 42 -7 68.5t-19.5 41.5t-30.5 20.5t-40 5.5q-12 0 -25.5 -2.5t-24 -6t-17.5 -7.5t-7 -7
q0 -2 3.5 -6t8 -10.5t8 -15t3.5 -18.5q0 -19 -14 -33.5t-39 -14.5q-23 0 -37.5 13.5t-14.5 33.5q0 18 18.5 39.5t47 39.5t61.5 30t63 12q44 0 73.5 -10t46 -34t22.5 -63.5t3 -98.5l-7 -170q-2 -39 23 -39q11 0 22 6t27 18l17 -22v0zM282 239q-49 -12 -81 -26t-50.5 -28.5
t-25.5 -30t-7 -31.5q0 -35 21.5 -55t50.5 -20q41 0 87 42zM228 510l-169 187h98l93 -187h-22z" />
    <glyph glyph-name="aacute" unicode="&#xe1;" horiz-adv-x="444" 
d="M448 51q-23 -30 -47.5 -48.5t-50.5 -18.5q-29 0 -47 17.5t-20 55.5h-5q-26 -29 -56 -50.5t-68 -21.5q-24 0 -45.5 9t-38 24.5t-26.5 37t-10 46.5q0 62 61 101t189 69v9q0 42 -7 68.5t-19.5 41.5t-30.5 20.5t-40 5.5q-12 0 -25.5 -2.5t-24 -6t-17.5 -7.5t-7 -7
q0 -2 3.5 -6t8 -10.5t8 -15t3.5 -18.5q0 -19 -14 -33.5t-39 -14.5q-23 0 -37.5 13.5t-14.5 33.5q0 18 18.5 39.5t47 39.5t61.5 30t63 12q44 0 73.5 -10t46 -34t22.5 -63.5t3 -98.5l-7 -170q-2 -39 23 -39q11 0 22 6t27 18l17 -22v0zM282 239q-49 -12 -81 -26t-50.5 -28.5
t-25.5 -30t-7 -31.5q0 -35 21.5 -55t50.5 -20q41 0 87 42zM196 510h-24l91 187h102z" />
    <glyph glyph-name="acircumflex" unicode="&#xe2;" horiz-adv-x="444" 
d="M448 51q-23 -30 -47.5 -48.5t-50.5 -18.5q-29 0 -47 17.5t-20 55.5h-5q-26 -29 -56 -50.5t-68 -21.5q-24 0 -45.5 9t-38 24.5t-26.5 37t-10 46.5q0 62 61 101t189 69v9q0 42 -7 68.5t-19.5 41.5t-30.5 20.5t-40 5.5q-12 0 -25.5 -2.5t-24 -6t-17.5 -7.5t-7 -7
q0 -2 3.5 -6t8 -10.5t8 -15t3.5 -18.5q0 -19 -14 -33.5t-39 -14.5q-23 0 -37.5 13.5t-14.5 33.5q0 18 18.5 39.5t47 39.5t61.5 30t63 12q44 0 73.5 -10t46 -34t22.5 -63.5t3 -98.5l-7 -170q-2 -39 23 -39q11 0 22 6t27 18l17 -22v0zM282 239q-49 -12 -81 -26t-50.5 -28.5
t-25.5 -30t-7 -31.5q0 -35 21.5 -55t50.5 -20q41 0 87 42zM302 510l-99 108h-2l-99 -108h-27l106 187h42l106 -187h-27z" />
    <glyph glyph-name="atilde" unicode="&#xe3;" horiz-adv-x="444" 
d="M448 51q-23 -30 -47.5 -48.5t-50.5 -18.5q-29 0 -47 17.5t-20 55.5h-5q-26 -29 -56 -50.5t-68 -21.5q-24 0 -45.5 9t-38 24.5t-26.5 37t-10 46.5q0 62 61 101t189 69v9q0 42 -7 68.5t-19.5 41.5t-30.5 20.5t-40 5.5q-12 0 -25.5 -2.5t-24 -6t-17.5 -7.5t-7 -7
q0 -2 3.5 -6t8 -10.5t8 -15t3.5 -18.5q0 -19 -14 -33.5t-39 -14.5q-23 0 -37.5 13.5t-14.5 33.5q0 18 18.5 39.5t47 39.5t61.5 30t63 12q44 0 73.5 -10t46 -34t22.5 -63.5t3 -98.5l-7 -170q-2 -39 23 -39q11 0 22 6t27 18l17 -22v0zM282 239q-49 -12 -81 -26t-50.5 -28.5
t-25.5 -30t-7 -31.5q0 -35 21.5 -55t50.5 -20q41 0 87 42zM366 643q-10 -60 -33 -91.5t-65 -31.5q-24 0 -46 11.5t-41 25t-35.5 25t-30.5 11.5t-25 -13.5t-26 -51.5h-26q10 60 33 91.5t65 31.5q24 0 45.5 -11.5t40.5 -25t35.5 -25t31.5 -11.5q14 0 25 13.5t26 51.5h26v0z
" />
    <glyph glyph-name="adieresis" unicode="&#xe4;" horiz-adv-x="444" 
d="M448 51q-23 -30 -47.5 -48.5t-50.5 -18.5q-29 0 -47 17.5t-20 55.5h-5q-26 -29 -56 -50.5t-68 -21.5q-24 0 -45.5 9t-38 24.5t-26.5 37t-10 46.5q0 62 61 101t189 69v9q0 42 -7 68.5t-19.5 41.5t-30.5 20.5t-40 5.5q-12 0 -25.5 -2.5t-24 -6t-17.5 -7.5t-7 -7
q0 -2 3.5 -6t8 -10.5t8 -15t3.5 -18.5q0 -19 -14 -33.5t-39 -14.5q-23 0 -37.5 13.5t-14.5 33.5q0 18 18.5 39.5t47 39.5t61.5 30t63 12q44 0 73.5 -10t46 -34t22.5 -63.5t3 -98.5l-7 -170q-2 -39 23 -39q11 0 22 6t27 18l17 -22v0zM282 239q-49 -12 -81 -26t-50.5 -28.5
t-25.5 -30t-7 -31.5q0 -35 21.5 -55t50.5 -20q41 0 87 42zM371 607q0 -25 -15.5 -44t-43.5 -19t-43.5 19t-15.5 44t15.5 44t43.5 19t43.5 -19t15.5 -44zM171 607q0 -25 -15.5 -44t-43.5 -19t-43.5 19t-15.5 44t15.5 44t43.5 19t43.5 -19t15.5 -44z" />
    <glyph glyph-name="aring" unicode="&#xe5;" horiz-adv-x="444" 
d="M448 51q-23 -30 -47.5 -48.5t-50.5 -18.5q-29 0 -47 17.5t-20 55.5h-5q-26 -29 -56 -50.5t-68 -21.5q-24 0 -45.5 9t-38 24.5t-26.5 37t-10 46.5q0 62 61 101t189 69v9q0 42 -7 68.5t-19.5 41.5t-30.5 20.5t-40 5.5q-12 0 -25.5 -2.5t-24 -6t-17.5 -7.5t-7 -7
q0 -2 3.5 -6t8 -10.5t8 -15t3.5 -18.5q0 -19 -14 -33.5t-39 -14.5q-23 0 -37.5 13.5t-14.5 33.5q0 18 18.5 39.5t47 39.5t61.5 30t63 12q44 0 73.5 -10t46 -34t22.5 -63.5t3 -98.5l-7 -170q-2 -39 23 -39q11 0 22 6t27 18l17 -22v0zM282 239q-49 -12 -81 -26t-50.5 -28.5
t-25.5 -30t-7 -31.5q0 -35 21.5 -55t50.5 -20q41 0 87 42zM306 607q0 -37 -23.5 -63.5t-65.5 -26.5t-65.5 26.5t-23.5 63.5t23.5 63.5t65.5 26.5t65.5 -26.5t23.5 -63.5zM276 607q0 25 -15.5 44t-43.5 19t-43.5 -19t-15.5 -44t15.5 -44t43.5 -19t43.5 19t15.5 44z" />
    <glyph glyph-name="ae" unicode="&#xe6;" horiz-adv-x="709" 
d="M577 295q4 61 -20 96t-66 35q-20 0 -40 -8.5t-36.5 -25.5t-28.5 -41t-17 -56h208v0zM312 83q-13 -19 -30.5 -36.5t-37.5 -31t-42.5 -22t-47.5 -8.5q-24 0 -45.5 9t-38 24.5t-26.5 37t-10 46.5q0 62 61 101t189 69l1 13q3 37 -4 62.5t-20.5 41t-32.5 22t-41 6.5
q-12 0 -25.5 -2.5t-24 -6t-17.5 -7.5t-7 -7q0 -2 3.5 -6t8 -10.5t8 -15t3.5 -18.5q0 -19 -14 -33.5t-39 -14.5q-23 0 -37.5 13.5t-14.5 33.5q0 18 18.5 39.5t47 39.5t61.5 30t63 12q54 0 87.5 -16t45.5 -51q32 31 72.5 48.5t86.5 17.5q72 0 114 -41t42 -109q0 -12 -1.5 -27
t-4.5 -27l-297 4v-11q0 -43 11.5 -79t32.5 -61.5t49.5 -40t61.5 -14.5q32 0 64 12t58 41l20 -11q-28 -55 -75 -84.5t-107 -29.5q-56 0 -99.5 26.5t-69.5 71.5zM282 238q-49 -12 -81 -25.5t-50.5 -28t-25.5 -30t-7 -31.5q0 -35 21.5 -55t53.5 -20t59 17t47 41q-19 49 -19 103
q0 5 0.5 14.5t1.5 14.5z" />
    <glyph glyph-name="ccedilla" unicode="&#xe7;" horiz-adv-x="440" 
d="M216 -14q-41 3 -75 21.5t-58 48.5t-37.5 69t-13.5 84q0 56 19.5 102.5t52 80.5t75.5 52.5t90 18.5q35 0 61.5 -8t44.5 -21.5t27 -31t9 -35.5q0 -16 -5.5 -26.5t-13.5 -16.5t-18 -8.5t-19 -2.5q-29 0 -45 27.5t-8 65.5v2q-22 16 -55 16q-27 0 -50.5 -11.5t-41 -33
t-27.5 -53t-10 -71.5q0 -42 11.5 -78.5t32.5 -63t49.5 -41.5t61.5 -15q32 0 64 12t58 41l20 -11q-24 -48 -63.5 -77t-90.5 -35l-42 -44q60 0 95.5 -23.5t35.5 -67.5q0 -50 -55 -82.5t-155 -39.5l-9 24q157 19 157 86q0 23 -21 38t-64 15q-30 0 -62 -6v20l75 79v0z" />
    <glyph glyph-name="egrave" unicode="&#xe8;" horiz-adv-x="461" 
d="M415 99q-28 -55 -75 -84.5t-107 -29.5q-44 0 -81 17.5t-63.5 47.5t-41.5 71t-15 88q0 56 18.5 102.5t50 80.5t74 52.5t90.5 18.5q72 0 114 -41t42 -109q0 -12 -1.5 -27t-4.5 -27l-297 4v-11q0 -43 11.5 -79t32.5 -61.5t49.5 -40t61.5 -14.5q32 0 64 12t58 41l20 -11v0z
M329 295q4 61 -20 96t-66 35q-20 0 -40 -8.5t-36.5 -25.5t-28.5 -41t-17 -56h208v0zM256 510l-169 187h98l93 -187h-22z" />
    <glyph glyph-name="eacute" unicode="&#xe9;" horiz-adv-x="461" 
d="M415 99q-28 -55 -75 -84.5t-107 -29.5q-44 0 -81 17.5t-63.5 47.5t-41.5 71t-15 88q0 56 18.5 102.5t50 80.5t74 52.5t90.5 18.5q72 0 114 -41t42 -109q0 -12 -1.5 -27t-4.5 -27l-297 4v-11q0 -43 11.5 -79t32.5 -61.5t49.5 -40t61.5 -14.5q32 0 64 12t58 41l20 -11v0z
M329 295q4 61 -20 96t-66 35q-20 0 -40 -8.5t-36.5 -25.5t-28.5 -41t-17 -56h208v0zM204 510h-24l91 187h102z" />
    <glyph glyph-name="ecircumflex" unicode="&#xea;" horiz-adv-x="461" 
d="M415 99q-28 -55 -75 -84.5t-107 -29.5q-44 0 -81 17.5t-63.5 47.5t-41.5 71t-15 88q0 56 18.5 102.5t50 80.5t74 52.5t90.5 18.5q72 0 114 -41t42 -109q0 -12 -1.5 -27t-4.5 -27l-297 4v-11q0 -43 11.5 -79t32.5 -61.5t49.5 -40t61.5 -14.5q32 0 64 12t58 41l20 -11v0z
M329 295q4 61 -20 96t-66 35q-20 0 -40 -8.5t-36.5 -25.5t-28.5 -41t-17 -56h208v0zM330 510l-99 108h-2l-99 -108h-27l106 187h42l106 -187h-27z" />
    <glyph glyph-name="edieresis" unicode="&#xeb;" horiz-adv-x="461" 
d="M415 99q-28 -55 -75 -84.5t-107 -29.5q-44 0 -81 17.5t-63.5 47.5t-41.5 71t-15 88q0 56 18.5 102.5t50 80.5t74 52.5t90.5 18.5q72 0 114 -41t42 -109q0 -12 -1.5 -27t-4.5 -27l-297 4v-11q0 -43 11.5 -79t32.5 -61.5t49.5 -40t61.5 -14.5q32 0 64 12t58 41l20 -11v0z
M329 295q4 61 -20 96t-66 35q-20 0 -40 -8.5t-36.5 -25.5t-28.5 -41t-17 -56h208v0zM389 607q0 -25 -15.5 -44t-43.5 -19t-43.5 19t-15.5 44t15.5 44t43.5 19t43.5 -19t15.5 -44zM189 607q0 -25 -15.5 -44t-43.5 -19t-43.5 19t-15.5 44t15.5 44t43.5 19t43.5 -19t15.5 -44z
" />
    <glyph glyph-name="igrave" unicode="&#xec;" horiz-adv-x="272" 
d="M30 0l3 35l28 3q34 3 34 19v253q0 24 -1.5 38t-6.5 22.5t-13 13t-22 7.5l-24 6l1 27l148 39v-407q0 -8 7 -12t31 -6l29 -3l3 -35h-217zM157 510l-169 187h98l93 -187h-22z" />
    <glyph glyph-name="iacute" unicode="&#xed;" horiz-adv-x="272" 
d="M30 0l3 35l28 3q34 3 34 19v253q0 24 -1.5 38t-6.5 22.5t-13 13t-22 7.5l-24 6l1 27l148 39v-407q0 -8 7 -12t31 -6l29 -3l3 -35h-217zM110 510h-24l91 187h102z" />
    <glyph glyph-name="icircumflex" unicode="&#xee;" horiz-adv-x="272" 
d="M30 0l3 35l28 3q34 3 34 19v253q0 24 -1.5 38t-6.5 22.5t-13 13t-22 7.5l-24 6l1 27l148 39v-407q0 -8 7 -12t31 -6l29 -3l3 -35h-217zM236 510l-99 108h-2l-99 -108h-27l106 187h42l106 -187h-27z" />
    <glyph glyph-name="idieresis" unicode="&#xef;" horiz-adv-x="272" 
d="M30 0l3 35l28 3q34 3 34 19v253q0 24 -1.5 38t-6.5 22.5t-13 13t-22 7.5l-24 6l1 27l148 39v-407q0 -8 7 -12t31 -6l29 -3l3 -35h-217zM295 607q0 -25 -15.5 -44t-43.5 -19t-43.5 19t-15.5 44t15.5 44t43.5 19t43.5 -19t15.5 -44zM95 607q0 -25 -15.5 -44t-43.5 -19
t-43.5 19t-15.5 44t15.5 44t43.5 19t43.5 -19t15.5 -44z" />
    <glyph glyph-name="eth" unicode="&#xf0;" horiz-adv-x="511" 
d="M121 256q0 -58 16.5 -109.5t45.5 -80.5q11 -11 32 -24.5t55 -13.5q27 0 50 10.5t40 31.5t27 51.5t10 70.5q0 58 -16 109.5t-45 80.5q-11 11 -32.5 24.5t-54.5 13.5q-56 0 -92 -41.5t-36 -122.5zM131 515v43l108 36q-48 30 -109 47l12 30q83 -17 151 -59l129 43v-43
l-44 -14q-17 -5 -30 -10t-14 -5q71 -57 111.5 -138.5t41.5 -181.5q0 -61 -16 -112t-46 -88t-72.5 -57.5t-94.5 -20.5q-50 0 -91.5 18.5t-71.5 51t-46.5 76t-16.5 93.5q0 55 18 98.5t47.5 74t67 46.5t75.5 16q45 0 85.5 -22.5t67.5 -70.5q-12 57 -39 108t-74 91z" />
    <glyph glyph-name="ntilde" unicode="&#xf1;" horiz-adv-x="547" 
d="M317 0l3 35l26 3q22 2 28 6.5t6 12.5v209q0 37 -6 61.5t-17.5 39.5t-28.5 21t-40 6q-32 0 -61.5 -13.5t-49.5 -28.5v-123v-173q0 -8 7 -12t31 -6l34 -3l3 -35h-222l3 35l28 3q34 3 34 19v253q0 24 -1.5 38t-6.5 22.5t-13 13t-22 7.5l-24 6l1 27l148 39v-71h5
q38 32 78.5 51.5t81.5 19.5q22 0 44 -7.5t38 -23.5q20 -20 29 -48t9 -64v-263q0 -7 7 -11.5t34 -7.5l26 -3l3 -35h-215zM437 643q-10 -60 -33 -91.5t-65 -31.5q-24 0 -46 11.5t-41 25t-35.5 25t-30.5 11.5t-25 -13.5t-26 -51.5h-26q10 60 33 91.5t65 31.5q24 0 45.5 -11.5
t40.5 -25t35.5 -25t31.5 -11.5q14 0 25 13.5t26 51.5h26v0z" />
    <glyph glyph-name="ograve" unicode="&#xf2;" horiz-adv-x="518" 
d="M275 510l-169 187h98l93 -187h-22zM486 237q0 -52 -18 -97.5t-49.5 -80t-74.5 -54.5t-94 -20q-50 0 -90.5 18.5t-69 50.5t-43.5 75.5t-15 92.5q0 50 18.5 94t50.5 76.5t75.5 51.5t92.5 19t89 -17.5t68.5 -48t44 -71.5t15.5 -89zM395 195q0 58 -12.5 109t-40.5 80
q-11 11 -32.5 24.5t-54.5 13.5q-28 0 -52 -11.5t-42 -33t-28 -53t-10 -71.5q0 -58 13 -109t41 -80q11 -11 32 -24.5t55 -13.5q27 0 50.5 11.5t41.5 33t28.5 53t10.5 71.5z" />
    <glyph glyph-name="oacute" unicode="&#xf3;" horiz-adv-x="518" 
d="M486 237q0 -52 -18 -97.5t-49.5 -80t-74.5 -54.5t-94 -20q-50 0 -90.5 18.5t-69 50.5t-43.5 75.5t-15 92.5q0 50 18.5 94t50.5 76.5t75.5 51.5t92.5 19t89 -17.5t68.5 -48t44 -71.5t15.5 -89zM395 195q0 58 -12.5 109t-40.5 80q-11 11 -32.5 24.5t-54.5 13.5
q-28 0 -52 -11.5t-42 -33t-28 -53t-10 -71.5q0 -58 13 -109t41 -80q11 -11 32 -24.5t55 -13.5q27 0 50.5 11.5t41.5 33t28.5 53t10.5 71.5zM243 510h-24l91 187h102z" />
    <glyph glyph-name="ocircumflex" unicode="&#xf4;" horiz-adv-x="518" 
d="M486 237q0 -52 -18 -97.5t-49.5 -80t-74.5 -54.5t-94 -20q-50 0 -90.5 18.5t-69 50.5t-43.5 75.5t-15 92.5q0 50 18.5 94t50.5 76.5t75.5 51.5t92.5 19t89 -17.5t68.5 -48t44 -71.5t15.5 -89zM395 195q0 58 -12.5 109t-40.5 80q-11 11 -32.5 24.5t-54.5 13.5
q-28 0 -52 -11.5t-42 -33t-28 -53t-10 -71.5q0 -58 13 -109t41 -80q11 -11 32 -24.5t55 -13.5q27 0 50.5 11.5t41.5 33t28.5 53t10.5 71.5zM359 510l-99 108h-2l-99 -108h-27l106 187h42l106 -187h-27z" />
    <glyph glyph-name="otilde" unicode="&#xf5;" horiz-adv-x="518" 
d="M486 237q0 -52 -18 -97.5t-49.5 -80t-74.5 -54.5t-94 -20q-50 0 -90.5 18.5t-69 50.5t-43.5 75.5t-15 92.5q0 50 18.5 94t50.5 76.5t75.5 51.5t92.5 19t89 -17.5t68.5 -48t44 -71.5t15.5 -89zM395 195q0 58 -12.5 109t-40.5 80q-11 11 -32.5 24.5t-54.5 13.5
q-28 0 -52 -11.5t-42 -33t-28 -53t-10 -71.5q0 -58 13 -109t41 -80q11 -11 32 -24.5t55 -13.5q27 0 50.5 11.5t41.5 33t28.5 53t10.5 71.5zM423 643q-10 -60 -33 -91.5t-65 -31.5q-24 0 -46 11.5t-41 25t-35.5 25t-30.5 11.5t-25 -13.5t-26 -51.5h-26q10 60 33 91.5t65 31.5
q24 0 45.5 -11.5t40.5 -25t35.5 -25t31.5 -11.5q14 0 25 13.5t26 51.5h26v0z" />
    <glyph glyph-name="odieresis" unicode="&#xf6;" horiz-adv-x="518" 
d="M486 237q0 -52 -18 -97.5t-49.5 -80t-74.5 -54.5t-94 -20q-50 0 -90.5 18.5t-69 50.5t-43.5 75.5t-15 92.5q0 50 18.5 94t50.5 76.5t75.5 51.5t92.5 19t89 -17.5t68.5 -48t44 -71.5t15.5 -89zM395 195q0 58 -12.5 109t-40.5 80q-11 11 -32.5 24.5t-54.5 13.5
q-28 0 -52 -11.5t-42 -33t-28 -53t-10 -71.5q0 -58 13 -109t41 -80q11 -11 32 -24.5t55 -13.5q27 0 50.5 11.5t41.5 33t28.5 53t10.5 71.5zM418 607q0 -25 -15.5 -44t-43.5 -19t-43.5 19t-15.5 44t15.5 44t43.5 19t43.5 -19t15.5 -44zM218 607q0 -25 -15.5 -44t-43.5 -19
t-43.5 19t-15.5 44t15.5 44t43.5 19t43.5 -19t15.5 -44z" />
    <glyph glyph-name="divide" unicode="&#xf7;" horiz-adv-x="486" 
d="M41 208l3 54h399l3 -54h-405zM296 94q0 -20 -14 -36t-37 -16t-37.5 16t-14.5 36t14.5 35.5t37.5 15.5t37 -15.5t14 -35.5zM296 374q0 -20 -14.5 -36t-37.5 -16t-37 16t-14 36t14 36t37 16t37.5 -16t14.5 -36z" />
    <glyph glyph-name="oslash" unicode="&#xf8;" horiz-adv-x="518" 
d="M391 420q42 -32 65.5 -83.5t23.5 -112.5q0 -50 -17 -93.5t-47.5 -76t-71.5 -51t-89 -18.5q-28 0 -53 6.5t-48 17.5l-79 -138h-40l90 156q-43 32 -66.5 83.5t-23.5 113.5q0 50 17 94t47.5 76t71.5 50.5t89 18.5q29 0 54 -6.5t48 -17.5l92 159h40zM330 384q-38 36 -91 36
t-88 -42t-35 -123q0 -51 11.5 -92.5t33.5 -72.5l169 294v0zM398 193q0 49 -11.5 90.5t-32.5 71.5l-169 -293q39 -34 90 -34q25 0 47.5 10.5t39 31.5t26.5 52t10 71z" />
    <glyph glyph-name="ugrave" unicode="&#xf9;" horiz-adv-x="529" 
d="M519 3l-157 -18v71h-5q-38 -32 -78.5 -51.5t-81.5 -19.5q-22 0 -44 7.5t-38 23.5q-20 20 -29 48t-9 64l3 263q0 7 -2 10t-6.5 4.5t-13 2t-22.5 2.5l-24 3l-3 35h158l-8 -266q0 -73 23.5 -100.5t68.5 -27.5q32 0 61.5 13.5t49.5 28.5v174v122q0 8 -7 12t-31 6l-39 3l-4 35
h163v-377q0 -19 11 -23l67 -20zM270 510l-169 187h98l93 -187h-22z" />
    <glyph glyph-name="uacute" unicode="&#xfa;" horiz-adv-x="529" 
d="M519 3l-157 -18v71h-5q-38 -32 -78.5 -51.5t-81.5 -19.5q-22 0 -44 7.5t-38 23.5q-20 20 -29 48t-9 64l3 263q0 7 -2 10t-6.5 4.5t-13 2t-22.5 2.5l-24 3l-3 35h158l-8 -266q0 -73 23.5 -100.5t68.5 -27.5q32 0 61.5 13.5t49.5 28.5v174v122q0 8 -7 12t-31 6l-39 3l-4 35
h163v-377q0 -19 11 -23l67 -20zM238 510h-24l91 187h102z" />
    <glyph glyph-name="ucircumflex" unicode="&#xfb;" horiz-adv-x="529" 
d="M519 3l-157 -18v71h-5q-38 -32 -78.5 -51.5t-81.5 -19.5q-22 0 -44 7.5t-38 23.5q-20 20 -29 48t-9 64l3 263q0 7 -2 10t-6.5 4.5t-13 2t-22.5 2.5l-24 3l-3 35h158l-8 -266q0 -73 23.5 -100.5t68.5 -27.5q32 0 61.5 13.5t49.5 28.5v174v122q0 8 -7 12t-31 6l-39 3l-4 35
h163v-377q0 -19 11 -23l67 -20zM354 510l-99 108h-2l-99 -108h-27l106 187h42l106 -187h-27z" />
    <glyph glyph-name="udieresis" unicode="&#xfc;" horiz-adv-x="529" 
d="M519 3l-157 -18v71h-5q-38 -32 -78.5 -51.5t-81.5 -19.5q-22 0 -44 7.5t-38 23.5q-20 20 -29 48t-9 64l3 263q0 7 -2 10t-6.5 4.5t-13 2t-22.5 2.5l-24 3l-3 35h158l-8 -266q0 -73 23.5 -100.5t68.5 -27.5q32 0 61.5 13.5t49.5 28.5v174v122q0 8 -7 12t-31 6l-39 3l-4 35
h163v-377q0 -19 11 -23l67 -20zM409 607q0 -25 -15.5 -44t-43.5 -19t-43.5 19t-15.5 44t15.5 44t43.5 19t43.5 -19t15.5 -44zM209 607q0 -25 -15.5 -44t-43.5 -19t-43.5 19t-15.5 44t15.5 44t43.5 19t43.5 -19t15.5 -44z" />
    <glyph glyph-name="yacute" unicode="&#xfd;" horiz-adv-x="459" 
d="M481 414l-26 -7q-11 -1 -18.5 -5t-14.5 -12t-13.5 -21.5t-15.5 -35.5l-117 -308l-50 -153q-22 -66 -46.5 -99.5t-68.5 -33.5q-32 0 -49.5 15.5t-17.5 39.5q0 22 11.5 37.5t37.5 15.5q23 0 37 -9.5t22 -22.5q11 6 19.5 21t19.5 45l42 117v2l-178 368q-5 10 -9 16.5
t-9 10.5t-13 6.5t-20 4.5l-21 6l-4 36h220l-3 -35l-25 -4q-16 -2 -23 -10t1 -26l120 -265l82 232q12 35 7.5 49.5t-32.5 17.5l-27 7l-3 34h188zM203 510h-24l91 187h102z" />
    <glyph glyph-name="thorn" unicode="&#xfe;" horiz-adv-x="515" 
d="M483 241q0 -48 -15.5 -94t-45 -82t-73 -58t-99.5 -22q-18 0 -45 4t-47 10h-1v-189q0 -8 7 -12t31 -6l39 -3l3 -35h-227l3 35l28 3q34 3 34 19v767q0 19 -11 23l-67 28l3 25l157 43v-315h5q29 33 67 53.5t76 20.5q42 0 75 -17t56 -46t35 -68.5t12 -83.5zM394 204
q0 85 -34.5 133.5t-89.5 48.5q-36 0 -65 -18t-48 -41v-240q21 -23 49 -42t65 -19q24 0 46 12.5t39.5 36t27.5 56.5t10 73z" />
    <glyph glyph-name="ydieresis" unicode="&#xff;" horiz-adv-x="459" 
d="M481 414l-26 -7q-11 -1 -18.5 -5t-14.5 -12t-13.5 -21.5t-15.5 -35.5l-117 -308l-50 -153q-22 -66 -46.5 -99.5t-68.5 -33.5q-32 0 -49.5 15.5t-17.5 39.5q0 22 11.5 37.5t37.5 15.5q23 0 37 -9.5t22 -22.5q11 6 19.5 21t19.5 45l42 117v2l-178 368q-5 10 -9 16.5
t-9 10.5t-13 6.5t-20 4.5l-21 6l-4 36h220l-3 -35l-25 -4q-16 -2 -23 -10t1 -26l120 -265l82 232q12 35 7.5 49.5t-32.5 17.5l-27 7l-3 34h188zM398 607q0 -25 -15.5 -44t-43.5 -19t-43.5 19t-15.5 44t15.5 44t43.5 19t43.5 -19t15.5 -44zM198 607q0 -25 -15.5 -44
t-43.5 -19t-43.5 19t-15.5 44t15.5 44t43.5 19t43.5 -19t15.5 -44z" />
    <glyph glyph-name="dotlessi" unicode="&#x131;" horiz-adv-x="272" 
d="M30 0l3 35l28 3q34 3 34 19v253q0 24 -1.5 38t-6.5 22.5t-13 13t-22 7.5l-24 6l1 27l148 39v-407q0 -8 7 -12t31 -6l29 -3l3 -35h-217z" />
    <glyph glyph-name="Lslash" unicode="&#x141;" horiz-adv-x="574" 
d="M34 180v43l86 23v309q0 20 -23 24l-53 11l-3 35h262l-3 -35l-62 -11q-23 -4 -23 -24v-284l110 29v-43l-110 -29v-189h31q68 0 107 1.5t60.5 7t30 15.5t13.5 26l29 111h52l-22 -200h-475l3 35l53 11q23 4 23 24v133z" />
    <glyph glyph-name="lslash" unicode="&#x142;" horiz-adv-x="272" 
d="M177 70q0 -20 23 -24l54 -11l3 -35h-227l3 35l39 11q23 7 23 24v132q0 1 -13 -2.5t-30 -8.5q-19 -5 -43 -12v43l86 23v328q0 19 -11 23l-67 28l3 25l157 48v-430l83 23v-43l-83 -22v-155z" />
    <glyph glyph-name="OE" unicode="&#x152;" horiz-adv-x="944" 
d="M881 0h-464q-83 0 -151.5 22.5t-117 62.5t-75.5 95t-27 120q0 67 23.5 126t70.5 103.5t117.5 70.5t164.5 26l460 -1v-186h-44l-24 97q-4 17 -11 27t-27.5 15t-60.5 6.5t-112 1.5h-43v-249h36q30 0 48.5 0.5t29 3t15 7t7.5 11.5l23 67h36l-21 -215h-35l-8 64
q-1 7 -3.5 11.5t-12.5 7.5t-29 4t-52 1h-34v-260h33q78 0 122 1.5t66.5 7t30.5 15.5t13 26l25 92h50zM472 574l-72 15q-63 0 -111 -20.5t-81 -55.5t-50 -83t-17 -104q0 -64 19.5 -116.5t58 -90t94.5 -58t129 -20.5h30v533z" />
    <glyph glyph-name="oe" unicode="&#x153;" horiz-adv-x="824" 
d="M692 295q4 61 -20 96t-66 35q-20 0 -40 -8.5t-36.5 -25.5t-28.5 -41t-17 -56h208v0zM395 192q1 58 -12 110.5t-41 81.5q-11 11 -32.5 24.5t-54.5 13.5q-56 0 -93 -42.5t-39 -123.5q-1 -58 12.5 -110.5t41.5 -81.5q11 -11 32 -24.5t55 -13.5q54 0 91.5 42.5t39.5 123.5z
M433 74q-32 -42 -79 -65.5t-104 -23.5q-50 0 -91 18.5t-69.5 51t-43.5 76t-14 93.5q2 50 20.5 94t50 76t74.5 50.5t92 18.5q59 0 104 -25t73 -67q32 44 79.5 68t102.5 24q72 0 114 -41t42 -109q0 -12 -1.5 -27t-4.5 -27l-297 4v-11q0 -43 11.5 -79t32.5 -61.5t49.5 -40
t61.5 -14.5q32 0 64 12t58 41l20 -11q-28 -55 -75 -84.5t-107 -29.5q-53 0 -95 23.5t-68 65.5z" />
    <glyph glyph-name="Scaron" unicode="&#x160;" horiz-adv-x="517" 
d="M472 171q0 -35 -15.5 -68.5t-45.5 -59t-73.5 -41.5t-99.5 -17q-53 -1 -95 7.5t-82 22.5l-14 178h42l45 -137q25 -12 59 -21t63 -8q32 0 56.5 10t41 26t24.5 35.5t8 40.5q0 33 -12.5 56t-33.5 39t-49 27.5t-59 23.5q-33 13 -64.5 27.5t-55.5 35.5t-38.5 49.5t-14.5 70.5
q0 31 12 61.5t37.5 54.5t64.5 39t94 16q42 1 69 -2.5t51 -8.5l52 14v-199h-42l-31 128q-28 12 -57.5 18t-55.5 6q-28 0 -49 -8t-34.5 -21.5t-20.5 -31t-7 -35.5q0 -31 12.5 -52t33.5 -36.5t48 -26.5t56 -23q35 -13 67.5 -28.5t57.5 -36.5t40 -51t15 -74zM279 677h-42
l-106 187h27l99 -108h2l99 108h27z" />
    <glyph glyph-name="scaron" unicode="&#x161;" horiz-adv-x="406" 
d="M365 130q0 -28 -11.5 -54t-34 -46.5t-55 -32.5t-74.5 -12q-79 0 -135 21l-6 132h50l23 -88q17 -12 37.5 -20t42.5 -8q15 0 31 5.5t29.5 16t22 25t8.5 33.5q0 18 -9 30.5t-24.5 22.5t-35.5 18.5t-41 16.5q-25 10 -48.5 21t-42 27t-30 38.5t-11.5 54.5q0 25 10.5 49
t30.5 43t50 30.5t69 11.5q36 0 59 -5t41 -12l31 13l6 -142h-49l-20 83q-16 12 -37 18.5t-39 6.5q-33 0 -56 -18.5t-23 -47.5q0 -34 28 -51.5t79 -37.5q24 -10 48 -21.5t43 -27.5t31 -38.5t12 -54.5zM224 510h-42l-106 187h27l99 -108h2l99 108h27z" />
    <glyph glyph-name="Ydieresis" unicode="&#x178;" horiz-adv-x="602" 
d="M603 590l-14 -4q-26 -8 -47 -22t-46 -52l-141 -238v-218q0 -7 7 -10.5t28 -5.5l60 -5l3 -35h-292l3 35l61 5q20 2 27.5 6.5t7.5 11.5v202l-180 286q-8 11 -21.5 21.5t-31.5 14.5l-32 8l-3 35h256l-3 -35l-40 -6q-23 -4 -19.5 -27t37.5 -79l100 -165h5l112 197
q23 36 20 53t-29 22l-24 5l-3 35h202zM480 774q0 -25 -15.5 -44t-43.5 -19t-43.5 19t-15.5 44t15.5 44t43.5 19t43.5 -19t15.5 -44zM280 774q0 -25 -15.5 -44t-43.5 -19t-43.5 19t-15.5 44t15.5 44t43.5 19t43.5 -19t15.5 -44z" />
    <glyph glyph-name="Zcaron" unicode="&#x17d;" horiz-adv-x="571" 
d="M529 0h-490v36l390 545v5h-116q-62 0 -97.5 -3.5t-54 -11.5t-26.5 -21.5t-15 -33.5l-20 -83h-43v192h482v-37l-389 -545l-1 -5l121 1q66 0 104 3t58 10t28.5 18.5t14.5 29.5l24 88h51zM306 677h-42l-106 187h27l99 -108h2l99 108h27z" />
    <glyph glyph-name="zcaron" unicode="&#x17e;" horiz-adv-x="454" 
d="M133 37h40q51 0 84 2.5t53 9t32 19t21 31.5l35 72h48l-41 -171h-375v33l284 378h-25q-51 0 -83 -2t-50.5 -9t-27 -19t-12.5 -32l-19 -72h-50v171h368v-33zM248 510h-42l-106 187h27l99 -108h2l99 108h27z" />
    <glyph glyph-name="florin" unicode="&#x192;" horiz-adv-x="500" 
d="M518 561q0 -24 -13.5 -41t-36.5 -17q-27 0 -43 20t-19 52l-60 -11q-6 -10 -12 -29.5t-12 -43.5t-11.5 -50.5t-10.5 -52.5h118l4 -48h-128q-9 -48 -19.5 -93.5t-23.5 -85t-30 -72.5t-39 -57q-23 -23 -55.5 -35.5t-62.5 -12.5q-32 0 -55 17t-23 46q0 24 13.5 39.5
t36.5 15.5q27 0 42 -20.5t18 -49.5l58 23q5 11 11.5 32t13 47t12.5 55t10 55l14 92l-87 4l3 29l95 23q14 60 36.5 109t45.5 74q25 26 60 40.5t65 14.5q39 0 62 -20t23 -49z" />
    <glyph glyph-name="circumflex" unicode="&#x2c6;" 
d="M300 510l-99 108h-2l-99 -108h-27l106 187h42l106 -187h-27z" />
    <glyph glyph-name="caron" unicode="&#x2c7;" 
d="M221 510h-42l-106 187h27l99 -108h2l99 108h27z" />
    <glyph glyph-name="breve" unicode="&#x2d8;" 
d="M337 697q-7 -34 -16 -68.5t-24 -62t-38 -44.5t-59 -17t-59 17t-38 44.5t-24 62t-16 68.5h22q11 -24 22.5 -48.5t25 -44.5t30 -32.5t37.5 -12.5t37.5 12.5t30 32.5t25 44.5t22.5 48.5h22v0z" />
    <glyph glyph-name="dotaccent" unicode="&#x2d9;" 
d="M259 607q0 -25 -15.5 -44t-43.5 -19t-43.5 19t-15.5 44t15.5 44t43.5 19t43.5 -19t15.5 -44z" />
    <glyph glyph-name="ring" unicode="&#x2da;" 
d="M289 607q0 -37 -23.5 -63.5t-65.5 -26.5t-65.5 26.5t-23.5 63.5t23.5 63.5t65.5 26.5t65.5 -26.5t23.5 -63.5zM259 607q0 25 -15.5 44t-43.5 19t-43.5 -19t-15.5 -44t15.5 -44t43.5 -19t43.5 19t15.5 44z" />
    <glyph glyph-name="ogonek" unicode="&#x2db;" 
d="M312 -201q-23 -16 -47.5 -26t-54.5 -10q-22 0 -43 7.5t-37 21t-25.5 32t-9.5 39.5q0 27 10.5 50t29 42.5t43.5 34.5t53 26h50q-64 -32 -94 -68.5t-30 -72.5q0 -29 21 -51.5t59 -22.5q20 0 35.5 6t30.5 16l9 -24v0z" />
    <glyph glyph-name="tilde" unicode="&#x2dc;" 
d="M364 643q-10 -60 -33 -91.5t-65 -31.5q-24 0 -46 11.5t-41 25t-35.5 25t-30.5 11.5t-25 -13.5t-26 -51.5h-26q10 60 33 91.5t65 31.5q24 0 45.5 -11.5t40.5 -25t35.5 -25t31.5 -11.5q14 0 25 13.5t26 51.5h26v0z" />
    <glyph glyph-name="hungarumlaut" unicode="&#x2dd;" 
d="M252 510h-22l86 187h90zM100 510h-22l86 187h90z" />
    <glyph glyph-name="endash" unicode="&#x2013;" horiz-adv-x="470" 
d="M27 208l3 53h412l3 -53h-418z" />
    <glyph glyph-name="emdash" unicode="&#x2014;" horiz-adv-x="940" 
d="M27 208l3 53h882l3 -53h-888z" />
    <glyph glyph-name="quoteleft" unicode="&#x2018;" horiz-adv-x="232" 
d="M195 435q0 -26 -19 -43.5t-51 -17.5q-16 0 -32 7t-29.5 19.5t-22 29.5t-8.5 38q0 32 13 60t33.5 53t46 46.5t50.5 39.5l26 -16q-15 -10 -30 -24.5t-27.5 -32t-20.5 -36t-8 -38.5q0 -22 12.5 -37.5t27 -26t27 -15.5t12.5 -6z" />
    <glyph glyph-name="quoteright" unicode="&#x2019;" horiz-adv-x="232" 
d="M203 565q0 -32 -13 -60t-33.5 -53t-46 -46.5t-50.5 -39.5l-26 16q15 11 30 25t27.5 31.5t20.5 36.5t8 38q0 22 -12.5 37.5t-27 26t-27 15.5t-12.5 6q0 26 19 43.5t51 17.5q16 0 32 -7t29.5 -19.5t22 -29.5t8.5 -38z" />
    <glyph glyph-name="quotesinglbase" unicode="&#x201a;" horiz-adv-x="232" 
d="M203 23q0 -32 -13 -60t-33.5 -53t-46 -46.5t-50.5 -39.5l-26 16q15 10 30 24.5t27.5 32t20.5 36t8 38.5q0 22 -12.5 37.5t-27 26t-27 15.5t-12.5 6q0 26 19 43.5t51 17.5q16 0 32 -7t29.5 -19.5t22 -29.5t8.5 -38z" />
    <glyph glyph-name="quotedblleft" unicode="&#x201c;" horiz-adv-x="434" 
d="M411 435q0 -26 -19 -43.5t-51 -17.5q-16 0 -32 7t-29.5 19.5t-22 29.5t-8.5 38q0 32 13 60t33.5 53t46 46.5t50.5 39.5l26 -16q-15 -10 -30 -24.5t-27.5 -32t-20.5 -36t-8 -38.5q0 -22 12.5 -37.5t27 -26t27 -15.5t12.5 -6zM195 435q0 -26 -19 -43.5t-51 -17.5
q-16 0 -32 7t-29.5 19.5t-22 29.5t-8.5 38q0 32 13 60t33.5 53t46 46.5t50.5 39.5l26 -16q-15 -10 -30 -24.5t-27.5 -32t-20.5 -36t-8 -38.5q0 -22 12.5 -37.5t27 -26t27 -15.5t12.5 -6z" />
    <glyph glyph-name="quotedblright" unicode="&#x201d;" horiz-adv-x="434" 
d="M420 565q0 -32 -13 -60t-33.5 -53t-46 -46.5t-50.5 -39.5l-26 16q15 11 30 25t27.5 31.5t20.5 36.5t8 38q0 22 -12.5 37.5t-27 26t-27 15.5t-12.5 6q0 26 19 43.5t51 17.5q16 0 32 -7t29.5 -19.5t22 -29.5t8.5 -38zM203 565q0 -32 -13 -60t-33.5 -53t-46 -46.5
t-50.5 -39.5l-26 16q15 11 30 25t27.5 31.5t20.5 36.5t8 38q0 22 -12.5 37.5t-27 26t-27 15.5t-12.5 6q0 26 19 43.5t51 17.5q16 0 32 -7t29.5 -19.5t22 -29.5t8.5 -38z" />
    <glyph glyph-name="quotedblbase" unicode="&#x201e;" horiz-adv-x="434" 
d="M420 23q0 -32 -13 -60t-33.5 -53t-46 -46.5t-50.5 -39.5l-26 16q15 10 30 24.5t27.5 32t20.5 36t8 38.5q0 22 -12.5 37.5t-27 26t-27 15.5t-12.5 6q0 26 19 43.5t51 17.5q16 0 32 -7t29.5 -19.5t22 -29.5t8.5 -38zM203 23q0 -32 -13 -60t-33.5 -53t-46 -46.5t-50.5 -39.5
l-26 16q15 10 30 24.5t27.5 32t20.5 36t8 38.5q0 22 -12.5 37.5t-27 26t-27 15.5t-12.5 6q0 26 19 43.5t51 17.5q16 0 32 -7t29.5 -19.5t22 -29.5t8.5 -38z" />
    <glyph glyph-name="dagger" unicode="&#x2020;" horiz-adv-x="470" 
d="M436 391h-180v-547h-40v547h-179l-4 41h183v193h40v-193h184z" />
    <glyph glyph-name="daggerdbl" unicode="&#x2021;" horiz-adv-x="470" 
d="M256 21v-177h-40v177h-183l4 41h179v344h-179l-4 41h183v178h40v-178h184l-4 -41h-180v-344h180l4 -41h-184z" />
    <glyph glyph-name="bullet" unicode="&#x2022;" horiz-adv-x="455" 
d="M420 232q0 -11 -6 -30.5t-14.5 -40.5t-18 -39.5t-17.5 -26.5q-7 -7 -25.5 -17t-39.5 -18.5t-41 -14.5t-31 -6q-10 0 -30 6t-41 14.5t-39 18.5t-25 17q-7 8 -17 26.5t-19 39.5t-15 40.5t-6 30.5t6 30.5t15 40.5t19 39.5t17 25.5q8 8 26 17.5t39 18t41 14.5t30 6
q11 0 30.5 -6t40.5 -14.5t39.5 -18t25.5 -17.5q8 -7 17.5 -25.5t18 -39.5t14.5 -40.5t6 -30.5z" />
    <glyph glyph-name="ellipsis" unicode="&#x2026;" horiz-adv-x="696" 
d="M648 52q0 -26 -18.5 -46.5t-47.5 -20.5t-48.5 20.5t-19.5 46.5t19.5 45.5t48.5 19.5t47.5 -19.5t18.5 -45.5zM416 52q0 -26 -18.5 -46.5t-47.5 -20.5t-48.5 20.5t-19.5 46.5t19.5 45.5t48.5 19.5t47.5 -19.5t18.5 -45.5zM184 52q0 -26 -18.5 -46.5t-47.5 -20.5
t-48.5 20.5t-19.5 46.5t19.5 45.5t48.5 19.5t47.5 -19.5t18.5 -45.5z" />
    <glyph glyph-name="perthousand" unicode="&#x2030;" horiz-adv-x="1126" 
d="M349 482q0 -33 -11.5 -63t-33 -52.5t-52 -36t-69.5 -13.5q-38 0 -69 13.5t-52.5 36t-33 52.5t-11.5 63q0 34 11.5 64.5t33 53t52.5 36t69 13.5q39 0 69.5 -13.5t52 -36t33 -53t11.5 -64.5zM147 -15h-54l507 654h54zM729 142q0 -34 -11.5 -64.5t-33 -53t-52.5 -36
t-69 -13.5q-39 0 -69.5 13.5t-52 36t-33 53t-11.5 64.5q0 33 11.5 63t33 52.5t52 36t69.5 13.5q38 0 69 -13.5t52.5 -36t33 -52.5t11.5 -63zM300 482q0 25 -8 47.5t-23 39t-37 26t-49 9.5t-49 -9.5t-37 -26t-23 -39t-8 -47.5q0 -24 8 -45.5t23 -38t37 -26.5t49 -10t49 10
t37 26.5t23 38t8 45.5zM680 142q0 24 -8 45.5t-23 38t-37 26.5t-49 10t-49 -10t-37 -26.5t-23 -38t-8 -45.5q0 -25 8 -47.5t23 -39t37 -26t49 -9.5t49 9.5t37 26t23 39t8 47.5zM1109 142q0 -34 -11.5 -64.5t-33 -53t-52.5 -36t-69 -13.5q-39 0 -69.5 13.5t-52 36t-33 53
t-11.5 64.5q0 33 11.5 63t33 52.5t52 36t69.5 13.5q38 0 69 -13.5t52.5 -36t33 -52.5t11.5 -63zM1060 142q0 24 -8 45.5t-23 38t-37 26.5t-49 10t-49 -10t-37 -26.5t-23 -38t-8 -45.5q0 -25 8 -47.5t23 -39t37 -26t49 -9.5t49 9.5t37 26t23 39t8 47.5z" />
    <glyph glyph-name="guilsinglleft" unicode="&#x2039;" horiz-adv-x="310" 
d="M255 46l-217 152v46l217 152l10 -20l-143 -155l143 -155z" />
    <glyph glyph-name="guilsinglright" unicode="&#x203a;" horiz-adv-x="310" 
d="M58 46l-10 20l143 155l-143 155l10 20l217 -152v-46z" />
    <glyph glyph-name="fraction" unicode="&#x2044;" horiz-adv-x="525" 
d="M58 -16h-58l468 654h57z" />
    <glyph glyph-name="Euro" unicode="&#x20ac;" horiz-adv-x="524" 
d="M507 109q-28 -55 -73 -89.5t-114 -34.5q-44 0 -82 16.5t-67.5 46.5t-49.5 72t-29 93h-67l3 41h58q-1 10 -1 19.5v19.5q0 11 0.5 21t1.5 21h-62l3 41h64q11 56 34.5 102.5t57.5 80t77 52t92 18.5q31 0 58.5 -6.5t48.5 -17.5t33 -26.5t12 -32.5q0 -22 -13.5 -36t-35.5 -14
q-14 0 -25 6.5t-19 17t-13 23.5t-8 26q-14 9 -26.5 12.5t-29.5 3.5q-68 0 -109 -56.5t-52 -152.5h199l3 -41h-205v-22q0 -32 3 -59h199l3 -41h-195q18 -81 63 -121.5t106 -40.5q42 0 76.5 20t60.5 49l20 -11v0z" />
    <glyph glyph-name="trademark" unicode="&#x2122;" horiz-adv-x="917" 
d="M732 253l1 27l30 7q8 2 10.5 13.5t1.5 48.5l-4 232h-10l-107 -316h-50l-85 319h-10l-6 -195q-1 -33 -1.5 -53t0.5 -30.5t4 -14.5t8 -6l32 -5l1 -27h-132l2 27l30 5q5 1 8.5 4.5t6.5 14t5 31t3 54.5l6 188q0 5 -2 9t-10 6l-35 6l-2 27h146l68 -278h10l90 278h148l-2 -27
l-34 -6q-8 -2 -11 -6t-3 -9l4 -228q0 -19 2 -31t4.5 -18.5t6 -9t7.5 -3.5l30 -7l2 -27h-163zM368 489h-30l-6 19q-9 27 -16 44t-17.5 27t-26.5 13.5t-42 3.5h-1v-296q0 -4 2.5 -8t9.5 -6l44 -6l1 -27h-181l2 27l44 6q8 2 10.5 6t2.5 8v296h-1q-21 0 -35.5 -4t-26 -14
t-20 -27t-17.5 -43l-7 -19h-27l7 136h331v-136z" />
    <glyph glyph-name="Delta" unicode="&#x2206;" horiz-adv-x="474" 
d="M470 590l-62 -11q-23 -4 -23 -24v-346q0 -61 -16.5 -104t-44.5 -70t-65 -39t-79 -12q-47 0 -81 9.5t-55.5 25t-32 36t-10.5 41.5q0 29 17 46.5t40 17.5q20 0 36 -12t16 -34q0 -16 -5.5 -28.5t-13.5 -20.5q8 -13 30.5 -27t57.5 -14q58 0 84.5 38.5t26.5 119.5v373
q0 20 -23 24l-73 11l-3 35h282z" />
    <glyph glyph-name="minus" unicode="&#x2212;" horiz-adv-x="486" 
d="M41 208l3 54h399l3 -54h-405z" />
    <glyph glyph-name="apple" unicode="&#xf8ff;" horiz-adv-x="758" 
d="M583 236l69 -189l-189 69l-85 -181l-84 180l-187 -68l68 187l-181 86l181 83l-68 189l187 -69l86 181l83 -181l189 69l-69 -189l180 -82zM531 382l50 139l-139 -50l-63 133l-63 -133l-139 50l51 -139l-134 -63l134 -63l-51 -138l139 51l62 -135l64 135l139 -51l-50 140
l132 62z" />
    <glyph glyph-name="ff" unicode="&#xfb00;" horiz-adv-x="613" 
d="M685 634q0 -25 -14 -37t-34 -12q-21 0 -40 16.5t-27 49.5l-1 4l-29 2q-35 -20 -53.5 -62.5t-18.5 -109.5v-37h137l-7 -50h-130v-342q0 -8 7 -12t31 -6l54 -3l3 -35h-242l3 35l28 3q11 2 22.5 6t11.5 13v343h-210v-330q0 -9 5 -15.5t18 -8.5l74 -11l3 -35h-247l3 35l39 11
q23 4 23 24v325l-82 5l6 48h71l1 11q5 53 24 95t47.5 71.5t65 45.5t75.5 16q38 0 64.5 -18t26.5 -45q0 -25 -14 -37t-34 -12q-21 0 -40 16.5t-27 49.5l-1 4l-29 2q-35 -20 -53.5 -62.5t-18.5 -109.5v-27h205l1 21q3 53 21.5 95t48 71.5t66.5 45.5t76 16q38 0 64.5 -18
t26.5 -45z" />
    <glyph glyph-name="fi" unicode="&#xfb01;" horiz-adv-x="563" 
d="M321 0l3 35l28 3q34 3 34 19v341h-210v-342q0 -8 7 -12t31 -6l54 -3l3 -35h-242l3 35l28 3q34 3 34 19v338l-82 5l6 48h71l1 21q3 53 20.5 95t48 71.5t72 45.5t90.5 16q15 0 32.5 -4.5t32 -13.5t24.5 -22.5t10 -31.5q0 -23 -14.5 -36.5t-34.5 -13.5q-26 0 -42 14t-24 47
l-1 4l-57 12q-35 -20 -53 -60t-18 -107v-37h164l128 13v-405q0 -8 7 -12t31 -6l29 -3l3 -35h-217z" />
    <glyph glyph-name="fl" unicode="&#xfb02;" horiz-adv-x="563" 
d="M176 398v-342q0 -8 7 -12t31 -6l54 -3l3 -35h-242l3 35l28 3q34 3 34 19v338l-82 5l6 48h71l1 21q3 53 20.5 95t48 71.5t72 45.5t90.5 16q17 0 36 -5.5t34 -16.5l77 22v-641q0 -8 7 -12t31 -6l29 -3l3 -35h-217l3 35l28 3q34 3 34 19v341h-210zM386 577q-10 -2 -15 -2
q-26 0 -42 14t-24 47l-1 4l-57 12q-35 -20 -53 -60t-18 -107v-37h210v129v0z" />
    <glyph glyph-name="ffi" unicode="&#xfb03;" horiz-adv-x="855" 
d="M760 461v-405q0 -8 7 -12t31 -6l29 -3l3 -35h-217l3 35l28 3q34 3 34 19v341h-210v-342q0 -8 7 -12t31 -6l54 -3l3 -35h-242l3 35l28 3q11 2 22.5 6t11.5 13v343h-210v-330q0 -9 5 -15.5t18 -8.5l74 -11l3 -35h-247l3 35l39 11q23 4 23 24v325l-82 5l6 48h71l1 11
q5 53 24 95t47.5 71.5t65 45.5t75.5 16q38 0 64.5 -18t26.5 -45q0 -25 -14 -37t-34 -12q-21 0 -40 16.5t-27 49.5l-1 4l-29 2q-35 -20 -53.5 -62.5t-18.5 -109.5v-27h205l1 21q3 53 20.5 95t48 71.5t72 45.5t90.5 16q15 0 32.5 -4.5t32 -13.5t24.5 -22.5t10 -31.5
q0 -23 -14.5 -36.5t-34.5 -13.5q-26 0 -42 14t-24 47l-1 4l-57 12q-35 -20 -53 -60t-18 -107v-37h164z" />
    <glyph glyph-name="ffl" unicode="&#xfb04;" horiz-adv-x="855" 
d="M468 398v-342q0 -8 7 -12t31 -6l54 -3l3 -35h-242l3 35l28 3q11 2 22.5 6t11.5 13v343h-210v-330q0 -9 5 -15.5t18 -8.5l74 -11l3 -35h-247l3 35l39 11q23 4 23 24v325l-82 5l6 48h71l1 11q5 53 24 95t47.5 71.5t65 45.5t75.5 16q38 0 64.5 -18t26.5 -45q0 -25 -14 -37
t-34 -12q-21 0 -40 16.5t-27 49.5l-1 4l-29 2q-35 -20 -53.5 -62.5t-18.5 -109.5v-27h205l1 21q3 53 20.5 95t48 71.5t72 45.5t90.5 16q17 0 36 -5.5t34 -16.5l77 22v-641q0 -8 7 -12t31 -6l29 -3l3 -35h-217l3 35l28 3q34 3 34 19v341h-210zM678 577q-10 -2 -15 -2
q-26 0 -42 14t-24 47l-1 4l-57 12q-35 -20 -53 -60t-18 -107v-37h210v129v0z" />
    </font>
</defs>
</svg>
