<?xml version="1.0" encoding="iso-8859-1"?>
<!-- Generator: Adobe Illustrator 15.0.0, SVG Export Plug-In . SVG Version: 6.00 Build 0)  -->
<!DOCTYPE svg PUBLIC "-//W3C//DTD SVG 1.1//EN" "http://www.w3.org/Graphics/SVG/1.1/DTD/svg11.dtd">
<svg version="1.1" id="Layer_1" xmlns="http://www.w3.org/2000/svg" xmlns:xlink="http://www.w3.org/1999/xlink" x="0px" y="0px"
	 width="20px" height="20px" viewBox="0 0 20 20" style="enable-background:new 0 0 20 20;" xml:space="preserve">
<path style="fill:#FFB932;" d="M18.153,2.504h-1.252h-0.626V1.252C16.275,0.561,15.714,0,15.023,0s-1.252,0.561-1.252,1.252v1.252
	H6.26V1.252C6.26,0.561,5.699,0,5.008,0S3.756,0.561,3.756,1.252v1.252H3.13H2.504H1.878C0.841,2.504,0,3.345,0,4.382V6.26v0.626
	v11.268c0,1.036,0.841,1.878,1.878,1.878h16.275c1.036,0,1.878-0.842,1.878-1.878V6.886V6.26V4.382
	C20.031,3.345,19.189,2.504,18.153,2.504 M14.397,1.252c0-0.345,0.28-0.626,0.626-0.626s0.626,0.281,0.626,0.626v1.252h-1.252V1.252
	z M4.382,1.252c0-0.345,0.281-0.626,0.626-0.626s0.626,0.281,0.626,0.626v1.252H4.382V1.252z M19.405,17.527
	c0,0.053-0.004,0.105-0.008,0.156l0,0c0.005,0.052,0.008,0.104,0.008,0.156c0,0.865-0.7,1.565-1.565,1.565
	c-0.052,0-0.104-0.003-0.156-0.008l0,0c-0.051,0.004-0.104,0.008-0.156,0.008H2.504c-0.053,0-0.104-0.004-0.156-0.008l0,0
	c-0.052,0.005-0.104,0.008-0.157,0.008c-0.864,0-1.565-0.7-1.565-1.565c0-0.052,0.003-0.104,0.008-0.156l0,0
	c-0.005-0.051-0.008-0.104-0.008-0.156V5.634h18.779V17.527z M19.405,5.008H17.84H0.626c0-0.053,0.003-0.104,0.008-0.156l0,0
	C0.629,4.799,0.626,4.748,0.626,4.695c0-0.864,0.701-1.565,1.565-1.565h12.207h1.252h0.626h0.626h0.626
	c0.053,0,0.105,0.003,0.156,0.008l0,0c0.052-0.005,0.104-0.008,0.156-0.008c0.865,0,1.565,0.701,1.565,1.565
	c0,0.053-0.003,0.104-0.008,0.157l0,0C19.401,4.903,19.405,4.955,19.405,5.008"/>
</svg>
