<?xml version="1.0" encoding="iso-8859-1"?>
<!-- Generator: Adobe Illustrator 15.0.0, SVG Export Plug-In . SVG Version: 6.00 Build 0)  -->
<!DOCTYPE svg PUBLIC "-//W3C//DTD SVG 1.1//EN" "http://www.w3.org/Graphics/SVG/1.1/DTD/svg11.dtd">
<svg version="1.1" id="Layer_1" xmlns="http://www.w3.org/2000/svg" xmlns:xlink="http://www.w3.org/1999/xlink" x="0px" y="0px"
	 width="17px" height="17px" viewBox="0 0 17 17" style="enable-background:new 0 0 17 17;" xml:space="preserve">
<g>
	<g>
		<defs>
			<rect id="SVGID_1_" y="0.066" width="15.724" height="16.934"/>
		</defs>
		<clipPath id="SVGID_2_">
			<use xlink:href="#SVGID_1_"  style="overflow:visible;"/>
		</clipPath>
		<path style="clip-path:url(#SVGID_2_);" d="M15.613,12.238c-0.156-0.698-0.552-1.141-0.9-1.531c-0.5-0.558-0.97-1.083-0.97-2.492
			V3.85l-0.002-0.041c-0.01-0.124,0.04-0.895-1.948-2.091c-0.531-0.321-0.96-0.468-1.244-0.614C10.549,0.493,10.056,0,9.444,0H2.248
			c-0.61,0-1.104,0.494-1.104,1.104v14.058H1.105C0.494,15.162,0,15.655,0,16.265v0.72h11.693v-0.72
			c0-0.609-0.494-1.103-1.104-1.103h-0.041V7.995C10.668,8,10.772,8.017,10.835,8.04v4.499c-0.02,0.205-0.053,0.999,0.497,1.623
			c0.406,0.462,1.011,0.697,1.793,0.697c1.132,0,1.848-0.233,2.25-0.734C15.831,13.553,15.742,12.816,15.613,12.238L15.613,12.238z
			 M2.901,3.221c0-0.461,0.375-0.835,0.838-0.835h4.217c0.462,0,0.836,0.374,0.836,0.835v1.255c0,0.463-0.374,0.837-0.836,0.837
			H3.739c-0.462,0-0.838-0.375-0.838-0.837V3.221z M14.52,13.439c-0.097,0.119-0.408,0.322-1.395,0.322
			c-0.45,0-0.775-0.106-0.965-0.319c-0.283-0.316-0.234-0.807-0.234-0.807l0.003-4.645c0-0.299-0.119-0.568-0.338-0.76
			c-0.294-0.256-0.713-0.324-1.042-0.334V2.332c0.221,0.108,0.477,0.233,0.774,0.375c1.133,0.54,1.308,1.118,1.324,1.177v4.33
			c0,1.827,0.692,2.602,1.249,3.224c0.309,0.346,0.554,0.618,0.647,1.038C14.652,12.968,14.646,13.281,14.52,13.439L14.52,13.439z
			 M14.52,13.439"/>
	</g>
</g>
</svg>
