<?xml version="1.0" encoding="iso-8859-1"?>
<!-- Generator: Adobe Illustrator 15.0.0, SVG Export Plug-In . SVG Version: 6.00 Build 0)  -->
<!DOCTYPE svg PUBLIC "-//W3C//DTD SVG 1.1//EN" "http://www.w3.org/Graphics/SVG/1.1/DTD/svg11.dtd">
<svg version="1.1" id="Layer_1" xmlns="http://www.w3.org/2000/svg" xmlns:xlink="http://www.w3.org/1999/xlink" x="0px" y="0px"
	 width="17px" height="17px" viewBox="0 0 17 17" style="enable-background:new 0 0 17 17;" xml:space="preserve">
<g>
	<path d="M8.066,0C3.611,0,0,3.611,0,8.066c0,4.454,3.611,8.065,8.066,8.065c4.454,0,8.066-3.611,8.066-8.065
		C16.133,3.611,12.521,0,8.066,0L8.066,0z M13.396,12.179l-0.729-0.604c-0.031-0.026-0.075-0.02-0.099,0.012
		c-0.026,0.028-0.021,0.072,0.007,0.098l0.737,0.604c-0.292,0.366-0.624,0.7-0.984,0.996l-0.593-0.761
		c-0.023-0.032-0.068-0.037-0.1-0.014c-0.031,0.024-0.036,0.068-0.013,0.1l0.593,0.76c-0.343,0.267-0.71,0.503-1.102,0.7
		l-0.444-0.841c-0.019-0.034-0.06-0.048-0.094-0.031c-0.034,0.018-0.047,0.063-0.028,0.096l0.442,0.842
		c-0.427,0.207-0.877,0.371-1.35,0.483l-0.18-1.009c-0.008-0.039-0.042-0.063-0.081-0.058c-0.039,0.009-0.063,0.045-0.058,0.081
		l0.184,1.011c-0.359,0.079-0.721,0.133-1.098,0.151v-1.203c0-0.188-0.151-0.343-0.339-0.343c-0.19,0-0.345,0.154-0.345,0.343v1.203
		c-0.311-0.016-0.616-0.057-0.917-0.114l0.152-0.85c0.008-0.037-0.019-0.074-0.058-0.081c-0.037-0.004-0.073,0.019-0.081,0.059
		l-0.152,0.844c-0.459-0.098-0.903-0.236-1.324-0.421l0.392-0.742c0.018-0.033,0.005-0.075-0.031-0.093
		c-0.032-0.017-0.076-0.003-0.094,0.031L5.22,14.171c-0.395-0.183-0.766-0.405-1.112-0.658l0.551-0.704
		c0.023-0.032,0.018-0.073-0.011-0.101c-0.031-0.022-0.075-0.016-0.099,0.014L3.996,13.43c-0.368-0.282-0.71-0.601-1.014-0.95
		l0.724-0.596c0.029-0.023,0.034-0.068,0.011-0.099c-0.026-0.029-0.071-0.034-0.1-0.011l-0.729,0.601
		c-0.294-0.356-0.551-0.745-0.77-1.154l0.854-0.45c0.034-0.016,0.048-0.06,0.029-0.094c-0.018-0.034-0.06-0.047-0.093-0.028
		l-0.852,0.446c-0.225-0.449-0.41-0.925-0.533-1.423l0.99-0.186c0.036-0.009,0.06-0.044,0.055-0.081
		C2.559,9.366,2.522,9.343,2.486,9.351l-0.99,0.183C1.415,9.17,1.358,8.794,1.34,8.411h1.149c0.188,0,0.342-0.154,0.342-0.342
		c0-0.19-0.154-0.345-0.342-0.345H1.34c0.018-0.368,0.07-0.729,0.149-1.081c0.002,0,0.004,0.006,0.01,0.006l1.1,0.208
		c0.005,0,0.01,0,0.013,0c0.034,0,0.063-0.023,0.071-0.058c0.005-0.036-0.019-0.073-0.058-0.081l-1.1-0.206
		c-0.005-0.002-0.007,0-0.012,0C1.635,5.998,1.817,5.507,2.05,5.044l0.972,0.509c0.01,0.008,0.021,0.011,0.031,0.011
		c0.026,0,0.05-0.014,0.063-0.038C3.134,5.491,3.121,5.45,3.084,5.434L2.115,4.922c0.222-0.42,0.48-0.817,0.783-1.178l0.831,0.685
		c0.016,0.01,0.029,0.016,0.044,0.016c0.021,0,0.042-0.008,0.055-0.026c0.023-0.029,0.02-0.073-0.011-0.097L2.993,3.64
		C3.305,3.285,3.653,2.96,4.035,2.676L4.664,3.48c0.013,0.019,0.034,0.029,0.055,0.029c0.016,0,0.029-0.005,0.042-0.016
		C4.792,3.47,4.797,3.426,4.774,3.397L4.147,2.593C4.499,2.336,4.878,2.115,5.28,1.932l0.446,0.846
		c0.013,0.023,0.037,0.037,0.063,0.037c0.011,0,0.023-0.003,0.034-0.008C5.857,2.788,5.87,2.747,5.852,2.712L5.411,1.877
		c0.43-0.185,0.885-0.323,1.358-0.416l0.167,0.936c0.008,0.03,0.036,0.056,0.067,0.056c0.005,0,0.011,0,0.013-0.001
		C7.056,2.444,7.082,2.407,7.074,2.37L6.907,1.436c0.269-0.047,0.541-0.084,0.82-0.099c0,0.007-0.002,0.01-0.002,0.015v1.256
		c0,0.188,0.154,0.342,0.342,0.342c0.19,0,0.342-0.154,0.342-0.342V1.352c0-0.005-0.002-0.008-0.002-0.012
		c0.379,0.018,0.749,0.073,1.106,0.151l-0.19,1.065C9.317,2.595,9.341,2.631,9.38,2.64c0.005,0,0.008,0,0.011,0
		c0.034,0,0.065-0.023,0.07-0.058l0.19-1.065c0.478,0.115,0.932,0.285,1.363,0.496l-0.47,0.886
		c-0.019,0.034-0.006,0.078,0.031,0.097c0.01,0.005,0.021,0.008,0.031,0.008c0.025,0,0.05-0.014,0.063-0.04l0.467-0.888
		c0.395,0.204,0.764,0.438,1.107,0.712l-0.621,0.794c-0.026,0.032-0.019,0.073,0.011,0.1c0.016,0.008,0.028,0.013,0.044,0.013
		c0.021,0,0.042-0.011,0.055-0.026l0.624-0.797c0.363,0.298,0.689,0.638,0.981,1.008l-0.763,0.627
		c-0.027,0.023-0.033,0.067-0.007,0.099c0.013,0.016,0.033,0.026,0.052,0.026c0.016,0,0.031-0.005,0.045-0.018l0.76-0.624
		c0.279,0.371,0.525,0.768,0.724,1.188L13.31,5.62c-0.034,0.015-0.047,0.06-0.028,0.093c0.013,0.024,0.037,0.037,0.063,0.037
		c0.01,0,0.021-0.003,0.031-0.008l0.836-0.439c0.206,0.452,0.354,0.936,0.454,1.435l-0.893,0.167
		c-0.04,0.007-0.063,0.044-0.058,0.081c0.008,0.034,0.036,0.058,0.07,0.058c0.005,0,0.008,0,0.013-0.002l0.894-0.167
		c0.049,0.279,0.089,0.561,0.104,0.851h-1.16c-0.188,0-0.342,0.155-0.342,0.343c0,0.19,0.153,0.342,0.342,0.342h1.16
		c-0.016,0.311-0.061,0.611-0.115,0.906l-0.883-0.165c-0.036-0.008-0.075,0.019-0.083,0.055c-0.006,0.037,0.018,0.076,0.058,0.081
		l0.882,0.167c-0.104,0.497-0.259,0.974-0.465,1.424l-0.814-0.428c-0.034-0.02-0.075-0.006-0.094,0.027
		c-0.019,0.037-0.006,0.079,0.028,0.094l0.817,0.433C13.923,11.419,13.678,11.813,13.396,12.179L13.396,12.179z M13.396,12.179"/>
	<path d="M12.464,7.724H8.623C8.508,7.533,8.307,7.4,8.066,7.4c-0.079,0-0.152,0.02-0.219,0.044L5.189,4.789
		c-0.134-0.133-0.351-0.133-0.483,0s-0.133,0.35,0,0.483l2.713,2.714C7.414,8.014,7.4,8.038,7.4,8.066
		c0,0.206,0.099,0.389,0.245,0.511l-1.885,3.35l0.198,0.112l1.885-3.349c0.07,0.025,0.144,0.041,0.222,0.041
		c0.24,0,0.441-0.133,0.559-0.323h3.839c0.188,0,0.342-0.155,0.342-0.342C12.806,7.878,12.651,7.724,12.464,7.724L12.464,7.724z
		 M12.464,7.724"/>
</g>
</svg>
