<?xml version="1.0" encoding="iso-8859-1"?>
<!-- Generator: Adobe Illustrator 15.0.0, SVG Export Plug-In . SVG Version: 6.00 Build 0)  -->
<!DOCTYPE svg PUBLIC "-//W3C//DTD SVG 1.1//EN" "http://www.w3.org/Graphics/SVG/1.1/DTD/svg11.dtd">
<svg version="1.1"
	 id="Layer_1" xmlns:rdf="http://www.w3.org/1999/02/22-rdf-syntax-ns#" xmlns:dc="http://purl.org/dc/elements/1.1/" xmlns:cc="http://creativecommons.org/ns#"
	 xmlns="http://www.w3.org/2000/svg" xmlns:xlink="http://www.w3.org/1999/xlink" x="0px" y="0px" width="24px" height="24px"
	 viewBox="0 0 24 24" style="enable-background:new 0 0 24 24;" xml:space="preserve">
<g transform="translate(0 -1028.4)">
	<g>
		<g>
			<path style="fill:#899B3D;" d="M10,1032.369l-5,0.8v11.5l5-0.8V1032.369z"/>
			<path style="fill:#6AAEDA;" d="M5,1046.669l-5,1.3v3.5l5,0.9V1046.669z"/>
			<path style="fill:#ABC26E;" d="M0,1032.369v13l5-1.3v-10.9L0,1032.369z"/>
			<path style="fill:#2980B9;" d="M10,1044.869l-5,2.6v4.9l5-0.9V1044.869z"/>
			<path style="fill:#E5D888;" d="M10,1041.769l-5,2.3v3.399l5.023-2L10,1041.769z"/>
			<path style="fill:#E5D888;" d="M6.95,1032.869l2.503,9.2l0.547-0.2v-9.5L6.95,1032.869z"/>
			<path style="fill:#ABC26E;" d="M10.078,1032.369l2.422,10.8H15v-10L10.078,1032.369z"/>
			<path style="fill:#FEF6A6;" d="M10,1032.369v10.3l2.5-0.3l-2.422-10H10z"/>
			<path style="fill:#FEF6A6;" d="M15.025,1041.269L10,1041.968v4.2l5-0.5L15.025,1041.269z"/>
			<path style="fill:#899B3D;" d="M15,1033.169v8.2l5-1.4v-7.6L15,1033.169z"/>
			<path style="fill:#2980B9;" d="M20,1042.369l-5,2.4v7.6l5-0.9V1042.369z"/>
			<path style="fill:#6AAEDA;" d="M15,1044.769l-4.997,0.699l-0.003,6l5,0.9V1044.769z"/>
			<path style="fill:#FEF6A6;" d="M5,1044.069l-5,0.8v3.3l5-0.7V1044.069z"/>
			<path style="fill:#E5D888;" d="M20,1038.969l-5,2.4v3.4l5-1.601V1038.969z"/>
		</g>
		<g>
			<path style="fill:#C0392B;" d="M12.06,1036.029c0.547-0.561,0.821-1.261,0.821-1.961c0-0.841-0.274-1.542-0.821-2.102
				c-0.547-0.42-1.207-0.701-1.981-0.701s-1.434,0.281-1.981,0.701c-0.547,0.56-0.821,1.26-0.821,2.102c0,0.7,0.274,1.4,0.821,1.961
				c0.547,0.56,1.208,0.84,1.981,0.84S11.513,1036.589,12.06,1036.029 M15.682,1034.068c0,0.7-0.12,1.4-0.361,1.961l-3.982,8.407
				c-0.117,0.278-0.293,0.419-0.525,0.559c-0.228,0.142-0.471,0.28-0.734,0.28c-0.263,0-0.511-0.139-0.745-0.28
				c-0.226-0.14-0.394-0.28-0.503-0.559l-3.995-8.407c-0.241-0.561-0.361-1.261-0.361-1.961c0-1.542,0.547-2.943,1.643-4.063
				c1.094-0.981,2.416-1.542,3.962-1.542c1.547,0,2.868,0.56,3.962,1.542C15.137,1031.125,15.682,1032.526,15.682,1034.068"/>
		</g>
	</g>
</g>
</svg>
