<?xml version="1.0" encoding="iso-8859-1"?>
<!-- Generator: Adobe Illustrator 15.0.0, SVG Export Plug-In . SVG Version: 6.00 Build 0)  -->
<!DOCTYPE svg PUBLIC "-//W3C//DTD SVG 1.1//EN" "http://www.w3.org/Graphics/SVG/1.1/DTD/svg11.dtd">
<svg version="1.1" id="Layer_1" xmlns="http://www.w3.org/2000/svg" xmlns:xlink="http://www.w3.org/1999/xlink" x="0px" y="0px"
	 width="17px" height="17px" viewBox="0 0 17 17" style="enable-background:new 0 0 17 17;" xml:space="preserve">
<g>
	<path d="M1.969,4.997l1.42,4.106h0.011l1.428-4.106h1.455v5.545H5.172V8.889l0.111-2.487L5.271,6.398l-1.5,4.144H3.024L1.531,6.414
		L1.52,6.417l0.11,2.471v1.653H0.518V4.997H1.969z"/>
	<path d="M8.436,8.531v2.011H7.324V4.997h2.209c0.649,0,1.154,0.16,1.514,0.48s0.539,0.75,0.539,1.291
		c0,0.541-0.18,0.97-0.539,1.288s-0.864,0.476-1.514,0.476H8.436z M8.436,7.674h1.097c0.317,0,0.554-0.083,0.71-0.25
		c0.156-0.167,0.234-0.383,0.234-0.649c0-0.272-0.078-0.493-0.234-0.665s-0.393-0.257-0.71-0.257H8.436V7.674z"/>
	<path d="M16.666,9.834c-0.167,0.208-0.422,0.391-0.763,0.55c-0.342,0.159-0.786,0.238-1.331,0.238
		c-0.691,0-1.248-0.208-1.671-0.623s-0.634-0.966-0.634-1.651V7.19c0-0.683,0.203-1.233,0.609-1.649
		c0.406-0.417,0.94-0.625,1.604-0.625c0.695,0,1.216,0.159,1.562,0.476c0.345,0.317,0.554,0.763,0.624,1.337h-1.081
		c-0.051-0.31-0.157-0.546-0.32-0.71c-0.162-0.164-0.414-0.246-0.754-0.246c-0.348,0-0.624,0.13-0.828,0.389
		s-0.307,0.599-0.307,1.021v1.166c0,0.429,0.105,0.773,0.318,1.033c0.212,0.258,0.504,0.389,0.878,0.389
		c0.264,0,0.473-0.027,0.626-0.078c0.153-0.053,0.272-0.119,0.356-0.201V8.485h-0.982v-0.77h2.094V9.834z"/>
</g>
</svg>
