<?xml version="1.0" encoding="utf-8"?>
<!-- Generator: Adobe Illustrator 15.0.0, SVG Export Plug-In . SVG Version: 6.00 Build 0)  -->
<!DOCTYPE svg PUBLIC "-//W3C//DTD SVG 1.1//EN" "http://www.w3.org/Graphics/SVG/1.1/DTD/svg11.dtd">
<svg version="1.1" id="Layer_1" xmlns="http://www.w3.org/2000/svg" xmlns:xlink="http://www.w3.org/1999/xlink" x="0px" y="0px"
	 width="512px" height="512px" viewBox="0 0 512 512" enable-background="new 0 0 512 512" xml:space="preserve">
<g>
	<path fill="#48B3D6" d="M219.615,175.803c0-60.271-49.035-109.308-109.31-109.308C50.034,66.495,1,115.532,1,175.803
		c0,17.663,4.214,34.358,11.686,49.138l97.62,201.313l97.638-201.345C215.404,210.136,219.615,193.452,219.615,175.803z
		 M110.306,236.293c-33.354,0-60.49-27.138-60.49-60.49c0-33.354,27.136-60.491,60.49-60.491c33.356,0,60.491,27.137,60.491,60.491
		C170.797,209.155,143.662,236.293,110.306,236.293z"/>
	<g>
		<path fill="#48B3D6" d="M511,174.237c0-61.374-49.932-111.308-111.31-111.308c-61.375,0-111.306,49.934-111.306,111.308
			c0,17.986,4.29,34.986,11.9,50.037l99.405,204.996l99.424-205.029C506.712,209.198,511,192.209,511,174.237z M399.69,235.834
			c-33.964,0-61.597-27.634-61.597-61.597c0-33.965,27.633-61.598,61.597-61.598c33.966,0,61.599,27.633,61.599,61.598
			C461.289,208.2,433.656,235.834,399.69,235.834z"/>
	</g>
	<rect x="154.115" y="395.789" fill="#48B3D6" width="199.385" height="30.465"/>
</g>
</svg>
