<?xml version="1.0" encoding="utf-8"?>
<!-- Generator: Adobe Illustrator 15.0.0, SVG Export Plug-In . SVG Version: 6.00 Build 0)  -->
<!DOCTYPE svg PUBLIC "-//W3C//DTD SVG 1.1//EN" "http://www.w3.org/Graphics/SVG/1.1/DTD/svg11.dtd">
<svg version="1.1" id="Layer_1" xmlns="http://www.w3.org/2000/svg" xmlns:xlink="http://www.w3.org/1999/xlink" x="0px" y="0px"
	 width="512px" height="512px" viewBox="0 0 512 512" enable-background="new 0 0 512 512" xml:space="preserve">
<g>
	<path fill="#48B3D6" d="M233.358,296.213c0-51.93-42.248-94.179-94.18-94.179c-51.931,0-94.178,42.25-94.178,94.179
		c0,15.219,3.631,29.603,10.069,42.337L139.178,512l84.124-173.478C229.73,325.794,233.358,311.419,233.358,296.213z
		 M139.178,348.331c-28.737,0-52.118-23.382-52.118-52.118c0-28.738,23.381-52.119,52.118-52.119
		c28.739,0,52.119,23.38,52.119,52.119C191.296,324.949,167.917,348.331,139.178,348.331z"/>
	<path fill="#48B3D6" d="M406.04-1.043c-26.296,0-47.69,21.394-47.69,47.689c0,7.707,1.84,14.99,5.1,21.439l42.591,87.831
		l42.598-87.845c3.255-6.446,5.092-13.725,5.092-21.424C453.729,20.35,432.335-1.043,406.04-1.043z M406.04,73.038
		c-14.553,0-26.392-11.839-26.392-26.392c0-14.552,11.839-26.392,26.392-26.392c14.551,0,26.391,11.84,26.391,26.392
		C432.431,61.198,420.591,73.038,406.04,73.038z"/>
	<path fill="#48B3D6" d="M364.503,308.343c-1.935-9.101-4.447-18.016-7.612-26.771c-4.243-11.73-9.332-23.193-13.229-35.057
		c-7.285-22.175,5.282-40.682,7.644-44.045c4.139-5.89,8.978-11.296,14.083-16.358c9.83-9.746,20.671-18.458,32.012-26.48
		c-1.405-2.177-2.766-4.377-4.062-6.619c-16.313,6.396-100.201,35.715-98.155,100.486c0.41,12.985,5.427,25.344,8.518,37.93
		c1.49,6.063,2.783,12.183,3.572,18.381c0.341,2.792,0.55,5.6,0.779,8.403c0.006-0.021,0.004-0.037-0.009-0.049
		c0.008,0.083,0.216,8.891-0.175,12.706c-1.226,11.946-2.988,24.016-8.024,34.973c-4.683,10.189-11.749,19.05-20.491,26.054
		c-19.981,16.007-46.457,22.407-71.438,24.981c-1.189,0.124-2.379,0.23-3.568,0.334l-44.604,91.98
		c22.008-1.369,43.959-4.38,65.376-9.65c25.203-6.204,49.765-15.576,71.771-29.464c21.99-13.877,40.9-32.646,53.488-55.501
		c13.17-23.905,18.446-51.288,17.322-78.421C367.317,326.887,366.438,317.438,364.503,308.343z"/>
</g>
</svg>
